<svg width="104" height="104" viewBox="0 0 104 104" fill="none" xmlns="http://www.w3.org/2000/svg">
<path d="M32.6322 22.7678H70.9596C76.7705 22.7678 81.4687 27.4488 81.4687 33.2385V69.9473C81.4687 75.7369 76.7705 80.4179 70.9596 80.4179H32.6322C26.8212 80.4179 22.123 75.7369 22.123 69.9473V33.2385C22.123 27.4488 26.8212 22.7678 32.6322 22.7678Z" fill="#00005B"/>
<path d="M45.9613 57.26H36.7628L34.8835 63.0743C34.834 63.296 34.6362 63.4439 34.4137 63.4192H29.7649C29.4929 63.4192 29.4187 63.2714 29.4929 62.9758L37.4551 40.236C37.5293 39.9896 37.6035 39.7679 37.7024 39.4723C37.8013 38.9549 37.8508 38.4129 37.8508 37.8709C37.826 37.7477 37.9249 37.6245 38.0486 37.5999H38.1228H44.453C44.6261 37.5999 44.7497 37.6738 44.7744 37.7969L53.7999 62.9265C53.8741 63.1975 53.7999 63.3207 53.5526 63.3207H48.3846C48.2115 63.3453 48.0384 63.2221 47.989 63.0497L45.9613 57.1368V57.26ZM38.1969 52.3573H44.4777C44.3293 51.8399 44.1315 51.224 43.909 50.5834C43.6864 49.9183 43.4639 49.2038 43.2413 48.4647C42.9941 47.7009 42.7715 46.9618 42.5242 46.1981C42.277 45.4344 42.0544 44.7199 41.8566 44.0054C41.6588 43.3156 41.4857 42.675 41.3126 42.0838H41.2631C41.0406 43.1431 40.7686 44.2025 40.4224 45.2619C40.0515 46.4445 39.6806 47.6763 39.2849 48.9081C38.9635 50.1646 38.5679 51.3225 38.1969 52.3573Z" fill="#9999FF"/>
<path d="M68.3645 55.0425H60.5259C60.6248 55.8062 60.8721 56.5699 61.2924 57.2351C61.7375 57.9003 62.3557 58.4177 63.0975 58.7133C64.0866 59.1322 65.1746 59.3539 66.2626 59.3293C67.1281 59.3046 67.9936 59.2307 68.8343 59.0583C69.6008 58.9597 70.3427 58.7626 71.035 58.4916C71.1587 58.3931 71.2328 58.4423 71.2328 58.6887V62.4581C71.2328 62.5567 71.2081 62.6552 71.1834 62.7538C71.1339 62.8277 71.0845 62.877 71.0103 62.9262C70.219 63.2712 69.403 63.5175 68.5376 63.6653C67.3754 63.8871 66.2132 63.9856 65.0263 63.961C63.147 63.961 61.5644 63.6653 60.2786 63.0987C59.067 62.5813 58.0037 61.7683 57.163 60.7582C56.3717 59.7974 55.803 58.7133 55.4568 57.5308C55.1106 56.3729 54.9375 55.1656 54.9375 53.9338C54.9375 52.6034 55.1353 51.2977 55.5557 50.0166C55.9513 48.7847 56.5695 47.6514 57.4102 46.6413C58.2262 45.6558 59.2401 44.8675 60.4023 44.3008C61.5644 43.7342 62.9492 43.5371 64.5317 43.5371C65.8423 43.5124 67.1528 43.7588 68.3645 44.3008C69.3783 44.7443 70.2685 45.4095 70.9608 46.2718C71.6038 47.1094 72.123 48.0456 72.4445 49.0804C72.7659 50.0658 72.9143 51.0759 72.9143 52.086C72.9143 52.6773 72.8896 53.1947 72.8648 53.6628C72.8154 54.1309 72.7907 54.4758 72.7659 54.6975C72.7412 54.87 72.5928 55.0178 72.4198 55.0178C72.2714 55.0178 71.9994 55.0425 71.6038 55.0671C71.2081 55.1164 70.7383 55.141 70.1696 55.141C69.6008 55.141 69.0074 55.0425 68.3645 55.0425ZM60.5259 51.4455H65.7434C66.3863 51.4455 66.8561 51.4455 67.1528 51.4209C67.3506 51.3962 67.5485 51.3469 67.7216 51.2238V50.9774C67.7216 50.6571 67.6721 50.3615 67.5732 50.0658C67.1281 48.6862 65.8175 47.75 64.3586 47.7992C62.9986 47.7253 61.7128 48.4398 61.0699 49.6716C60.7732 50.2383 60.6001 50.8296 60.5259 51.4455Z" fill="#9999FF"/>
</svg>
