<svg width="101" height="101" viewBox="0 0 101 101" fill="none" xmlns="http://www.w3.org/2000/svg">
<path d="M29.6829 19.9922H71.1012C77.3615 19.9922 82.4699 24.9344 82.4699 31.1V70.002C82.4699 76.1186 77.4116 81.1098 71.1012 81.1098H29.6829C23.3725 81.0609 18.3142 76.1186 18.3142 69.9531V31.1C18.3142 24.9344 23.3725 19.9922 29.6829 19.9922Z" fill="#330000"/>
<path d="M49.8785 54.9733H42.0138L40.433 59.9134C40.3935 60.111 40.2354 60.2296 40.0378 60.19H36.0857C35.8486 60.19 35.809 60.0715 35.8486 59.7948L42.6462 40.2715C42.7252 40.0739 42.7647 39.8368 42.8438 39.5601C42.9228 39.1254 42.9623 38.6511 42.9623 38.1769C42.9228 38.0583 43.0414 37.9793 43.1204 37.9398H48.5743C48.7324 37.9398 48.8114 38.0188 48.8509 38.0978L56.5575 59.7948C56.6366 60.032 56.5575 60.1505 56.3599 60.1505H51.9336C51.7755 60.19 51.6569 60.0715 51.5779 59.9134L49.8785 54.9733ZM43.239 50.6655H48.5743C48.4557 50.2308 48.2977 49.6775 48.1 49.1637C47.9024 48.6104 47.7048 47.9781 47.5468 47.3457C47.3491 46.6739 47.1515 46.0415 46.9539 45.4092C46.7563 44.7374 46.5587 44.1445 46.4006 43.5517C46.2426 42.9589 46.0845 42.4056 45.9264 41.8918H45.8869C45.6893 42.8008 45.4521 43.7098 45.1755 44.6188C44.8593 45.6463 44.5432 46.6739 44.1875 47.7409C43.8713 48.808 43.5551 49.796 43.239 50.6655ZM61.2605 41.6942C60.5491 41.7338 59.8773 41.4571 59.403 40.9433C58.9288 40.4296 58.6521 39.7182 58.6917 39.0068C58.6521 38.2954 58.9288 37.6236 59.4426 37.1493C59.9563 36.6751 60.6282 36.3984 61.3 36.3984C62.13 36.3984 62.7623 36.6356 63.2366 37.1493C63.7108 37.6631 63.9479 38.335 63.9479 39.0068C63.9875 39.7182 63.7108 40.4296 63.197 40.9433C62.6833 41.4571 61.9719 41.7338 61.2605 41.6942ZM58.8893 59.9924V43.7493C58.8893 43.5517 58.9683 43.4727 59.1659 43.4727H63.3551C63.5527 43.4727 63.6318 43.5912 63.6318 43.7493V59.9924C63.6318 60.2296 63.5527 60.3481 63.3551 60.3481H59.2054C59.0078 60.3086 58.8893 60.19 58.8893 59.9924Z" fill="#FF9A00"/>
</svg>
