<svg width="104" height="104" viewBox="0 0 104 104" fill="none" xmlns="http://www.w3.org/2000/svg">
<path d="M49.4089 56.9689L60.2676 44.0281L58.0313 42.1516L47.1727 55.0925L49.4089 56.9689Z" fill="#2D2D2D"/>
<path d="M60.2683 44.0285L71.127 31.0876L68.8907 29.2112L58.032 42.152L60.2683 44.0285Z" fill="#0019FF"/>
<path d="M60.4123 44.1842L71.4951 31.4348L69.2919 29.5196L58.2091 42.269L60.4123 44.1842Z" fill="#0015FF"/>
<path d="M60.5538 44.3418L71.8574 31.7878L69.688 29.8345L58.3844 42.3885L60.5538 44.3418Z" fill="#0011FF"/>
<path d="M60.6909 44.502L72.2119 32.1472L70.0769 30.1563L58.5559 42.5111L60.6909 44.502Z" fill="#000CFF"/>
<path d="M60.8256 44.6648L72.5605 32.5129L70.4606 30.4851L58.7257 42.6369L60.8256 44.6648Z" fill="#0008FF"/>
<path d="M60.9581 44.8292L72.9033 32.884L70.8391 30.8198L58.8939 42.765L60.9581 44.8292Z" fill="#0004FF"/>
<path d="M61.0884 44.9969L73.2402 33.262L71.2124 31.162L59.0605 42.897L61.0884 44.9969Z" fill="#0000FF"/>
<path d="M61.2175 45.1663L73.5723 33.6453L71.5814 31.5103L59.2266 43.0313L61.2175 45.1663Z" fill="#0500FF"/>
<path d="M61.3386 45.3381L73.8926 34.0344L71.9392 31.865L59.3852 43.1687L61.3386 45.3381Z" fill="#0900FF"/>
<path d="M61.4606 45.5123L74.21 34.4294L72.2948 32.2263L59.5454 43.3091L61.4606 45.5123Z" fill="#0D00FF"/>
<path d="M61.5777 45.688L74.5186 34.8293L72.6421 32.5931L59.7013 43.4517L61.5777 45.688Z" fill="#1100FF"/>
<path d="M61.6929 45.8663L74.8213 35.2351L72.9842 32.9664L59.8558 43.5976L61.6929 45.8663Z" fill="#1600FF"/>
<path d="M61.8043 46.0457L75.1162 35.6453L73.319 33.3449L60.007 43.7453L61.8043 46.0457Z" fill="#1A00FF"/>
<path d="M61.9119 46.2283L75.4033 36.0618L73.6465 33.7304L60.1551 43.8969L61.9119 46.2283Z" fill="#1E00FF"/>
<path d="M62.0188 46.4117L75.6855 36.4822L73.9697 34.1205L60.3029 44.05L62.0188 46.4117Z" fill="#2200FF"/>
<path d="M62.121 46.5974L75.959 36.908L74.2846 34.5167L60.4466 44.2061L62.121 46.5974Z" fill="#2700FF"/>
<path d="M62.2177 46.7836L76.2227 37.3372L74.5902 34.917L60.5853 44.3635L62.2177 46.7836Z" fill="#2B00FF"/>
<path d="M62.3137 46.9728L76.4814 37.7722L74.8915 35.3239L60.7238 44.5246L62.3137 46.9728Z" fill="#2F00FF"/>
<path d="M62.4073 47.1641L76.7334 38.2122L75.1864 35.7365L60.8603 44.6885L62.4073 47.1641Z" fill="#3300FF"/>
<path d="M62.4954 47.3561L76.9756 38.6555L75.4721 36.1533L60.9919 44.8538L62.4954 47.3561Z" fill="#3800FF"/>
<path d="M62.5792 47.5493L77.209 39.1028L75.7494 36.5747L61.1196 45.0212L62.5792 47.5493Z" fill="#3C00FF"/>
<path d="M62.6605 47.7448L77.4355 39.5549L76.0203 37.0017L61.2453 45.1916L62.6605 47.7448Z" fill="#4000FF"/>
<path d="M62.7396 47.9413L77.6553 40.0105L76.2848 37.433L61.3691 45.3638L62.7396 47.9413Z" fill="#4400FF"/>
<path d="M62.8154 48.1393L77.8672 40.47L76.5419 37.8689L61.4901 45.5382L62.8154 48.1393Z" fill="#4800FF"/>
<path d="M62.8879 48.3383L78.0713 40.9329L76.7916 38.3091L61.6082 45.7145L62.8879 48.3383Z" fill="#4D00FF"/>
<path d="M62.9543 48.5385L78.2646 41.3992L77.0309 38.7535L61.7206 45.8928L62.9543 48.5385Z" fill="#5100FF"/>
<path d="M63.0205 48.7404L78.4531 41.8694L77.2658 39.2025L61.8332 46.0736L63.0205 48.7404Z" fill="#5500FF"/>
<path d="M63.0817 48.9427L78.6318 42.342L77.4912 39.6549L61.9411 46.2555L63.0817 48.9427Z" fill="#5900FF"/>
<path d="M63.1388 49.1464L78.8018 42.8181L77.7082 40.1115L62.0452 46.4397L63.1388 49.1464Z" fill="#5E00FF"/>
<path d="M63.1928 49.3515L78.9639 43.2976L77.9177 40.5723L62.1467 46.6262L63.1928 49.3515Z" fill="#6200FF"/>
<path d="M63.2429 49.5568L79.1172 43.7791L78.1188 41.0359L62.2445 46.8136L63.2429 49.5568Z" fill="#6600FF"/>
<path d="M63.29 49.7633L79.2627 44.2634L78.3123 41.5032L62.3396 47.0031L63.29 49.7633Z" fill="#6A00FF"/>
<path d="M63.3332 49.9705L79.3994 44.7502L78.4973 41.9739L62.4311 47.1941L63.3332 49.9705Z" fill="#6F00FF"/>
<path d="M63.3734 50.1781L79.5283 45.239L78.6748 42.4473L62.5199 47.3864L63.3734 50.1781Z" fill="#7300FF"/>
<path d="M63.4088 50.3871L79.6475 45.7307L78.8428 42.9246L62.6042 47.5809L63.4088 50.3871Z" fill="#7700FF"/>
<path d="M63.4413 50.5961L79.7588 46.2239L79.0032 43.4041L62.6858 47.7764L63.4413 50.5961Z" fill="#7B00FF"/>
<path d="M63.4691 50.8053L79.8604 46.7185L79.1541 43.886L62.7629 47.9728L63.4691 50.8053Z" fill="#8000FF"/>
<path d="M63.495 51.0157L79.9551 47.2156L79.2984 44.3712L62.8383 48.1713L63.495 51.0157Z" fill="#8400FF"/>
<path d="M63.5161 51.2269L80.04 47.7146L79.4331 44.8592L62.9092 48.3714L63.5161 51.2269Z" fill="#8800FF"/>
<path d="M63.5335 51.4375L80.1162 48.2141L79.5592 45.3485L62.9765 48.5719L63.5335 51.4375Z" fill="#8C00FF"/>
<path d="M63.5472 51.649L80.1836 48.7156L79.6767 45.8407L63.0403 48.7741L63.5472 51.649Z" fill="#9100FF"/>
<path d="M63.5591 51.8607L80.2441 49.218L79.7875 46.3347L63.1024 48.9774L63.5591 51.8607Z" fill="#9500FF"/>
<path d="M63.5643 52.0725L80.293 49.7214L79.8867 46.8306L63.158 49.1817L63.5643 52.0725Z" fill="#9900FF"/>
<path d="M63.5678 52.2831L80.335 50.2244L79.9792 47.3269L63.2121 49.3856L63.5678 52.2831Z" fill="#9D00FF"/>
<path d="M63.5657 52.4951L80.3662 50.7292L80.0611 47.826L63.2606 49.5918L63.5657 52.4951Z" fill="#A100FF"/>
<path d="M63.5628 52.7069L80.3916 51.2346L80.1372 48.3265L63.3084 49.7988L63.5628 52.7069Z" fill="#A600FF"/>
<path d="M63.5543 52.9184L80.4062 51.74L80.2026 48.8279L63.3507 50.0063L63.5543 52.9184Z" fill="#AA00FF"/>
<path d="M63.5412 53.13L80.4111 52.2458L80.2584 49.3306L63.3884 50.2147L63.5412 53.13Z" fill="#AE00FF"/>
<path d="M63.5264 53.3408L80.4092 52.7512L80.3073 49.8338L63.4245 50.4233L63.5264 53.3408Z" fill="#B200FF"/>
<path d="M63.507 53.5514L80.3975 53.2566L80.3465 50.3378L63.456 50.6326L63.507 53.5514Z" fill="#B700FF"/>
<path d="M63.4858 53.762H80.3789V50.8427H63.4858V53.762Z" fill="#BB00FF"/>
<path d="M63.4591 53.972L80.3496 54.2668L80.4006 51.3481L63.5101 51.0532L63.4591 53.972Z" fill="#BF00FF"/>
<path d="M63.4287 54.1817L80.3115 54.7712L80.4134 51.8538L63.5306 51.2642L63.4287 54.1817Z" fill="#C300FF"/>
<path d="M63.3947 54.3905L80.2646 55.2747L80.4174 52.3594L63.5475 51.4753L63.3947 54.3905Z" fill="#C800FF"/>
<path d="M63.3571 54.5987L80.209 55.7771L80.4126 52.865L63.5607 51.6866L63.3571 54.5987Z" fill="#CC00FF"/>
<path d="M63.3158 54.8062L80.1445 56.2786L80.399 53.3704L63.5702 51.8981L63.3158 54.8062Z" fill="#D000FF"/>
<path d="M63.2708 55.0132L80.0713 56.7791L80.3764 53.8758L63.5759 52.11L63.2708 55.0132Z" fill="#D400FF"/>
<path d="M63.2221 55.2198L79.9893 57.2786L80.345 54.3811L63.5779 52.3224L63.2221 55.2198Z" fill="#D900FF"/>
<path d="M63.1708 55.4246L79.8994 57.7756L80.3057 54.8848L63.577 52.5338L63.1708 55.4246Z" fill="#DD00FF"/>
<path d="M63.1147 55.6291L79.7998 58.2717L80.2565 55.3884L63.5714 52.7458L63.1147 55.6291Z" fill="#E100FF"/>
<path d="M63.056 55.8324L79.6924 58.7659L80.1993 55.891L63.5629 52.9575L63.056 55.8324Z" fill="#E500FF"/>
<path d="M62.9935 56.0347L79.5762 59.2581L80.1332 56.3925L63.5505 53.1691L62.9935 56.0347Z" fill="#EA00FF"/>
<path d="M62.9273 56.2355L79.4512 59.7478L80.0581 56.8924L63.5342 53.3801L62.9273 56.2355Z" fill="#EE00FF"/>
<path d="M62.8573 56.4355L79.3174 60.2356L79.9741 57.3912L63.514 53.5911L62.8573 56.4355Z" fill="#F200FF"/>
<path d="M62.7835 56.6337L79.1748 60.7205L79.881 57.8879L63.4898 53.8011L62.7835 56.6337Z" fill="#F600FF"/>
<path d="M62.707 56.8311L79.0244 61.2034L79.78 58.3836L63.4625 54.0114L62.707 56.8311Z" fill="#FA00FF"/>
<path d="M62.6266 57.0275L78.8652 61.6838L79.6699 58.8777L63.4312 54.2213L62.6266 57.0275Z" fill="#FF00FF"/>
<path d="M62.5443 57.2213L78.6992 62.1604L79.5527 59.3687L63.3978 54.4297L62.5443 57.2213Z" fill="#FF00FB"/>
<path d="M62.4572 57.4153L78.5234 62.6355L79.4255 59.8591L63.3593 54.6389L62.4572 57.4153Z" fill="#FF00F7"/>
<path d="M62.3671 57.6064L78.3398 63.1062L79.2903 60.346L63.3176 54.8462L62.3671 57.6064Z" fill="#FF00F3"/>
<path d="M62.2732 57.7962L78.1475 63.574L79.1459 60.8308L63.2716 55.053L62.2732 57.7962Z" fill="#FF00EE"/>
<path d="M62.1772 57.9844L77.9482 64.0383L78.9944 61.313L63.2234 55.2591L62.1772 57.9844Z" fill="#FF00EA"/>
<path d="M62.0763 58.1708L77.7393 64.499L78.8328 61.7924L63.1698 55.4641L62.0763 58.1708Z" fill="#FF00E6"/>
<path d="M61.9733 58.3559L77.5234 64.9565L78.6641 62.2694L63.1139 55.6687L61.9733 58.3559Z" fill="#FF00E2"/>
<path d="M61.8672 58.5386L77.2998 65.4097L78.4872 62.7428L63.0546 55.8718L61.8672 58.5386Z" fill="#FF00DD"/>
<path d="M61.7571 58.7196L77.0674 65.8589L78.3011 63.2132L62.9908 56.0739L61.7571 58.7196Z" fill="#FF00D9"/>
<path d="M61.6447 58.8983L76.8281 66.3037L78.1078 63.6799L62.9244 56.2745L61.6447 58.8983Z" fill="#FF00D5"/>
<path d="M61.5273 59.0758L76.5791 66.7451L77.9044 64.1441L62.8526 56.4748L61.5273 59.0758Z" fill="#FF00D1"/>
<path d="M61.4095 59.2508L76.3252 67.1816L77.6957 64.6041L62.78 56.6733L61.4095 59.2508Z" fill="#FF00CC"/>
<path d="M61.2875 59.4238L76.0625 67.6138L77.4778 65.0606L62.7028 56.8706L61.2875 59.4238Z" fill="#FF00C8"/>
<path d="M61.1622 59.5945L75.792 68.041L77.2516 65.5129L62.6218 57.0664L61.1622 59.5945Z" fill="#FF00C4"/>
<path d="M61.0345 59.7628L75.5146 68.4634L77.0182 65.9611L62.538 57.2605L61.0345 59.7628Z" fill="#FF00C0"/>
<path d="M60.9043 59.9294L75.2305 68.8813L76.7774 66.4057L62.4513 57.4537L60.9043 59.9294Z" fill="#FF00BB"/>
<path d="M60.7698 60.0933L74.9375 69.2939L76.5274 66.8457L62.3597 57.6451L60.7698 60.0933Z" fill="#FF00B7"/>
<path d="M60.6327 60.2557L74.6377 69.7021L76.2701 67.282L62.2651 57.8355L60.6327 60.2557Z" fill="#FF00B3"/>
<path d="M60.494 60.4145L74.332 70.104L76.0064 67.7127L62.1684 58.0233L60.494 60.4145Z" fill="#FF00AF"/>
<path d="M60.3518 60.571L74.0186 70.5005L75.7344 68.1388L62.0677 58.2093L60.3518 60.571Z" fill="#FF00AB"/>
<path d="M60.2068 60.7251L73.6982 70.8916L75.4551 68.5602L61.9637 58.3937L60.2068 60.7251Z" fill="#FF00A6"/>
<path d="M60.0582 60.8765L73.3701 71.2769L75.1674 68.9765L61.8555 58.5761L60.0582 60.8765Z" fill="#FF00A2"/>
<path d="M59.9078 61.0261L73.0361 71.6572L74.8733 69.3886L61.7449 58.7574L59.9078 61.0261Z" fill="#FF009E"/>
<path d="M59.7555 61.1731L72.6963 72.0317L74.5727 69.7955L61.6319 58.9368L59.7555 61.1731Z" fill="#FF009A"/>
<path d="M59.5993 61.3171L72.3486 72.3999L74.2638 70.1967L61.5145 59.1139L59.5993 61.3171Z" fill="#FF0095"/>
<path d="M59.4431 61.4576L71.9971 72.7612L73.9504 70.5918L61.3964 59.2882L59.4431 61.4576Z" fill="#FF0091"/>
<path d="M59.2829 61.5961L71.6377 73.1172L73.6286 70.9822L61.2738 59.4612L59.2829 61.5961Z" fill="#FF008D"/>
<path d="M59.1187 61.7319L71.2705 73.4668L73.2984 71.3669L61.1465 59.632L59.1187 61.7319Z" fill="#FF0089"/>
<path d="M58.9542 61.8644L70.8994 73.8096L72.9636 71.7454L61.0184 59.8002L58.9542 61.8644Z" fill="#FF0084"/>
<path d="M58.7885 61.9937L70.5234 74.1455L72.6234 72.1176L60.8884 59.9658L58.7885 61.9937Z" fill="#FF0080"/>
<path d="M58.6196 62.1203L70.1406 74.4751L72.2756 72.4842L60.7546 60.1294L58.6196 62.1203Z" fill="#FF007C"/>
<path d="M58.4483 62.2443L69.752 74.7983L71.9214 72.845L60.6177 60.291L58.4483 62.2443Z" fill="#FF0078"/>
<path d="M58.2726 62.3649L69.3555 75.1143L71.5586 73.1991L60.4758 60.4497L58.2726 62.3649Z" fill="#FF0073"/>
<path d="M58.0964 62.4825L68.9551 75.4233L71.1913 73.5469L60.3327 60.6061L58.0964 62.4825Z" fill="#FF006F"/>
<path d="M57.9177 62.5972L68.5488 75.7256L70.8175 73.8885L60.1863 60.7601L57.9177 62.5972Z" fill="#FF006B"/>
<path d="M57.7383 62.7091L68.1387 76.021L70.4391 74.2237L60.0386 60.9118L57.7383 62.7091Z" fill="#FF0067"/>
<path d="M57.5571 62.8172L67.7236 76.3086L70.055 74.5518L59.8885 61.0604L57.5571 62.8172Z" fill="#FF0062"/>
<path d="M57.3742 62.9221L67.3037 76.5889L69.6654 74.873L59.7359 61.2062L57.3742 62.9221Z" fill="#FF005E"/>
<path d="M57.1875 63.0238L66.877 76.8618L69.2682 75.1874L59.5788 61.3494L57.1875 63.0238Z" fill="#FF005A"/>
<path d="M56.9988 63.1225L66.4453 77.1274L68.8655 75.495L59.419 61.49L56.9988 63.1225Z" fill="#FF0056"/>
<path d="M56.8121 63.2185L66.0127 77.3862L68.461 75.7963L59.2603 61.6286L56.8121 63.2185Z" fill="#FF0052"/>
<path d="M56.6193 63.3106L65.5713 77.6367L68.0469 76.0898L59.095 61.7636L56.6193 63.3106Z" fill="#FF004D"/>
<path d="M56.4293 63.3992L65.1299 77.8794L67.6321 76.3759L58.9316 61.8957L56.4293 63.3992Z" fill="#FF0049"/>
<path d="M56.2351 63.4849L64.6816 78.1147L67.2098 76.6551L58.7632 62.0253L56.2351 63.4849Z" fill="#FF0045"/>
<path d="M56.0386 63.5668L64.2285 78.3418L66.7817 76.9265L58.5918 62.1515L56.0386 63.5668Z" fill="#FF0041"/>
<path d="M55.8426 63.6449L63.7734 78.5605L66.351 77.1901L58.4201 62.2744L55.8426 63.6449Z" fill="#FF003C"/>
<path d="M55.6452 63.7201L63.3145 78.772L65.9155 77.4467L58.2462 62.3948L55.6452 63.7201Z" fill="#FF0038"/>
<path d="M55.4461 63.7917L62.8516 78.9751L65.4753 77.6954L58.0699 62.512L55.4461 63.7917Z" fill="#FF0034"/>
<path d="M55.2464 63.8601L62.3857 79.1704L65.0315 77.9367L57.8921 62.6264L55.2464 63.8601Z" fill="#FF0030"/>
<path d="M55.044 63.9253L61.915 79.3579L64.5819 78.1706L57.7109 62.738L55.044 63.9253Z" fill="#FF002B"/>
<path d="M54.8417 63.9855L61.4424 79.5356L64.1295 78.395L57.5289 62.8449L54.8417 63.9855Z" fill="#FF0027"/>
<path d="M54.6385 64.0436L60.9668 79.7065L63.6735 78.613L57.3452 62.95L54.6385 64.0436Z" fill="#FF0023"/>
<path d="M54.4314 64.0976L60.4854 79.8687L63.2107 78.8225L57.1568 63.0515L54.4314 64.0976Z" fill="#FF001F"/>
<path d="M54.2271 64.1482L60.0049 80.0225L62.7481 79.024L56.9703 63.1497L54.2271 64.1482Z" fill="#FF001A"/>
<path d="M54.0216 64.1948L59.5215 80.1675L62.2817 79.2171L56.7818 63.2444L54.0216 64.1948Z" fill="#FF0016"/>
<path d="M53.8139 64.2375L59.0342 80.3037L61.8105 79.4016L56.5903 63.3354L53.8139 64.2375Z" fill="#FF0012"/>
<path d="M53.6059 64.2777L58.5449 80.4326L61.3366 79.5791L56.3975 63.4242L53.6059 64.2777Z" fill="#FF000E"/>
<path d="M53.3974 64.3141L58.0537 80.5527L60.8599 79.7481L56.2035 63.5094L53.3974 64.3141Z" fill="#FF0009"/>
<path d="M53.1883 64.3461L57.5605 80.6636L60.3803 79.908L56.0081 63.5906L53.1883 64.3461Z" fill="#FF0005"/>
<path d="M52.9786 64.3749L57.0654 80.7661L59.8979 80.0599L55.8111 63.6686L52.9786 64.3749Z" fill="#FF0001"/>
<path d="M52.7692 64.3993L56.5693 80.8594L59.4137 80.2027L55.6136 63.7426L52.7692 64.3993Z" fill="#FF0300"/>
<path d="M52.5571 64.4219L56.0693 80.9458L58.9248 80.3389L55.4125 63.815L52.5571 64.4219Z" fill="#FF0700"/>
<path d="M52.347 64.4388L55.5703 81.0215L58.4359 80.4645L55.2126 63.8818L52.347 64.4388Z" fill="#FF0C00"/>
<path d="M52.1349 64.4529L55.0684 81.0894L57.9432 80.5824L55.0098 63.946L52.1349 64.4529Z" fill="#FF1000"/>
<path d="M51.9247 64.4629L54.5674 81.1479L57.4507 80.6913L54.808 64.0062L51.9247 64.4629Z" fill="#FF1400"/>
<path d="M51.7124 64.4701L54.0635 81.1987L56.9543 80.7925L54.6032 64.0638L51.7124 64.4701Z" fill="#FF1800"/>
<path d="M51.5008 64.4731L53.5596 81.2402L56.457 80.8845L54.3983 64.1173L51.5008 64.4731Z" fill="#FF1D00"/>
<path d="M51.2899 64.4715L53.0557 81.272L55.9589 80.9668L54.1931 64.1663L51.2899 64.4715Z" fill="#FF2100"/>
<path d="M51.0785 64.4676L52.5508 81.2964L55.4589 81.042L53.9866 64.2132L51.0785 64.4676Z" fill="#FF2500"/>
<path d="M50.8655 64.4591L52.0439 81.311L54.9561 81.1074L53.7777 64.2555L50.8655 64.4591Z" fill="#FF2900"/>
<path d="M50.6549 64.447L51.5391 81.3169L54.4543 81.1641L53.5702 64.2942L50.6549 64.447Z" fill="#FF2E00"/>
<path d="M50.4427 64.4322L51.0322 81.3149L53.9497 81.2131L53.3601 64.3303L50.4427 64.4322Z" fill="#FF3200"/>
<path d="M50.2325 64.4127L50.5273 81.3032L53.4461 81.2523L53.1513 64.3618L50.2325 64.4127Z" fill="#FF3600"/>
<path d="M50.0234 64.3901V81.2832H52.9427V64.3901H50.0234Z" fill="#FF3A00"/>
<path d="M49.8144 64.3634L49.5195 81.2539L52.4383 81.3049L52.7331 64.4144L49.8144 64.3634Z" fill="#FF3F00"/>
<path d="M49.6023 64.3335L49.0127 81.2163L51.9301 81.3182L52.5197 64.4354L49.6023 64.3335Z" fill="#FF4300"/>
<path d="M49.3939 64.299L48.5098 81.1689L51.425 81.3217L52.3091 64.4518L49.3939 64.299Z" fill="#FF4700"/>
<path d="M49.1862 64.2614L48.0078 81.1133L50.9199 81.3169L52.0983 64.465L49.1862 64.2614Z" fill="#FF4B00"/>
<path d="M48.9772 64.2201L47.5049 81.0488L50.413 81.3033L51.8853 64.4745L48.9772 64.2201Z" fill="#FF5000"/>
<path d="M48.7717 64.1756L47.0059 80.9761L49.9091 81.2812L51.6749 64.4807L48.7717 64.1756Z" fill="#FF5400"/>
<path d="M48.5636 64.1274L46.5049 80.8945L49.4023 81.2503L51.4611 64.4832L48.5636 64.1274Z" fill="#FF5800"/>
<path d="M48.3598 64.0755L46.0088 80.8042L48.8996 81.2105L51.2507 64.4818L48.3598 64.0755Z" fill="#FF5C00"/>
<path d="M48.1554 64.0195L45.5127 80.7046L48.396 81.1613L51.0386 64.4762L48.1554 64.0195Z" fill="#FF6000"/>
<path d="M47.952 63.9603L45.0186 80.5967L47.8934 81.1036L50.8269 64.4672L47.952 63.9603Z" fill="#FF6500"/>
<path d="M47.7507 63.8978L44.5273 80.4805L47.3929 81.0375L50.6163 64.4548L47.7507 63.8978Z" fill="#FF6900"/>
<path d="M47.5503 63.8325L44.0381 80.3564L46.8935 80.9634L50.4058 64.4395L47.5503 63.8325Z" fill="#FF6D00"/>
<path d="M47.3489 63.7616L43.5488 80.2217L46.3932 80.8784L50.1933 64.4183L47.3489 63.7616Z" fill="#FF7100"/>
<path d="M47.1503 63.6893L43.0635 80.0806L45.896 80.7868L49.9828 64.3955L47.1503 63.6893Z" fill="#FF7600"/>
<path d="M46.9533 63.6127L42.5811 79.9302L45.4008 80.6857L49.7731 64.3683L46.9533 63.6127Z" fill="#FF7A00"/>
<path d="M46.7579 63.5323L42.1016 79.771L44.9077 80.5756L49.5641 64.337L46.7579 63.5323Z" fill="#FF7E00"/>
<path d="M46.5631 63.4491L41.624 79.604L44.4157 80.4575L49.3547 64.3026L46.5631 63.4491Z" fill="#FF8200"/>
<path d="M46.3697 63.3625L41.1494 79.4287L43.9258 80.3308L49.146 64.2645L46.3697 63.3625Z" fill="#FF8700"/>
<path d="M46.1766 63.2724L40.6768 79.2451L43.4369 80.1955L48.9368 64.2228L46.1766 63.2724Z" fill="#FF8B00"/>
<path d="M45.9868 63.1785L40.209 79.0527L42.9522 80.0512L48.7299 64.1769L45.9868 63.1785Z" fill="#FF8F00"/>
<path d="M45.8 63.082L39.7461 78.853L42.4714 79.8992L48.5254 64.1282L45.8 63.082Z" fill="#FF9300"/>
<path d="M45.6134 62.9816L39.2852 78.6445L41.9918 79.7381L48.3201 64.0751L45.6134 62.9816Z" fill="#FF9800"/>
<path d="M45.4278 62.8786L38.8271 78.4287L41.5143 79.5693L48.115 64.0192L45.4278 62.8786Z" fill="#FF9C00"/>
<path d="M45.246 62.772L38.375 78.2046L41.0418 79.3919L47.9129 63.9594L45.246 62.772Z" fill="#FFA000"/>
<path d="M45.0641 62.6623L37.9248 77.9727L40.5705 79.2064L47.7098 63.8961L45.0641 62.6623Z" fill="#FFA400"/>
<path d="M44.8869 62.5495L37.4814 77.7329L40.1052 79.0126L47.5107 63.8292L44.8869 62.5495Z" fill="#FFA900"/>
<path d="M44.7074 62.4335L37.0381 77.4854L39.6391 78.8107L47.3084 63.7588L44.7074 62.4335Z" fill="#FFAD00"/>
<path d="M44.5334 62.3153L36.6025 77.231L39.1801 78.6015L47.1109 63.6858L44.5334 62.3153Z" fill="#FFB100"/>
<path d="M44.3608 62.1923L36.1709 76.9673L38.7241 78.3826L46.914 63.6075L44.3608 62.1923Z" fill="#FFB500"/>
<path d="M44.1897 62.0679L35.7432 76.6978L38.2713 78.1574L46.7178 63.5276L44.1897 62.0679Z" fill="#FFB900"/>
<path d="M44.0219 61.9393L35.3213 76.4194L37.8236 77.9229L46.5241 63.4428L44.0219 61.9393Z" fill="#FFBE00"/>
<path d="M43.8553 61.8086L34.9033 76.1348L37.379 77.6817L46.3309 63.3556L43.8553 61.8086Z" fill="#FFC200"/>
<path d="M43.6889 61.6751L34.4883 75.8428L36.9366 77.4327L46.1372 63.265L43.6889 61.6751Z" fill="#FFC600"/>
<path d="M43.5295 61.538L34.083 75.543L36.5032 77.1754L45.9496 63.1704L43.5295 61.538Z" fill="#FFCA00"/>
<path d="M43.3691 61.3983L33.6797 75.2363L36.071 76.9107L45.7604 63.0727L43.3691 61.3983Z" fill="#FFCF00"/>
<path d="M43.2146 61.2566L33.2852 74.9233L35.6469 76.6392L45.5764 62.9724L43.2146 61.2566Z" fill="#FFD300"/>
<path d="M43.0591 61.1121L32.8926 74.6035L35.224 76.3604L45.3905 62.869L43.0591 61.1121Z" fill="#FFD700"/>
<path d="M42.9072 60.964L32.5068 74.2759L34.8072 76.0731L45.2076 62.7612L42.9072 60.964Z" fill="#FFDB00"/>
<path d="M42.7581 60.8135L32.127 73.9419L34.3956 75.779L45.0268 62.6506L42.7581 60.8135Z" fill="#FFE000"/>
<path d="M42.6116 60.6612L31.7529 73.6021L33.9892 75.4785L44.8478 62.5377L42.6116 60.6612Z" fill="#FFE400"/>
<path d="M42.4676 60.505L31.3848 73.2544L33.5879 75.1696L44.6708 62.4202L42.4676 60.505Z" fill="#FFE800"/>
<path d="M42.3261 60.3479L31.0225 72.9019L33.1919 74.8552L44.4955 62.3012L42.3261 60.3479Z" fill="#FFEC00"/>
<path d="M42.188 60.1872L30.667 72.542L32.802 74.5329L44.323 62.1781L42.188 60.1872Z" fill="#FFF100"/>
<path d="M42.0533 60.0249L30.3184 72.1768L32.4183 74.2046L44.1532 62.0528L42.0533 60.0249Z" fill="#FFF500"/>
<path d="M41.9208 59.86L29.9756 71.8052L32.0398 73.8694L43.985 61.9242L41.9208 59.86Z" fill="#FFF900"/>
<path d="M41.7915 59.6923L29.6396 71.4272L31.6675 73.5272L43.8194 61.7923L41.7915 59.6923Z" fill="#FFFD00"/>
<path d="M41.6644 59.5229L29.3096 71.0439L31.3005 73.1789L43.6553 61.6579L41.6644 59.5229Z" fill="#FCFF00"/>
<path d="M41.5413 59.3506L28.9873 70.6543L30.9406 72.8237L43.4946 61.52L41.5413 59.3506Z" fill="#F8FF00"/>
<path d="M41.4183 59.1769L28.6689 70.2598L30.5841 72.4629L43.3335 61.3801L41.4183 59.1769Z" fill="#F4FF00"/>
<path d="M41.3012 59.0017L28.3604 69.8604L30.2368 72.0966L43.1776 61.238L41.3012 59.0017Z" fill="#F0FF00"/>
<path d="M41.186 58.8234L28.0576 69.4546L29.8947 71.7233L43.0231 61.0921L41.186 58.8234Z" fill="#ECFF00"/>
<path d="M41.0746 58.6435L27.7627 69.0439L29.56 71.3443L42.8719 60.9439L41.0746 58.6435Z" fill="#E7FF00"/>
<path d="M40.967 58.4619L27.4756 68.6284L29.2324 70.9598L42.7238 60.7933L40.967 58.4619Z" fill="#E3FF00"/>
<path d="M40.8621 58.2785L27.1953 68.208L28.9112 70.5697L42.578 60.6402L40.8621 58.2785Z" fill="#DFFF00"/>
<path d="M40.7608 58.0923L26.9229 67.7817L28.5973 70.173L42.4352 60.4836L40.7608 58.0923Z" fill="#DBFF00"/>
<path d="M40.6622 57.9051L26.6572 67.3516L28.2896 69.7717L42.2946 60.3252L40.6622 57.9051Z" fill="#D6FF00"/>
<path d="M40.5661 57.7164L26.3984 66.917L27.9884 69.3653L42.1561 60.1646L40.5661 57.7164Z" fill="#D2FF00"/>
<path d="M40.4736 57.5261L26.1475 66.478L27.6944 68.9537L42.0205 60.0017L40.4736 57.5261Z" fill="#CEFF00"/>
<path d="M40.3845 57.3341L25.9043 66.0347L27.4078 68.5369L41.888 59.8364L40.3845 57.3341Z" fill="#CAFF00"/>
<path d="M40.2997 57.1394L25.6699 65.5859L27.1295 68.1141L41.7594 59.6675L40.2997 57.1394Z" fill="#C5FF00"/>
<path d="M40.2184 56.9448L25.4434 65.1348L26.8586 67.688L41.6336 59.4981L40.2184 56.9448Z" fill="#C1FF00"/>
<path d="M40.1393 56.7479L25.2236 64.6787L26.5941 67.2562L41.5098 59.3254L40.1393 56.7479Z" fill="#BDFF00"/>
<path d="M40.0635 56.5509L25.0117 64.2202L26.337 66.8213L41.3888 59.152L40.0635 56.5509Z" fill="#B9FF00"/>
<path d="M39.993 56.3517L24.8096 63.7571L26.0893 66.3809L41.2727 58.9754L39.993 56.3517Z" fill="#B4FF00"/>
<path d="M39.9246 56.151L24.6143 63.2903L25.848 65.936L41.1583 58.7967L39.9246 56.151Z" fill="#B0FF00"/>
<path d="M39.8603 55.9495L24.4277 62.8206L25.6151 65.4874L41.0477 58.6164L39.8603 55.9495Z" fill="#ACFF00"/>
<path d="M39.7992 55.7463L24.249 62.3469L25.3897 65.0341L40.9398 58.4334L39.7992 55.7463Z" fill="#A8FF00"/>
<path d="M39.7411 55.5426L24.0781 61.8708L25.1717 64.5775L40.8347 58.2493L39.7411 55.5426Z" fill="#A3FF00"/>
<path d="M39.6861 55.3384L23.915 61.3923L24.9612 64.1177L40.7322 58.0637L39.6861 55.3384Z" fill="#9FFF00"/>
<path d="M39.636 55.1326L23.7617 60.9104L24.7602 63.6536L40.6344 57.8758L39.636 55.1326Z" fill="#9BFF00"/>
<path d="M39.5899 54.9262L23.6172 60.426L24.5676 63.1862L40.5403 57.6864L39.5899 54.9262Z" fill="#97FF00"/>
<path d="M39.5467 54.7195L23.4805 59.9397L24.3826 62.716L40.4488 57.4958L39.5467 54.7195Z" fill="#93FF00"/>
<path d="M39.5065 54.5114L23.3516 59.4504L24.2051 62.2421L40.36 57.3031L39.5065 54.5114Z" fill="#8EFF00"/>
<path d="M39.472 54.3029L23.2334 58.9592L24.038 61.7654L40.2767 57.109L39.472 54.3029Z" fill="#8AFF00"/>
<path d="M39.4395 54.0933L23.1221 58.4656L23.8776 61.2853L40.1951 56.9131L39.4395 54.0933Z" fill="#86FF00"/>
<path d="M39.4098 53.8837L23.0186 57.9705L23.7248 60.803L40.116 56.7162L39.4098 53.8837Z" fill="#82FF00"/>
<path d="M39.3859 53.6733L22.9258 57.4734L23.5825 60.3178L40.0426 56.5177L39.3859 53.6733Z" fill="#7DFF00"/>
<path d="M39.3628 53.4631L22.8389 56.9753L23.4458 59.8308L39.9697 56.3185L39.3628 53.4631Z" fill="#79FF00"/>
<path d="M39.3464 53.2525L22.7637 56.4758L23.3207 59.3414L39.9034 56.1181L39.3464 53.2525Z" fill="#75FF00"/>
<path d="M39.3317 53.0409L22.6953 55.9744L23.2022 58.8492L39.8386 55.9158L39.3317 53.0409Z" fill="#71FF00"/>
<path d="M39.3208 52.8293L22.6357 55.4719L23.0924 58.3552L39.7775 55.7126L39.3208 52.8293Z" fill="#6CFF00"/>
<path d="M39.3136 52.6179L22.585 54.969L22.9912 57.8598L39.7199 55.5088L39.3136 52.6179Z" fill="#68FF00"/>
<path d="M39.3111 52.4063L22.5439 54.4651L22.8997 57.3626L39.6669 55.3038L39.3111 52.4063Z" fill="#64FF00"/>
<path d="M39.3122 52.1944L22.5117 53.9602L22.8169 56.8634L39.6174 55.0976L39.3122 52.1944Z" fill="#60FF00"/>
<path d="M39.318 51.983L22.4893 53.4553L22.7437 56.3634L39.5725 54.8911L39.318 51.983Z" fill="#5BFF00"/>
<path d="M39.3255 51.7716L22.4736 52.95L22.6773 55.8621L39.5292 54.6837L39.3255 51.7716Z" fill="#57FF00"/>
<path d="M39.3387 51.56L22.4688 52.4441L22.6215 55.3593L39.4914 54.4752L39.3387 51.56Z" fill="#53FF00"/>
<path d="M39.3535 51.3492L22.4707 51.9387L22.5726 54.8562L39.4553 54.2666L39.3535 51.3492Z" fill="#4FFF00"/>
<path d="M39.3729 51.138L22.4824 51.4329L22.5334 54.3516L39.4239 54.0568L39.3729 51.138Z" fill="#4AFF00"/>
<path d="M39.395 50.9275H22.502V53.8467H39.395V50.9275Z" fill="#46FF00"/>
<path d="M39.4198 50.7174L22.5293 50.4226L22.4783 53.3414L39.3688 53.6362L39.4198 50.7174Z" fill="#42FF00"/>
<path d="M39.4511 50.5078L22.5684 49.9182L22.4665 52.8357L39.3493 53.4252L39.4511 50.5078Z" fill="#3EFF00"/>
<path d="M39.4851 50.2989L22.6152 49.4148L22.4625 52.33L39.3324 53.2141L39.4851 50.2989Z" fill="#3AFF00"/>
<path d="M39.5228 50.0908L22.6709 48.9124L22.4673 51.8245L39.3192 53.0029L39.5228 50.0908Z" fill="#35FF00"/>
<path d="M39.5631 49.8827L22.7344 48.4104L22.4799 51.3185L39.3087 52.7908L39.5631 49.8827Z" fill="#31FF00"/>
<path d="M39.6081 49.6767L22.8076 47.9109L22.5025 50.8141L39.303 52.5799L39.6081 49.6767Z" fill="#2DFF00"/>
<path d="M39.6568 49.4701L22.8896 47.4114L22.5339 50.3088L39.301 52.3676L39.6568 49.4701Z" fill="#29FF00"/>
<path d="M39.7081 49.2654L22.9795 46.9143L22.5732 49.8051L39.3019 52.1562L39.7081 49.2654Z" fill="#24FF00"/>
<path d="M39.7642 49.0614L23.0791 46.4187L22.6224 49.302L39.3075 51.9446L39.7642 49.0614Z" fill="#20FF00"/>
<path d="M39.8239 48.858L23.1875 45.9246L22.6806 48.7994L39.317 51.7329L39.8239 48.858Z" fill="#1CFF00"/>
<path d="M39.8864 48.6552L23.3037 45.4319L22.7467 48.2975L39.3294 51.5208L39.8864 48.6552Z" fill="#18FF00"/>
<path d="M39.9516 48.4544L23.4277 44.9421L22.8208 47.7976L39.3447 51.3098L39.9516 48.4544Z" fill="#13FF00"/>
<path d="M40.0216 48.254L23.5615 44.4539L22.9048 47.2983L39.3649 51.0984L40.0216 48.254Z" fill="#0FFF00"/>
<path d="M40.0954 48.0558L23.7041 43.969L22.9979 46.8015L39.3891 50.8883L40.0954 48.0558Z" fill="#0BFF00"/>
<path d="M40.1719 47.8583L23.8545 43.4861L23.0989 46.3058L39.4164 50.6781L40.1719 47.8583Z" fill="#07FF00"/>
<path d="M40.2523 47.6625L24.0137 43.0061L23.209 45.8122L39.4477 50.4686L40.2523 47.6625Z" fill="#02FF00"/>
<path d="M40.3356 47.4681L24.1807 42.5291L23.3272 45.3207L39.4821 50.2598L40.3356 47.4681Z" fill="#00FF02"/>
<path d="M40.4227 47.2747L24.3564 42.0544L23.4544 44.8308L39.5206 50.051L40.4227 47.2747Z" fill="#00FF06"/>
<path d="M40.5127 47.0836L24.54 41.5837L23.5896 44.3439L39.5623 49.8438L40.5127 47.0836Z" fill="#00FF0A"/>
<path d="M40.6077 46.8942L24.7334 41.1165L23.735 43.8596L39.6092 49.6374L40.6077 46.8942Z" fill="#00FF0F"/>
<path d="M40.7017 46.7051L24.9307 40.6511L23.8845 43.3765L39.6555 49.4304L40.7017 46.7051Z" fill="#00FF13"/>
<path d="M40.8026 46.5184L25.1396 40.1902L24.0461 42.8968L39.7091 49.2251L40.8026 46.5184Z" fill="#00FF17"/>
<path d="M40.9056 46.3338L25.3555 39.7332L24.2148 42.4203L39.765 49.021L40.9056 46.3338Z" fill="#00FF1B"/>
<path d="M41.0136 46.1506L25.5811 39.2795L24.3937 41.9464L39.8263 48.8174L41.0136 46.1506Z" fill="#00FF1F"/>
<path d="M41.1218 45.9701L25.8115 38.8308L24.5778 41.4765L39.8881 48.6158L41.1218 45.9701Z" fill="#00FF24"/>
<path d="M41.2351 45.7904L26.0518 38.385L24.7721 41.0088L39.9554 48.4142L41.2351 45.7904Z" fill="#00FF28"/>
<path d="M41.3516 45.6139L26.2998 37.9446L24.9745 40.5456L40.0263 48.2149L41.3516 45.6139Z" fill="#00FF2C"/>
<path d="M41.4694 45.4389L26.5537 37.5081L25.1832 40.0856L40.0989 48.0164L41.4694 45.4389Z" fill="#00FF30"/>
<path d="M41.5914 45.2658L26.8164 37.0759L25.4011 39.6291L40.1761 47.8191L41.5914 45.2658Z" fill="#00FF35"/>
<path d="M41.7167 45.0952L27.0869 36.6487L25.6273 39.1768L40.2571 47.6233L41.7167 45.0952Z" fill="#00FF39"/>
<path d="M41.8444 44.9264L27.3643 36.2258L25.8607 38.7281L40.3409 47.4287L41.8444 44.9264Z" fill="#00FF3D"/>
<path d="M41.9755 44.7598L27.6494 35.8079L26.1025 38.2835L40.4286 47.2355L41.9755 44.7598Z" fill="#00FF41"/>
<path d="M42.1091 44.5959L27.9414 35.3953L26.3515 37.8435L40.5192 47.0442L42.1091 44.5959Z" fill="#00FF46"/>
<path d="M42.2472 44.4345L28.2422 34.988L26.6098 37.4082L40.6148 46.8547L42.2472 44.4345Z" fill="#00FF4A"/>
<path d="M42.3858 44.2752L28.5479 34.5857L26.8735 36.977L40.7114 46.6664L42.3858 44.2752Z" fill="#00FF4E"/>
<path d="M42.5271 44.1177L28.8604 34.1882L27.1445 36.5499L40.8112 46.4794L42.5271 44.1177Z" fill="#00FF52"/>
<path d="M42.673 43.9641L29.1816 33.7976L27.4248 36.129L40.9162 46.2955L42.673 43.9641Z" fill="#00FF57"/>
<path d="M42.8207 43.8123L29.5088 33.4119L27.7115 35.7122L41.0234 46.1127L42.8207 43.8123Z" fill="#00FF5B"/>
<path d="M42.9721 43.6636L29.8438 33.0325L28.0066 35.3011L41.135 45.9323L42.9721 43.6636Z" fill="#00FF5F"/>
<path d="M43.1225 43.5166L30.1816 32.658L28.3052 34.8942L41.246 45.7529L43.1225 43.5166Z" fill="#00FF63"/>
<path d="M43.2796 43.3731L30.5303 32.2903L28.6151 34.4935L41.3644 45.5763L43.2796 43.3731Z" fill="#00FF68"/>
<path d="M43.4358 43.2326L30.8818 31.929L28.9285 34.0984L41.4825 45.402L43.4358 43.2326Z" fill="#00FF6C"/>
<path d="M43.596 43.094L31.2412 31.573L29.2503 33.708L41.6051 45.229L43.596 43.094Z" fill="#00FF70"/>
<path d="M43.7602 42.9583L31.6084 31.2234L29.5805 33.3233L41.7324 45.0582L43.7602 42.9583Z" fill="#00FF74"/>
<path d="M43.9247 42.8253L31.9795 30.8801L29.9153 32.9443L41.8605 44.8895L43.9247 42.8253Z" fill="#00FF78"/>
<path d="M44.0923 42.6956L32.3574 30.5437L30.2575 32.5716L41.9924 44.7234L44.0923 42.6956Z" fill="#00FF7D"/>
<path d="M44.2613 42.5694L32.7402 30.2146L30.6052 32.2055L42.1263 44.5603L44.2613 42.5694Z" fill="#00FF81"/>
<path d="M44.4335 42.4453L33.1299 29.8914L30.9605 31.8447L42.2641 44.3987L44.4335 42.4453Z" fill="#00FF85"/>
<path d="M44.6073 42.3248L33.5244 29.5754L31.3212 31.4906L42.4041 44.24L44.6073 42.3248Z" fill="#00FF89"/>
<path d="M44.7825 42.2072L33.9238 29.2664L31.6876 31.1428L42.5462 44.0836L44.7825 42.2072Z" fill="#00FF8E"/>
<path d="M44.9612 42.092L34.3301 28.9636L32.0614 30.8008L42.6926 43.9291L44.9612 42.092Z" fill="#00FF92"/>
<path d="M45.1397 41.9811L34.7393 28.6692L32.4389 30.4664L42.8393 43.7784L45.1397 41.9811Z" fill="#00FF96"/>
<path d="M45.3218 41.872L35.1553 28.3806L32.8239 30.1374L42.9904 43.6288L45.3218 41.872Z" fill="#00FF9A"/>
<path d="M45.5066 41.7671L35.5771 28.1003L33.2154 29.8162L43.1449 43.483L45.5066 41.7671Z" fill="#00FF9F"/>
<path d="M45.6914 41.6649L36.002 27.8269L33.6107 29.5013L43.3001 43.3393L45.6914 41.6649Z" fill="#00FFA3"/>
<path d="M45.8791 41.5663L36.4326 27.5613L34.0125 29.1937L43.4589 43.1987L45.8791 41.5663Z" fill="#00FFA7"/>
<path d="M46.0678 41.4707L36.8672 27.303L34.4189 28.8929L43.6195 43.0606L46.0678 41.4707Z" fill="#00FFAB"/>
<path d="M46.2586 41.3791L37.3066 27.053L34.831 28.5999L43.783 42.9261L46.2586 41.3791Z" fill="#00FFB0"/>
<path d="M46.4496 41.2905L37.749 26.8103L35.2468 28.3138L43.9473 42.794L46.4496 41.2905Z" fill="#00FFB4"/>
<path d="M46.6448 41.2048L38.1982 26.575L35.6701 28.0346L44.1166 42.6644L46.6448 41.2048Z" fill="#00FFB8"/>
<path d="M46.8393 41.1224L38.6494 26.3474L36.0962 27.7627L44.2861 42.5377L46.8393 41.1224Z" fill="#00FFBC"/>
<path d="M47.0353 41.0439L39.1045 26.1282L36.527 27.4987L44.4578 42.4144L47.0353 41.0439Z" fill="#00FFC1"/>
<path d="M47.2337 40.9691L39.5645 25.9172L36.9634 27.2425L44.6327 42.2944L47.2337 40.9691Z" fill="#00FFC5"/>
<path d="M47.4328 40.8975L40.0273 25.7141L37.4036 26.9938L44.809 42.1772L47.4328 40.8975Z" fill="#00FFC9"/>
<path d="M47.6335 40.8296L40.4941 25.5193L37.8484 26.753L44.9877 42.0633L47.6335 40.8296Z" fill="#00FFCD"/>
<path d="M47.8349 40.7649L40.9639 25.3323L38.297 26.5196L45.168 41.9522L47.8349 40.7649Z" fill="#00FFD1"/>
<path d="M48.0381 40.7032L41.4375 25.1531L38.7503 26.2937L45.351 41.8439L48.0381 40.7032Z" fill="#00FFD6"/>
<path d="M48.2423 40.6456L41.9141 24.9827L39.2074 26.0762L45.5357 41.7392L48.2423 40.6456Z" fill="#00FFDA"/>
<path d="M48.4465 40.5916L42.3926 24.8206L39.6672 25.8667L45.7212 41.6377L48.4465 40.5916Z" fill="#00FFDE"/>
<path d="M48.6518 40.5415L42.874 24.6672L40.1308 25.6657L45.9086 41.54L48.6518 40.5415Z" fill="#00FFE2"/>
<path d="M48.8563 40.4949L43.3564 24.5222L40.5963 25.4726L46.0961 41.4453L48.8563 40.4949Z" fill="#00FFE7"/>
<path d="M49.0659 40.4513L43.8457 24.385L41.0694 25.2871L46.2896 41.3534L49.0659 40.4513Z" fill="#00FFEB"/>
<path d="M49.273 40.4115L44.334 24.2566L41.5423 25.1101L46.4814 41.265L49.273 40.4115Z" fill="#00FFEF"/>
<path d="M49.4816 40.3756L44.8252 24.137L42.0191 24.9416L46.6754 41.1803L49.4816 40.3756Z" fill="#00FFF3"/>
<path d="M49.6916 40.3431L45.3193 24.0256L42.4996 24.7812L46.8718 41.0986L49.6916 40.3431Z" fill="#00FFF8"/>
<path d="M49.9022 40.3148L45.8154 23.9236L42.9829 24.6298L47.0697 41.0211L49.9022 40.3148Z" fill="#00FFFC"/>
<path d="M50.1097 40.2894L46.3096 23.8293L43.4652 24.486L47.2653 40.9461L50.1097 40.2894Z" fill="#00FEFF"/>
<path d="M50.3209 40.2683L46.8086 23.7444L43.9532 24.3513L47.4654 40.8752L50.3209 40.2683Z" fill="#00FAFF"/>
<path d="M50.5319 40.2504L47.3086 23.6677L44.443 24.2247L47.6663 40.8074L50.5319 40.2504Z" fill="#00F5FF"/>
<path d="M50.744 40.2363L47.8105 23.5999L44.9357 24.1068L47.8691 40.7432L50.744 40.2363Z" fill="#00F1FF"/>
<path d="M50.9561 40.2263L48.3135 23.5413L45.4302 23.9979L48.0728 40.683L50.9561 40.2263Z" fill="#00EDFF"/>
<path d="M51.1665 40.2196L48.8154 23.491L45.9246 23.8972L48.2757 40.6259L51.1665 40.2196Z" fill="#00E9FF"/>
<path d="M51.3791 40.2171L49.3203 23.45L46.4228 23.8057L48.4816 40.5729L51.3791 40.2171Z" fill="#00E4FF"/>
<path d="M51.589 40.2178L49.8232 23.4172L46.92 23.7224L48.6858 40.5229L51.589 40.2178Z" fill="#00E0FF"/>
<path d="M51.8014 40.2226L50.3291 23.3938L47.421 23.6482L48.8933 40.477L51.8014 40.2226Z" fill="#00DCFF"/>
<path d="M52.0134 40.2301L50.835 23.3782L47.9228 23.5818L49.1012 40.4337L52.0134 40.2301Z" fill="#00D8FF"/>
<path d="M52.224 40.2417L51.3398 23.3718L48.4246 23.5246L49.3087 40.3945L52.224 40.2417Z" fill="#00D4FF"/>
<path d="M52.4353 40.2575L51.8457 23.3748L48.9283 23.4766L49.5178 40.3594L52.4353 40.2575Z" fill="#00CFFF"/>
<path d="M52.6454 40.277L52.3506 23.3865L49.4318 23.4374L49.7266 40.3279L52.6454 40.277Z" fill="#00CBFF"/>
<path d="M52.8584 40.2996V23.4065H49.9392V40.2996H52.8584Z" fill="#00C7FF"/>
<path d="M53.0665 40.3263L53.3613 23.4358L50.4425 23.3848L50.1477 40.2753L53.0665 40.3263Z" fill="#00C3FF"/>
<path d="M53.2767 40.3567L53.8662 23.4739L50.9488 23.372L50.3592 40.2548L53.2767 40.3567Z" fill="#00BEFF"/>
<path d="M53.486 40.3907L54.3701 23.5208L51.4549 23.368L50.5708 40.2379L53.486 40.3907Z" fill="#00BAFF"/>
<path d="M53.6937 40.4278L54.8721 23.5759L51.96 23.3723L50.7816 40.2242L53.6937 40.4278Z" fill="#00B6FF"/>
<path d="M53.9027 40.4692L55.375 23.6404L52.4669 23.386L50.9946 40.2147L53.9027 40.4692Z" fill="#00B2FF"/>
<path d="M54.1092 40.5141L55.875 23.7136L52.9718 23.4085L51.206 40.209L54.1092 40.5141Z" fill="#00ADFF"/>
<path d="M54.3143 40.5623L56.373 23.7952L53.4756 23.4394L51.4168 40.2065L54.3143 40.5623Z" fill="#00A9FF"/>
<path d="M54.521 40.6142L56.8721 23.8855L53.9813 23.4792L51.6302 40.2079L54.521 40.6142Z" fill="#00A5FF"/>
<path d="M54.7236 40.6697L57.3662 23.9846L54.4829 23.528L51.8403 40.213L54.7236 40.6697Z" fill="#00A1FF"/>
<path d="M54.9269 40.7289L57.8604 24.0925L54.9855 23.5856L52.052 40.222L54.9269 40.7289Z" fill="#009CFF"/>
<path d="M55.1292 40.7909L58.3525 24.2083L55.4869 23.6512L52.2636 40.2339L55.1292 40.7909Z" fill="#0098FF"/>
<path d="M55.3305 40.8576L58.8428 24.3337L55.9873 23.7268L52.4751 40.2507L55.3305 40.8576Z" fill="#0094FF"/>
<path d="M55.53 40.9266L59.3301 24.4666L56.4857 23.8099L52.6856 40.27L55.53 40.9266Z" fill="#0090FF"/>
<path d="M55.7286 41.0004L59.8154 24.6091L56.9829 23.9029L52.8961 40.2942L55.7286 41.0004Z" fill="#008BFF"/>
<path d="M55.9256 41.077L60.2979 24.7595L57.4781 24.004L53.1058 40.3214L55.9256 41.077Z" fill="#0087FF"/>
<path d="M56.121 41.1569L60.7773 24.9182L57.9712 24.1136L53.3148 40.3522L56.121 41.1569Z" fill="#0083FF"/>
<path d="M56.3178 41.2406L61.2568 25.0857L58.4652 24.2322L53.5261 40.3871L56.3178 41.2406Z" fill="#007FFF"/>
<path d="M56.5092 41.3272L61.7295 25.261L58.9531 24.3589L53.7329 40.4251L56.5092 41.3272Z" fill="#007BFF"/>
<path d="M56.7013 41.4173L62.2012 25.4446L59.441 24.4942L53.9411 40.4669L56.7013 41.4173Z" fill="#0076FF"/>
<path d="M56.8912 41.5112L62.6689 25.637L59.9258 24.6385L54.148 40.5128L56.8912 41.5112Z" fill="#0072FF"/>
<path d="M57.0779 41.6072L63.1318 25.8362L60.4065 24.79L54.3526 40.5611L57.0779 41.6072Z" fill="#006EFF"/>
<path d="M57.2665 41.7081L63.5947 26.0452L60.8881 24.9516L54.5598 40.6146L57.2665 41.7081Z" fill="#006AFF"/>
<path d="M57.4492 41.8116L64.0498 26.2615L61.3626 25.1208L54.762 40.671L57.4492 41.8116Z" fill="#0065FF"/>
<path d="M57.6339 41.9177L64.5049 26.4851L61.838 25.2978L54.967 40.7303L57.6339 41.9177Z" fill="#0061FF"/>
<path d="M57.8148 42.0273L64.9541 26.717L62.3084 25.4833L55.1691 40.7936L57.8148 42.0273Z" fill="#005DFF"/>
<path d="M57.994 42.1397L65.3994 26.9563L62.7756 25.6766L55.3702 40.86L57.994 42.1397Z" fill="#0059FF"/>
<path d="M58.1706 42.2557L65.8398 27.2039L63.2388 25.8786L55.5695 40.9304L58.1706 42.2557Z" fill="#0054FF"/>
<path d="M58.3446 42.3749L66.2754 27.4592L63.6979 26.0887L55.7671 41.0044L58.3446 42.3749Z" fill="#0050FF"/>
<path d="M58.5181 42.4969L66.708 27.7219L64.1548 26.3067L55.9649 41.0817L58.5181 42.4969Z" fill="#004CFF"/>
<path d="M58.6902 42.6222L67.1367 27.9924L64.6086 26.5328L56.1621 41.1626L58.6902 42.6222Z" fill="#0048FF"/>
<path d="M58.859 42.75L67.5596 28.2698L65.0573 26.7663L56.3567 41.2464L58.859 42.75Z" fill="#0043FF"/>
<path d="M59.0246 42.8815L67.9766 28.5554L65.5009 27.0085L56.549 41.3346L59.0246 42.8815Z" fill="#003FFF"/>
<path d="M59.1881 43.0146L68.3887 28.8469L65.9404 27.257L56.7398 41.4247L59.1881 43.0146Z" fill="#003BFF"/>
<path d="M59.3504 43.1517L68.7969 29.1467L66.3767 27.5143L56.9302 41.5193L59.3504 43.1517Z" fill="#0037FF"/>
<path d="M59.5098 43.2914L69.1992 29.4534L66.8079 27.779L57.1185 41.617L59.5098 43.2914Z" fill="#0032FF"/>
<path d="M59.6662 43.4331L69.5957 29.7664L67.234 28.0505L57.3045 41.7172L59.6662 43.4331Z" fill="#002EFF"/>
<path d="M59.8198 43.5781L69.9863 30.0867L67.6549 28.3298L57.4884 41.8212L59.8198 43.5781Z" fill="#002AFF"/>
<path d="M59.9717 43.7252L70.3721 30.4133L68.0717 28.6161L57.6713 41.928L59.9717 43.7252Z" fill="#0026FF"/>
<path d="M60.1218 43.8757L70.7529 30.7473L68.4843 28.9102L57.8531 42.0386L60.1218 43.8757Z" fill="#0022FF"/>
<path d="M52.2933 80.3147H50.635C50.5581 80.2867 50.4809 80.2797 50.4033 80.2797C49.5179 80.2378 48.639 80.1665 47.7677 80.048C46.138 79.8371 44.5355 79.4787 42.9756 78.9804C40.2985 78.1237 37.8041 76.8943 35.4923 75.2923C33.3486 73.8026 31.4521 72.0466 29.8006 70.0238C27.8535 67.6492 26.3363 65.0287 25.2607 62.1491C24.2978 59.592 23.7217 56.9442 23.5457 54.2111C23.5457 54.0636 23.5177 53.9161 23.4688 53.7685V50.8813C23.5177 50.754 23.5387 50.6212 23.5457 50.4879C23.5806 49.8344 23.6505 49.1809 23.7359 48.5351C24.1578 45.4162 25.0847 42.4581 26.5114 39.655C27.4951 37.7229 28.6898 35.9253 30.0945 34.2664C31.486 32.6229 33.046 31.1541 34.7741 29.869C37.592 27.7752 40.6909 26.265 44.0775 25.3382C45.7215 24.8892 47.4015 24.5941 49.1013 24.4531C49.4031 24.4252 49.72 24.4531 50.0218 24.3762H52.8605C53.0781 24.4392 53.3033 24.4042 53.5207 24.4252C54.6456 24.5231 55.7627 24.6644 56.8723 24.8819C60.3648 25.5704 63.6036 26.8774 66.5976 28.8082C68.9238 30.3044 70.9755 32.1097 72.767 34.2101C74.2079 35.8962 75.4299 37.7299 76.4279 39.7101C77.6084 42.0498 78.4512 44.5009 78.9301 47.0788C79.1826 48.4415 79.3728 49.8184 79.3792 51.2095C79.3792 51.3018 79.4002 51.3997 79.4072 51.4903V53.1483C79.3792 53.2532 79.3792 53.3658 79.3722 53.4782C79.3722 53.7449 79.3722 54.0127 79.3513 54.2792C79.224 55.9796 78.9578 57.6582 78.5358 59.3159C77.7279 62.4282 76.4272 65.3155 74.6214 67.9775C73.279 69.9587 71.7126 71.7432 69.9133 73.3234C68.1218 74.8971 66.1607 76.2249 64.0314 77.299C61.5785 78.535 58.9999 79.3928 56.2944 79.8627C55.2548 80.0452 54.2076 80.1644 53.1539 80.2277C52.8763 80.2599 52.5818 80.2532 52.2933 80.3147Z" fill="#383838"/>
<path d="M44.1638 40.7402C44.1442 41.2541 44.2355 41.8159 44.3869 42.3779C44.6754 43.447 45.1534 44.4267 45.7172 45.3521C47.0014 47.4565 48.6202 49.2581 50.3765 50.9309C50.5204 51.0684 50.6916 51.1845 50.8749 51.273C51.0586 51.3685 51.2419 51.3685 51.4317 51.2866C51.615 51.2047 51.7791 51.0882 51.9168 50.9369C52.5263 50.3068 53.1288 49.6757 53.7057 49.0244C54.5182 48.099 55.2919 47.147 55.9931 46.1257C56.6292 45.2005 57.1989 44.2271 57.6179 43.1717C58.0369 42.1227 58.2406 41.0407 58.1031 39.903C57.8737 38.0258 57.1073 36.4352 55.7373 35.188C54.1175 33.7156 52.2308 33.1261 50.1075 33.4545C46.654 33.9897 44.1505 37.1699 44.1638 40.7402Z" fill="url(#paint0_radial_107_367)" style="mix-blend-mode:lighten"/>
<path d="M62.0364 66.3279C61.6018 66.3411 61.1137 66.2873 60.6258 66.1837C59.1822 65.8677 57.9561 65.2113 57.0138 64.0477C56.4407 63.338 55.959 62.569 55.5437 61.7602C55.0555 60.8072 54.6476 59.8143 54.2919 58.8092C53.8572 57.5935 53.4881 56.3512 53.204 55.0955C53.0462 54.392 53.2236 53.9513 54.0016 53.709C54.9899 53.4002 55.9856 53.1241 57.0006 52.9002C58.6809 52.532 60.3746 52.2958 62.1022 52.354C62.5902 52.3736 63.0772 52.426 63.559 52.5114C64.9564 52.7549 66.1425 53.3991 67.1113 54.4176C68.7661 56.1528 69.4242 58.2233 69.0162 60.5833C68.4298 63.9557 65.4371 66.3545 62.0364 66.3279Z" fill="url(#paint1_radial_107_367)"/>
<path d="M40.2712 66.3279C40.7059 66.3411 41.1939 66.2873 41.6818 66.1837C43.1254 65.8677 44.3515 65.2113 45.2938 64.0477C45.8669 63.338 46.3486 62.569 46.7639 61.7602C47.2521 60.8072 47.66 59.8143 48.0157 58.8092C48.4504 57.5935 48.8195 56.3512 49.1036 55.0955C49.2614 54.392 49.084 53.9513 48.306 53.709C47.3177 53.4002 46.322 53.1241 45.3071 52.9002C43.6267 52.532 41.933 52.2958 40.2055 52.354C39.7174 52.3736 39.2304 52.426 38.7486 52.5114C37.3512 52.7549 36.1651 53.3991 35.1963 54.4176C33.5416 56.1528 32.8834 58.2233 33.2914 60.5833C33.8779 63.9557 36.8705 66.3545 40.2712 66.3279Z" fill="url(#paint2_radial_107_367)"/>
<defs>
<radialGradient id="paint0_radial_107_367" cx="0" cy="0" r="1" gradientUnits="userSpaceOnUse" gradientTransform="translate(51.2888 50.4144) rotate(4.82254) scale(7.42744 13.7296)">
<stop stop-color="white"/>
<stop offset="1" stop-color="#009BD8"/>
</radialGradient>
<radialGradient id="paint1_radial_107_367" cx="0" cy="0" r="1" gradientUnits="userSpaceOnUse" gradientTransform="translate(53.229 54.6657) rotate(21.7759) scale(16.379 8.75256)">
<stop stop-color="white"/>
<stop offset="1" stop-color="#FF3044"/>
</radialGradient>
<radialGradient id="paint2_radial_107_367" cx="0" cy="0" r="1" gradientUnits="userSpaceOnUse" gradientTransform="translate(48.9917 54.0723) rotate(146.321) scale(16.5522 7.52382)">
<stop stop-color="white"/>
<stop offset="1" stop-color="#FCFF7C"/>
</radialGradient>
</defs>
</svg>
