<svg width="54" height="54" viewBox="0 0 54 54" fill="none" xmlns="http://www.w3.org/2000/svg">
<rect width="53.2734" height="53.2734" rx="10" fill="url(#paint0_radial_107_245)"/>
<path d="M18.1905 11.1784L20.2567 9.13672L32.6905 21.6419C33.2463 22.201 33.5242 22.8937 33.5242 23.7201C33.5242 24.5464 33.2463 25.2391 32.6905 25.7982L25.803 32.7253C25.2471 33.2843 24.5584 33.5638 23.7367 33.5638C22.9151 33.5638 22.2263 33.2843 21.6705 32.7253L14.783 25.7982C14.2271 25.2391 13.9492 24.5464 13.9492 23.7201C13.9492 22.8937 14.2271 22.201 14.783 21.6419L21.6705 14.6784L18.1905 11.1784ZM23.7367 16.7565L16.813 23.7201H30.6605L23.7367 16.7565ZM34.7386 33.0716C34.1707 32.5004 33.8867 31.8138 33.8867 31.0117C33.8867 30.5013 34.0378 29.9544 34.3398 29.3711C34.6419 28.7878 34.9742 28.2409 35.3367 27.7305C35.5542 27.4388 35.7838 27.135 36.0255 26.819C36.2671 26.503 36.5209 26.1992 36.7867 25.9076C37.0526 26.1992 37.3063 26.503 37.548 26.819C37.7896 27.135 38.0192 27.4388 38.2367 27.7305C38.5992 28.2409 38.9315 28.7878 39.2336 29.3711C39.5357 29.9544 39.6867 30.5013 39.6867 31.0117C39.6867 31.8138 39.4028 32.5004 38.8348 33.0716C38.2669 33.6428 37.5842 33.9284 36.7867 33.9284C35.9892 33.9284 35.3065 33.6428 34.7386 33.0716ZM12.1367 44.1367V38.3034H41.1367V44.1367H12.1367Z" fill="black"/>
<defs>
<radialGradient id="paint0_radial_107_245" cx="0" cy="0" r="1" gradientUnits="userSpaceOnUse" gradientTransform="translate(26.6367 26.6367) rotate(89.5185) scale(30.1893)">
<stop stop-color="#E0FD35"/>
<stop offset="1" stop-color="#D3EE33"/>
</radialGradient>
</defs>
</svg>
