<svg width="645" height="420" viewBox="0 0 645 420" fill="none" xmlns="http://www.w3.org/2000/svg">
<path d="M161.315 16.0011C194.423 14.5677 265.162 54.0866 311.244 52.0913L317.268 191.231L96.5001 202.5L91.277 85.8208C91.3588 63.5551 105.481 18.4187 161.315 16.0011ZM457.938 3.15779C513.773 0.740217 531.744 44.487 533.75 66.6623L538.501 183L317.715 191.212L311.69 52.0729C357.772 50.0777 424.831 4.59136 457.938 3.15779Z" fill="#58CC02"/>
<path d="M323.53 190.961L538.28 181.662C548.114 191.397 573.318 214.481 595.459 228.941C623.136 247.017 650.382 275.868 635.904 314.146C620.432 337.766 577.123 378.249 557.402 395.538L320.73 405.786L320.711 405.338L96.1176 415.063C74.9763 399.543 28.3296 362.954 10.8734 340.761C-6.85979 303.877 17.7911 272.778 43.8016 252.378C64.61 236.057 87.7246 210.882 96.6809 200.334L323.51 190.513L323.53 190.961Z" fill="#58CC02"/>
<path d="M115 54.7842L502.637 38L508.232 167.22L509.792 203.252L517.518 381.678L129.881 398.462L122.741 233.573L120.205 174.999L115 54.7842Z" fill="#8AE519"/>
<path d="M353.421 265.3C355.122 267.716 357.1 269.898 359.027 272.132C373.484 288.894 393.22 298.592 415.397 299.956C438.82 301.359 460.539 295.895 478.639 280.716C498.659 263.93 507.922 241.729 509.71 215.983C509.997 211.866 509.505 207.607 509.774 203.526L509.792 203.252L517.518 381.678L129.881 398.462L122.741 233.573C123.834 235.805 124.294 241.254 124.846 243.951C130.495 271.553 149.962 295.001 176.379 305.223C197.656 313.456 225.869 312.534 246.889 303.241C260.7 297.105 270.35 288.757 279.642 276.9C281.438 274.607 283.268 271.373 284.737 269.521L284.741 269.351C286.083 269.035 314.849 273.837 318.627 274.586C319.786 271.23 321.436 268.064 323.522 265.191C327.813 259.253 334.298 255.274 341.537 254.139C345.291 253.575 351.054 254.214 354.136 256.514C354.25 259.381 353.857 262.465 353.421 265.3Z" fill="#58CE01"/>
<path d="M318.627 274.586C319.786 271.23 321.435 268.064 323.521 265.191C327.813 259.253 334.298 255.274 341.537 254.14C345.29 253.575 351.054 254.214 354.136 256.515C354.25 259.382 353.856 262.465 353.421 265.3C350.204 275.319 344.841 283.736 335.197 288.759C326.677 293.187 316.736 294.009 307.604 291.039C299.692 288.496 292.93 283.247 288.505 276.213C287.788 275.057 285.211 270.09 284.737 269.522L284.74 269.351C286.082 269.035 314.849 273.838 318.627 274.586Z" fill="#F59000"/>
<path d="M115 54.7842L502.637 38L508.232 167.22C507.823 165.408 507.773 162.059 507.572 160.081C504.664 131.118 489.996 103.39 463.764 89.2799C461.291 87.9506 458.355 86.7124 456.075 85.1338L455.798 84.9386C454.087 79.5213 448.335 53.7558 437.174 62.3015C433.982 64.7467 426.526 74.6507 423.592 78.2575C422.619 67.6272 420.119 55.0842 413.372 46.4056C412.969 45.8871 411.735 45.0073 411.112 44.7162C404.874 41.7958 401.241 48.3721 397.796 52.3184C394.836 55.8584 392.086 59.3876 389.243 62.9083L360.824 97.8313C356.425 103.272 349.392 112.803 344.812 117.328C335.226 125.907 321.129 129.25 308.563 129.21C299.76 129.181 286.315 126.424 279.254 120.88C272.473 115.556 265.064 107.276 258.837 101.045L216.581 58.7394C215.775 57.9372 214.782 57.0436 214.006 56.2357C209.323 51.3831 204.271 52.1639 201.427 58.1982C196.414 68.8315 195.353 78.4927 195.826 90.0223C192.576 87.0033 189.42 83.8846 186.363 80.6704C182.509 76.6695 175.782 68.3763 169.988 73.471C163.861 78.8591 161.734 93.125 160.943 100.61C157.642 103.732 152.825 106.558 149.155 109.866C133.3 124.153 123.071 143.773 121.208 165.094C121.036 167.065 120.982 173.729 120.205 174.999L115 54.7842Z" fill="#58CE01"/>
<path d="M274.642 267.511C274.42 264.538 274.144 259.451 274.437 256.631C275.152 249.765 279.133 242.167 283.307 236.804C290.819 227.366 303.015 221.364 315.021 220.075C335.921 217.998 357.134 233.043 361.204 253.787C361.777 256.707 361.647 260.717 362.014 263.892C359.587 260.774 357.767 258.281 354.136 256.514C351.054 254.214 345.291 253.575 341.537 254.139C334.299 255.274 327.813 259.253 323.522 265.191C321.436 268.064 319.786 271.23 318.627 274.586C314.849 273.837 286.083 269.035 284.741 269.351C282.985 268.335 277.091 267.891 274.642 267.511Z" fill="#FEC300"/>
<path d="M312.434 225.993C316.861 224.953 328.068 225.636 330.923 229.876C332.717 232.541 332.12 236.739 329.338 238.579C326.337 240.564 323.342 239.324 320.103 238.653C315.917 237.971 311.984 238.816 307.963 240.183C302.049 242.194 298.676 235.276 301.479 230.819C303.442 227.697 308.865 226.605 312.434 225.993Z" fill="#FFDF00"/>
<path d="M439.739 171.071C440.244 170.061 445.8 167.079 447.113 166.384C457.408 160.94 466.891 154.632 476.708 148.444C478.122 153.311 479.879 156.496 480.678 161.717C482.038 170.6 482.179 179.619 482.57 188.603C482.897 196.084 483.404 203.995 483.244 211.441C483.162 215.161 482.732 221.351 481.157 224.683C478.197 225.889 475.155 226.792 472.179 227.918C465.155 230.577 457.908 233.466 451.029 236.473C438.839 241.774 427.037 247.93 415.713 254.895C409.93 258.528 404.286 262.67 398.605 266.481C391.527 264.587 381.114 255.676 376.363 250.313C365.216 237.732 361.26 221.546 361.446 205.112C367.108 203.728 378.968 199.579 384.494 197.284C385.449 196.743 390.171 194.897 391.405 194.378C395.923 192.46 400.425 190.499 404.908 188.497C416.07 183.506 426.884 177.299 437.73 171.645C438.449 171.27 438.954 170.902 439.739 171.071Z" fill="#FEFEFE"/>
<path d="M384.494 197.284C385.449 196.742 390.171 194.897 391.405 194.378C395.924 192.46 400.425 190.499 404.908 188.497C416.07 183.506 426.884 177.299 437.73 171.645C438.449 171.27 438.954 170.902 439.739 171.071C440.367 178.292 440.513 186.676 440.881 193.965C441.138 199.046 441.888 209.301 440.969 214.027C440.053 218.602 438.006 222.874 435.016 226.455C418.192 246.614 387.157 235.429 385.22 210.291C384.928 206.495 385.168 200.835 384.494 197.284Z" fill="#122531"/>
<path d="M145.262 168.817C147.333 169.354 151.418 171.187 153.488 172.049C158.119 173.984 162.763 175.885 167.422 177.752C171.775 179.482 176.264 181.011 180.626 182.73C182.559 183.492 185.127 184.327 186.902 185.252C188.882 185.686 191.382 186.772 193.355 187.45C197.69 188.939 202.078 190.761 206.39 192.258C218.808 196.509 231.375 200.309 244.068 203.65C250.962 205.618 259.544 207.41 266.589 208.958C267.065 220.517 267.524 228.045 263.855 239.274C258.653 255.199 247.412 267.337 232.634 274.921C230.35 273.171 224.53 270.146 221.816 268.547C202.354 257.08 180.863 249.417 159.262 243.087C155.908 242.104 152.194 241.278 148.738 240.317C148.141 236.996 146.634 233.149 146.267 229.805C145.449 222.336 145.017 214.132 144.825 206.586C144.491 193.464 142.698 181.752 145.262 168.817Z" fill="#FEFEFE"/>
<path d="M186.903 185.252C188.882 185.686 191.382 186.772 193.355 187.45C197.691 188.939 202.078 190.761 206.391 192.258C218.808 196.509 231.375 200.309 244.068 203.65C244.658 215.851 246.581 224.92 237.863 235.336C223.301 252.736 196.07 246.205 189.475 225.09C187.904 220.06 188.072 212.322 187.838 206.791L186.903 185.252Z" fill="#122531"/>
</svg>
