<svg width="101" height="51" viewBox="0 0 101 51" fill="none" xmlns="http://www.w3.org/2000/svg">
<path d="M4.18111 50.3382C1.77633 50.3382 -0.19269 48.3851 0.0150664 45.9893C0.459067 40.8692 1.68535 35.8385 3.65863 31.0746C6.18836 24.9673 9.89624 19.418 14.5706 14.7437C19.2449 10.0694 24.7941 6.36149 30.9014 3.83176C37.0087 1.30203 43.5545 4.30351e-07 50.165 7.19306e-07C56.7755 1.00826e-06 63.3213 1.30204 69.4286 3.83177C75.5359 6.36149 81.0851 10.0694 85.7595 14.7437C90.4338 19.418 94.1417 24.9673 96.6714 31.0746C98.6447 35.8385 99.871 40.8692 100.315 45.9893C100.523 48.3851 98.5537 50.3382 96.1489 50.3382C93.7441 50.3382 91.8182 48.3834 91.5672 45.9918C91.1498 42.0164 90.1613 38.1141 88.6258 34.4072C86.5337 29.3564 83.4673 24.7672 79.6016 20.9015C75.736 17.0359 71.1467 13.9695 66.096 11.8774C61.0453 9.78528 55.6319 8.7085 50.165 8.7085C44.6981 8.7085 39.2848 9.78528 34.234 11.8774C29.1833 13.9695 24.5941 17.0359 20.7284 20.9015C16.8627 24.7672 13.7963 29.3564 11.7042 34.4072C10.1688 38.1141 9.18021 42.0164 8.76287 45.9918C8.5118 48.3834 6.5859 50.3382 4.18111 50.3382Z" fill="white"/>
<path d="M4.18111 50.3382C1.77633 50.3382 -0.19269 48.3851 0.0150664 45.9893C0.795029 36.9944 3.98358 28.3452 9.28236 20.9692C15.4306 12.4106 24.1099 5.99732 34.0966 2.63348C44.0834 -0.73037 54.874 -0.875183 64.9474 2.21945C73.629 4.8865 81.4006 9.84375 87.4637 16.5337C89.0786 18.3156 88.6926 21.0621 86.7779 22.517C84.8632 23.972 82.1471 23.5807 80.5002 21.8283C75.5635 16.5756 69.3282 12.6754 62.3901 10.544C54.0593 7.98472 45.1355 8.10448 36.8764 10.8864C28.6174 13.6683 21.4397 18.972 16.3551 26.05C12.1204 31.9448 9.51546 38.8227 8.76287 45.9918C8.5118 48.3834 6.5859 50.3382 4.18111 50.3382Z" fill="black"/>
</svg>
