<svg width="101" height="51" viewBox="0 0 101 51" fill="none" xmlns="http://www.w3.org/2000/svg">
<path d="M4.18111 50.3382C1.77633 50.3382 -0.19269 48.3851 0.0150664 45.9893C0.459067 40.8692 1.68535 35.8385 3.65863 31.0746C6.18836 24.9673 9.89624 19.418 14.5706 14.7437C19.2449 10.0694 24.7941 6.36149 30.9014 3.83176C37.0087 1.30203 43.5545 -2.88954e-07 50.165 0C56.7755 2.88954e-07 63.3213 1.30204 69.4286 3.83176C75.5359 6.36149 81.0851 10.0694 85.7595 14.7437C90.4338 19.418 94.1417 24.9673 96.6714 31.0746C98.6447 35.8385 99.871 40.8692 100.315 45.9893C100.523 48.3851 98.5537 50.3382 96.1489 50.3382C93.7441 50.3382 91.8182 48.3834 91.5672 45.9918C91.1498 42.0164 90.1613 38.1141 88.6258 34.4072C86.5337 29.3564 83.4673 24.7672 79.6016 20.9015C75.736 17.0359 71.1467 13.9695 66.096 11.8774C61.0453 9.78528 55.6319 8.7085 50.165 8.7085C44.6981 8.7085 39.2848 9.78528 34.234 11.8774C29.1833 13.9695 24.5941 17.0359 20.7284 20.9015C16.8627 24.7672 13.7963 29.3564 11.7042 34.4072C10.1688 38.1141 9.18021 42.0164 8.76287 45.9918C8.5118 48.3834 6.5859 50.3382 4.18111 50.3382Z" fill="white"/>
<path d="M4.18111 50.3382C1.77633 50.3382 -0.19269 48.3851 0.0150664 45.9893C0.631693 38.8782 2.75409 31.9781 6.24068 25.7498C7.41534 23.6515 10.1417 23.1426 12.1308 24.4941C14.1198 25.8457 14.6141 28.5449 13.4776 30.6642C10.9277 35.4192 9.3262 40.6257 8.76287 45.9918C8.5118 48.3834 6.5859 50.3382 4.18111 50.3382Z" fill="black"/>
</svg>
