<svg width="101" height="101" viewBox="0 0 101 101" fill="none" xmlns="http://www.w3.org/2000/svg">
<path d="M40.8786 81.4577C46.3116 81.4577 50.721 76.9155 50.721 71.3189V61.1802H40.8786C35.4455 61.1802 31.0361 65.7223 31.0361 71.3189C31.0361 76.9155 35.4455 81.4577 40.8786 81.4577Z" fill="#0ACF83"/>
<path d="M31.0361 51.0421C31.0361 45.4455 35.4455 40.9033 40.8786 40.9033H50.721V61.1808H40.8786C35.4455 61.1808 31.0361 56.6386 31.0361 51.0421Z" fill="#A259FF"/>
<path d="M31.0361 30.7642C31.0361 25.1676 35.4455 20.6255 40.8786 20.6255H50.721V40.903H40.8786C35.4455 40.903 31.0361 36.3608 31.0361 30.7642Z" fill="#F24E1E"/>
<path d="M50.7209 20.6255H60.5634C65.9964 20.6255 70.4058 25.1676 70.4058 30.7642C70.4058 36.3608 65.9964 40.903 60.5634 40.903H50.7209V20.6255Z" fill="#FF7262"/>
<path d="M70.4058 51.0421C70.4058 56.6386 65.9964 61.1808 60.5634 61.1808C55.1304 61.1808 50.7209 56.6386 50.7209 51.0421C50.7209 45.4455 55.1304 40.9033 60.5634 40.9033C65.9964 40.9033 70.4058 45.4455 70.4058 51.0421Z" fill="#1ABCFE"/>
</svg>
