<svg width="1600" height="596" viewBox="0 0 1600 596" fill="none" xmlns="http://www.w3.org/2000/svg">
<path opacity="0.22" d="M-48.3762 357.672V595.32H-180.403V4.64297e-05H-48.3762V210.442L13.2362 4.64297e-05H144.463L63.6463 265.653L149.263 595.32H10.8357L-48.3762 357.672ZM169.261 453.691V4.64297e-05H305.289V447.29C305.289 467.294 312.49 477.696 326.893 477.696C342.896 477.696 348.497 466.494 348.497 447.29V4.64297e-05H484.525V453.691C484.525 544.109 432.514 604.922 338.895 604.922H313.29C214.07 604.922 169.261 545.71 169.261 453.691ZM529.083 4.64297e-05H793.937V112.023L665.911 472.095H801.138V595.32H521.882V482.497L649.108 121.624H529.083V4.64297e-05ZM839.677 595.32V4.64297e-05H997.309L1030.12 278.456L1064.52 4.64297e-05H1213.35V595.32H1099.73V270.454L1049.32 595.32H1002.11L951.7 270.454V595.32H839.677ZM1390.91 4.64297e-05V595.32H1258.89V4.64297e-05H1390.91ZM1435.86 4.64297e-05H1563.88L1631.9 288.058V4.64297e-05H1744.72V595.32H1628.7L1550.28 284.857V595.32H1435.86V4.64297e-05Z" fill="url(#paint0_linear_107_157)"/>
<defs>
<linearGradient id="paint0_linear_107_157" x1="782.5" y1="-60.6804" x2="782.5" y2="659.32" gradientUnits="userSpaceOnUse">
<stop/>
<stop offset="0.861005" stop-opacity="0"/>
</linearGradient>
</defs>
</svg>
