<svg width="47" height="47" viewBox="0 0 47 47" fill="none" xmlns="http://www.w3.org/2000/svg">
<rect x="6.4082" width="40.963" height="40.963" rx="10.8002" transform="rotate(9 6.4082 0)" fill="#CDFA03"/>
<path fill-rule="evenodd" clip-rule="evenodd" d="M38.1226 12.9751C38.3075 13.0308 39.3567 13.0431 39.3091 13.3242C39.2529 13.6543 39.2663 14.9575 39.0333 15.1591C38.8711 15.2069 38.526 15.0812 38.3501 15.0281C38.2686 16.3238 37.8053 17.6616 37.6759 18.9228C37.4533 21.0916 37.2556 23.2199 36.8844 25.3745C36.6877 26.5172 36.5925 27.733 36.3675 28.8758C36.0666 30.4026 35.803 31.9092 35.6389 33.4569C35.591 33.9479 35.3409 34.9619 35.4144 35.4047C35.6219 35.6517 36.2309 35.3189 36.2061 35.8752C36.1944 36.1358 36.1135 36.398 36.0883 36.6564C36.0555 36.9936 36.0814 37.2716 35.987 37.6014L35.6729 37.7247C35.2209 37.6125 34.0158 37.602 33.7864 37.4496C33.7147 37.2773 33.8102 36.9277 33.8498 36.731C33.1931 36.534 32.4955 36.5278 31.8303 36.4032C30.1714 36.0926 28.5212 35.8491 26.8478 35.6309C25.1714 35.4122 23.5181 35.0517 21.8288 34.8953C20.9405 34.813 20.0553 34.7136 19.1641 34.6522C18.6651 34.6097 18.0694 34.4822 17.5644 34.4087L13.821 33.8593L10.2598 33.315C9.95575 33.2655 9.65522 33.2398 9.35031 33.1829C9.31758 33.4008 9.28359 33.7623 9.09135 33.9002C8.96974 33.9842 7.39104 33.681 7.10305 33.6377C7.06576 33.4142 7.14291 33.097 7.19406 32.8384C7.25004 32.5553 7.27492 31.8782 7.44609 31.6404C7.51295 31.5479 8.03063 31.6227 8.16244 31.6372C8.65629 29.8113 8.68467 27.679 9.05948 25.7925C9.36861 23.9775 9.86386 22.1704 10.0936 20.3432C10.4831 17.2454 10.8099 14.1737 11.3572 11.098C11.1598 11.0859 10.793 11.0519 10.6533 10.9103C10.5973 10.7499 10.7373 10.1792 10.7677 9.98817C10.805 9.75303 10.8394 9.1248 10.9997 8.97884C11.1197 8.94993 11.3784 8.96001 11.4921 8.9975C11.7755 9.09129 12.7996 9.07801 12.9625 9.31541C12.9717 9.46705 12.8918 9.77876 12.8584 9.94754C13.8954 10.1462 14.9825 10.4209 16.0317 10.5629C17.2396 10.7263 18.4904 10.8557 19.6933 11.0538L23.4271 11.6323C24.8469 11.8644 26.3125 12.1347 27.7364 12.2793C28.8839 12.4646 30.1021 12.5211 31.2491 12.7427C31.3636 12.7648 31.6677 12.8746 31.6079 13.0309C31.5402 13.0868 31.4358 13.1478 31.3485 13.1391C31.0275 13.1069 30.6748 13.0323 30.3561 12.9809C29.7893 12.8941 29.2206 12.8184 28.6508 12.7543C28.2643 12.7118 27.8736 12.6604 27.4872 12.6224C25.9978 12.4761 24.5355 12.1594 23.0567 11.9356L16.2717 10.9766C15.7276 10.9024 15.1842 10.8208 14.6426 10.7304C14.0642 10.6311 13.4474 10.5096 12.8634 10.4714C12.6742 10.6754 12.9651 11.4665 12.187 11.2086C12.1009 11.1802 11.9153 11.1666 11.8182 11.1591C11.3892 12.8307 11.1525 14.5855 10.9814 16.2985C10.9345 16.7682 10.8383 17.2587 10.792 17.719C10.7037 18.8575 10.5107 19.9832 10.374 21.1134C10.2609 22.0497 10.0311 22.8297 9.83667 23.7384C9.60053 24.8348 9.40057 25.9391 9.2382 27.0488C9.12375 27.8359 9.05546 28.6523 8.9727 29.443C8.91233 30.02 8.86258 31.1823 8.69716 31.7071C9.61309 31.7907 9.54628 31.8128 9.38031 32.6626C10.055 32.7818 10.7385 32.9374 11.398 33.0514C13.9733 33.495 16.5574 33.8875 19.1482 34.2285C20.6227 34.423 22.1853 34.4429 23.6365 34.6941C25.5931 35.0329 27.5157 35.2927 29.4826 35.5509C30.9644 35.7454 32.3714 36.0831 33.8865 36.1683C33.9318 35.2941 33.937 35.2117 34.8257 35.3827C34.9221 34.7331 35.1234 34.0663 35.2115 33.4584C35.3481 32.5158 35.4246 31.5889 35.6137 30.6449C35.7677 29.877 35.9683 29.0878 36.0977 28.3189C36.2664 27.3182 36.3425 26.2678 36.4832 25.2674C36.6775 23.9279 36.8994 22.5723 37.0642 21.2305C37.2557 19.595 37.339 17.977 37.7203 16.37C37.7957 16.0525 37.7934 15.2978 37.832 14.9342C36.9699 14.9628 36.9381 14.8701 37.1353 14.0586C36.4832 13.9186 35.8329 13.8309 35.1739 13.7381C34.9666 13.7088 34.7537 13.6762 34.5517 13.6217C34.4781 13.5532 34.3978 13.4539 34.3305 13.3761C34.4018 13.3337 34.5321 13.2563 34.6151 13.259C35.465 13.2866 36.3147 13.4648 37.1563 13.5824C37.2023 13.2864 37.1184 13.0357 37.3967 12.8512C37.5987 12.8776 37.8833 12.9187 38.1226 12.9751ZM14.0302 12.5872C14.3535 12.7167 14.3132 12.9594 14.2803 13.2616C14.1468 14.4892 13.8973 15.6687 13.6602 16.877C13.5378 17.5299 13.42 18.1836 13.3071 18.8381C13.1007 20.0079 12.9684 21.2492 12.822 22.4315C12.5409 24.7015 12.0836 26.9465 11.8563 29.2214C11.8167 29.6181 11.7427 29.9839 11.7158 30.3837C11.8481 30.6062 16.7713 31.2468 17.3285 31.3221C18.5485 31.4599 19.8408 31.8107 21.0508 31.9354C24.6318 32.3045 28.1508 32.9613 31.7182 33.4094C32.0758 33.4543 33.1001 33.4109 33.2009 33.7866C33.1674 33.9766 33.0986 34.0513 32.9024 34.0666C32.6783 34.0594 32.3549 33.9847 32.1274 33.9409C31.7364 33.8646 31.3438 33.7938 30.9509 33.7278L25.6455 32.8905C24.1889 32.6643 22.5829 32.5609 21.1109 32.3493C20.6426 32.282 20.1605 32.1814 19.6915 32.1027C18.622 31.9201 17.5487 31.7582 16.4729 31.6177C15.2039 31.4557 13.9262 31.3285 12.6651 31.1065C12.1909 31.023 11.4224 31.0461 11.0755 30.743C11.1229 30.1717 11.3046 29.4723 11.4114 28.9028C11.5204 28.399 11.579 27.8541 11.6961 27.355C11.8827 26.5606 11.9581 25.8034 12.0689 25.0016L12.6449 20.8402C13.0134 18.2924 13.4425 15.7541 13.7833 13.2036C13.8061 13.0328 13.8865 12.6979 14.0302 12.5872ZM32.1535 20.2293C32.1826 20.2365 32.2558 20.2633 32.2696 20.2892C32.5084 20.7347 32.8521 21.0965 33.1931 21.4627C33.2373 21.5102 33.2548 21.582 33.2551 21.6456C33.1857 21.8435 32.9249 21.8979 32.7377 22.0471C32.6076 22.151 32.0333 22.6981 31.9687 22.7262C31.6229 22.8749 31.1299 21.677 30.5615 21.5976C30.1445 21.5395 30.0736 21.5502 29.6579 21.5781C28.4517 21.6592 27.4182 21.9107 26.3466 22.5397C25.7838 22.8702 24.3562 24.0297 24.0353 24.6722C23.9693 24.8066 24.4254 24.9917 24.4696 25.095C24.4893 25.1408 24.5289 25.2228 24.4974 25.2941C24.4143 25.4819 24.0307 25.697 23.8409 25.8437C23.6022 25.9641 23.4145 26.3259 23.2289 26.4488C22.9641 26.6239 22.749 26.1001 22.6975 25.9899C21.5073 27.2366 20.0322 28.4108 18.3675 28.9387C17.8455 29.1041 17.0167 29.234 16.4593 29.3127C16.0248 29.3741 15.4621 29.3205 14.9702 29.3814C14.6931 29.6129 14.5167 29.8759 14.2566 30.1227C14.0397 30.2453 13.8926 30.1463 13.7746 29.9573C13.5412 29.5834 13.3163 29.2426 12.9959 28.9372C12.9506 28.8937 12.9602 28.8342 12.9734 28.7794C13.0821 28.6646 13.343 28.5008 13.4885 28.3864C13.7083 28.2135 14.0766 27.7225 14.3026 27.6413C14.6168 27.6486 14.8646 28.3968 15.1668 28.6147C15.454 28.8213 16.288 28.7594 16.6333 28.7322C17.4006 28.6791 18.1554 28.5102 18.8728 28.2327C20.1319 27.7319 21.5561 26.5957 22.4365 25.5649C22.1213 25.3567 21.7403 25.1531 22.1754 24.8166C22.502 24.564 22.8297 24.3039 23.1493 24.0424C23.4288 23.8139 23.5805 24.0026 23.7424 24.2303C25.0356 22.8291 26.2763 21.7881 28.1883 21.3246C28.5431 21.2386 29.0525 21.1854 29.428 21.1195C29.8732 21.0415 30.5736 21.1641 31.0193 21.0482C31.4423 20.9381 31.7203 20.3642 32.1535 20.2293ZM16.7036 20.1414C17.0944 20.2936 16.9496 21.2346 17.1872 21.4954C17.4348 21.7668 18.6798 21.6146 18.7112 22.0799C18.5918 22.3625 17.7556 22.7449 17.4435 22.9113C17.5035 23.2857 17.8044 24.0946 17.5993 24.4498C17.319 24.6576 16.473 23.7476 16.2206 23.5284C15.8871 23.5193 14.965 24.3652 14.625 24.0637C14.5355 23.8232 15.0648 22.9625 15.0971 22.7562C15.1614 22.3408 14.0958 21.9039 14.2574 21.3596C14.4827 21.1608 15.4164 21.5167 15.6578 21.4321C16.1589 21.2565 16.1019 20.237 16.7036 20.1414ZM18.0365 20.5908C18.3851 20.7045 18.5309 20.9984 18.1103 21.1799C17.6567 21.0718 17.7343 20.8497 18.0365 20.5908ZM19.0356 19.9382C19.4607 19.987 19.3746 20.31 19.0905 20.4779C18.9388 20.4399 18.8735 20.4192 18.8185 20.2667C18.8333 20.1014 18.9122 20.048 19.0356 19.9382ZM22.6672 14.9755C22.7701 15.0018 22.8115 15.0194 22.8811 15.1043C23.2465 15.5495 23.6185 15.9916 23.9945 16.4276C24.355 16.3165 25.736 15.7852 25.9593 15.9953C26.0361 16.2635 25.2399 17.2967 25.0626 17.7427C25.2055 18.2184 25.9054 18.8268 26.1025 19.3114C26.1463 19.4192 26.0284 19.5885 25.9753 19.6779C25.5681 19.6418 24.5657 19.4262 24.1976 19.2777L24.1843 19.2746C23.9112 19.3118 23.1956 20.8044 22.7467 20.704C22.3786 20.6204 22.5243 19.032 22.3083 18.7896C21.9865 18.4289 20.9694 18.39 20.6482 18.0095C20.567 17.9133 20.6333 17.6697 20.7469 17.6237C21.3044 17.4201 21.8242 17.1451 22.3729 16.9212C22.3846 16.6534 22.4014 15.2331 22.4551 15.0912C22.5147 15.009 22.5686 15.0034 22.6672 14.9755ZM20.1578 19.2894C20.2959 19.2801 20.4158 19.3852 20.4242 19.5234C20.4326 19.6615 20.3267 19.78 20.1886 19.7876C20.0518 19.7951 19.9346 19.6909 19.926 19.5542C19.9176 19.4174 20.021 19.2987 20.1578 19.2894ZM21.4852 18.7492C21.6804 18.9327 21.528 19.2339 21.3093 19.2978C21.2901 19.2902 21.2708 19.2818 21.2518 19.2738C20.8909 19.1222 20.9383 18.8303 21.3196 18.721C21.3708 18.7246 21.4339 18.7391 21.4852 18.7492ZM33.3145 12.4934C33.5191 12.5903 33.8272 14.2338 33.9156 14.5661C33.9521 14.7028 34.0067 14.8353 34.061 14.9658C34.5635 15.1056 36.3953 15.312 36.6639 15.649C36.6955 15.797 36.6085 15.8956 36.4854 15.9766C36.1152 16.2207 35.7204 16.4295 35.3456 16.6682C35.0501 16.8565 34.8015 17.0811 34.5004 17.26C34.5525 17.4782 34.5961 17.6987 34.6302 17.9203C34.7243 18.5146 34.7503 19.1754 34.8332 19.7787C34.8337 20.0125 34.5345 20.1426 34.3698 20.0078C33.7747 19.5182 33.1774 18.9851 32.6126 18.4609C32.3439 18.1766 32.2491 18.4022 31.9332 18.5056C31.3838 18.6852 30.5287 19.2587 30.0011 19.3673L29.7319 19.1941C30.0872 18.51 30.4714 17.469 30.7794 16.732C30.3569 16.3043 29.4058 15.3259 29.1257 14.8317C29.1759 14.7342 29.2089 14.6519 29.2929 14.5814C29.4855 14.5131 31.4316 14.7291 31.7194 14.7927C32.0281 14.416 32.4307 13.572 32.6998 13.1287C32.8365 12.9033 32.9204 12.6721 33.1052 12.4543C33.1696 12.4608 33.256 12.4657 33.3145 12.4934ZM26.131 17.0774C26.1927 17.0814 26.2279 17.0975 26.2858 17.1178C26.4826 17.2938 26.3738 17.5466 26.1341 17.6138C25.733 17.4609 25.6983 17.1764 26.131 17.0774ZM27.2868 16.778C27.6889 16.841 27.783 17.0532 27.4237 17.2871C27.0952 17.3199 27.0659 17.0019 27.2868 16.778ZM28.6459 16.662C29.0262 16.6603 28.8334 17.0493 28.6369 17.1995C28.354 17.0141 28.1426 16.7244 28.6459 16.662ZM29.7773 16.4358C30.1839 16.5219 30.4016 16.9754 29.8672 17.1293C29.5834 17.1153 29.5583 17.0125 29.4592 16.777C29.5565 16.5864 29.5966 16.5547 29.7773 16.4358Z" fill="black" fill-opacity="0.972549"/>
</svg>
