<svg width="173" height="173" viewBox="0 0 173 173" fill="none" xmlns="http://www.w3.org/2000/svg">
<rect width="172.727" height="172.727" rx="32.4226" fill="url(#paint0_linear_107_135)"/>
<g clip-path="url(#clip0_107_135)">
<path d="M131.413 83.511C128.821 71.2715 121.015 60.8385 110.357 54.4971H120.606C121.947 57.6966 125.189 59.9596 128.967 59.9596C133.942 59.9596 137.989 56.0389 137.989 51.2195C137.989 46.4003 133.942 42.4795 128.967 42.4795C125.189 42.4795 121.948 44.7425 120.606 47.942H95.6341V42.2376H77.0908V47.9422H52.1193C50.778 44.7427 47.5365 42.4797 43.7579 42.4797C38.7832 42.4797 34.7359 46.4003 34.7359 51.2197C34.7359 56.0389 38.783 59.9598 43.7579 59.9598C47.5365 59.9598 50.7778 57.6967 52.1193 54.4973H62.3685C51.7101 60.8387 43.9046 71.2717 41.3124 83.5112H34.4862V101.475H53.0295V83.5112H48.2452C51.6911 69.7639 62.9 58.9052 77.0908 55.5666V60.2016H95.6341V55.5668C109.825 58.905 121.034 69.7639 124.48 83.5114H119.695V101.475H138.239V83.5112L131.413 83.511Z" fill="black"/>
<path d="M89.7473 74.4042V92.1933C91.9382 93.3545 93.4244 95.6075 93.4244 98.1974C93.4244 101.975 90.2634 105.037 86.364 105.037C82.4647 105.037 79.3035 101.975 79.3035 98.1974C79.3035 95.6075 80.7897 93.3541 82.9807 92.1933V74.4042L61.786 102.226L68.9449 115.063H103.783L110.942 102.226L89.7473 74.4042Z" fill="black"/>
<path d="M102.626 121.62H70.1009L66.3814 130.489H86.3637H106.346L102.626 121.62Z" fill="black"/>
</g>
<defs>
<linearGradient id="paint0_linear_107_135" x1="85.5408" y1="-11.5151" x2="87.1858" y2="184.242" gradientUnits="userSpaceOnUse">
<stop stop-color="#E0FD35"/>
<stop offset="1" stop-color="#D7FB00"/>
</linearGradient>
<clipPath id="clip0_107_135">
<rect width="103.752" height="100.51" fill="white" transform="translate(34.4871 36.1082)"/>
</clipPath>
</defs>
</svg>
