<svg width="47" height="47" viewBox="0 0 47 47" fill="none" xmlns="http://www.w3.org/2000/svg">
<rect y="8.15264" width="39.212" height="39.212" rx="10.5229" transform="rotate(-12 0 8.15264)" fill="#CDFA03"/>
<path fill-rule="evenodd" clip-rule="evenodd" d="M18.1814 12.6558C19.1693 12.3755 20.486 12.8683 21.196 13.5695C22.4018 14.7604 23.2352 16.4153 24.2182 17.7972C24.811 18.6306 25.4037 19.4622 25.9753 20.31L26.9954 21.8024C27.3484 22.3288 27.8321 23.0612 28.2633 23.5307C28.5897 23.886 29.7768 24.384 30.2354 24.608C30.447 24.7114 30.7039 24.7756 30.9041 24.9262L30.9138 24.9341C31.0833 24.6804 31.2654 24.2756 31.5042 24.0718C33.2998 22.5407 36.3563 24.2204 36.0975 26.5319C35.9182 28.1312 34.0751 28.8278 32.6777 28.2212C32.1395 27.9875 31.8781 27.7549 31.4167 27.394C31.0746 27.1273 30.7289 26.8646 30.3798 26.6071C29.4323 25.9022 29.4267 25.9594 28.3051 25.86C28.2693 26.4695 28.3206 26.7363 28.581 27.2939C28.8703 27.9137 29.1133 28.0144 29.6276 28.4133C29.9752 28.6826 30.2872 28.9957 30.5553 29.3443C31.0654 29.9978 31.3486 30.7915 31.2506 31.6245C31.1571 32.2106 30.9777 32.8292 30.4729 33.1886C29.1524 34.128 27.4981 33.5139 26.5928 32.3271C26.0839 31.6567 25.8636 30.8107 25.9805 29.9772C26.0882 29.2252 26.4863 28.5445 27.0892 28.0822C26.7229 27.3755 26.2317 26.6116 25.7777 25.9609C25.7071 25.8602 25.2913 26.0717 25.1512 26.0901C24.9388 26.1248 24.6169 26.2203 24.3986 26.274L23.077 26.5899L17.1296 28.0128C15.5925 28.3893 14.0632 28.7654 12.5158 29.1013C12.1156 29.1882 11.6191 29.2816 11.8817 28.692C11.8449 28.6501 11.6799 28.4626 11.6735 28.4167C11.6108 27.9396 11.5815 27.4607 11.4678 26.9888C11.4258 26.8148 11.4302 26.6206 11.3277 26.4755C11.2407 26.3525 11.2801 26.3033 11.282 26.1617C11.2542 26.1294 11.1069 25.9806 11.0987 25.9521C10.8562 25.0544 10.7371 24.1275 10.4712 23.2301C10.3387 22.7831 10.2983 22.2788 10.1624 21.8291C10.0114 21.3299 9.84483 20.8349 9.71014 20.3309C9.63476 20.0485 9.68919 19.7762 9.65772 19.4924C9.45082 18.7826 9.22967 18.0665 9.08077 17.3417C9.06135 17.152 8.87697 16.6447 9.09341 16.5463C9.73857 16.2541 10.5578 16.1913 11.2386 16.0095C13.1565 15.4971 15.0825 15.0576 17.0374 14.714C17.3743 14.6548 17.7111 14.5316 18.0519 14.4894C18.117 14.4813 18.3529 14.5428 18.4276 14.5613C18.7744 14.9684 19.2089 15.1244 18.6664 15.6187C18.7361 15.866 18.814 16.0421 18.9141 16.2769C19.2085 16.2482 19.256 16.2374 19.5287 16.3549C19.617 16.5822 19.6575 16.7699 19.6434 17.0164C19.8341 17.097 20.1405 17.239 20.2507 17.4125C20.5175 17.8328 20.7574 18.3067 20.9935 18.7462C21.105 18.9636 21.2856 19.1652 21.4027 19.3751C21.9309 20.3227 22.5619 21.2025 23.1356 22.1216C23.4431 22.5697 23.7027 22.8332 23.852 23.3691C23.9543 23.7353 24.4215 24.4814 24.6455 24.8098L25.1954 24.8277C25.1746 24.8062 25.1539 24.7845 25.1345 24.7618C24.9456 24.5415 24.7988 24.2477 24.6461 24C24.2086 23.2908 23.7972 22.5665 23.3661 21.853C22.8445 20.99 17.9967 13.1418 18.0112 12.9356C18.0238 12.8008 18.081 12.7399 18.1814 12.6558ZM27.8436 29.6162C27.6911 29.7007 27.6206 29.9107 27.5679 30.0711C27.2552 31.0238 28.3379 32.3615 29.3535 32.0088C29.5528 31.8513 29.7354 31.6801 29.7513 31.4051C29.795 30.6398 29.0794 29.6725 28.3032 29.5664C28.1731 29.5487 27.9691 29.5917 27.8436 29.6162ZM32.8159 25.001C31.5425 25.6501 32.9962 27.0936 34.0409 26.8422C34.1473 26.8049 34.2776 26.763 34.379 26.7184C34.5759 26.3782 34.5879 26.3247 34.5489 25.9346C34.4244 25.7977 34.3709 25.6991 34.2733 25.5449C33.9461 25.0276 33.3995 24.8228 32.8159 25.001ZM32.0812 11.1359C32.2043 11.1096 32.3938 11.0573 32.5025 11.1313C32.7294 11.2858 32.8809 11.6196 32.9117 11.8819C32.9851 12.5057 33.0911 13.0989 33.2302 13.7092L33.2463 13.7237C33.6544 14.0795 33.6622 14.6936 33.7908 15.2004L34.3423 17.3115C34.4331 17.6686 34.5166 18.1031 34.6153 18.4456C34.7755 19.0007 35.0411 19.5394 35.2151 20.1072C35.3784 20.4295 35.2712 20.8795 35.3601 21.1885C35.5386 21.8089 35.79 22.4162 35.8723 23.0675C36.0084 23.1447 36.1799 23.203 36.2002 23.3652C36.0683 23.6468 35.1453 23.8198 34.8415 23.8357C34.721 23.8412 34.69 23.6004 34.6267 23.5059C34.3843 23.3436 33.8998 23.3486 33.6202 23.2566C33.1026 23.0863 32.8877 23.1904 32.3783 23.285C32.2905 23.2443 32.1261 23.1558 32.0377 23.1577C31.9523 23.2432 32.0133 23.3744 31.9399 23.491C31.8187 23.6821 31.3351 23.7922 31.1202 23.8339C31.0657 23.9546 31.0341 24.1003 30.961 24.2122C30.6523 24.6839 30.051 24.1642 29.7308 23.9246C29.4638 23.9652 29.4256 23.9665 29.1833 23.8713C28.8803 23.4035 29.139 23.3552 28.4516 23.4208C28.4058 23.4133 28.3848 23.393 28.3471 23.3661C28.268 23.2273 28.2209 22.7947 28.1963 22.6144C27.9053 22.6285 27.8736 22.6201 27.7203 22.3712C26.7288 20.7621 25.5619 19.2732 24.5886 17.6516C24.3327 17.2253 23.9374 16.8424 23.6884 16.4132C23.6222 16.2991 23.7352 16.0616 23.7829 15.9469C23.7349 15.9234 23.5958 15.8541 23.5671 15.819C23.3673 15.5743 22.7419 14.8602 22.6437 14.5936C22.5021 14.518 22.4136 14.4585 22.2824 14.3689C22.2234 14.1336 21.9789 13.7852 22.0696 13.6164C22.4041 13.4135 23.6482 13.1705 24.0729 13.0698L29.503 11.8387C29.9665 11.729 30.4911 11.6071 30.9471 11.4789C31.3396 11.3684 31.6667 11.2398 32.0812 11.1359ZM15.3693 26.3822C15.3641 26.5405 15.4048 26.7606 15.4347 26.9154C15.5192 27.3516 16.2501 27.0958 16.5068 26.9571C16.4638 26.7396 16.433 26.4104 16.2639 26.2789C16.0731 26.2031 15.7419 26.4158 15.3693 26.3822ZM13.2798 26.8194C13.0852 26.8609 12.8644 26.9246 12.6713 26.9487C12.5217 27.1353 12.6541 27.8621 13.0204 27.7221C13.2025 27.6522 13.4026 27.6163 13.5965 27.5907C13.7008 27.4876 13.6198 26.7467 13.2798 26.8194ZM18.3838 25.7125C18.3396 25.8929 18.4952 26.2511 18.5419 26.4516C18.855 26.3848 19.1834 26.3 19.5004 26.2828C19.4032 26.0297 19.4422 25.6468 19.2245 25.5438C19.0856 25.52 18.5684 25.6728 18.3838 25.7125ZM21.977 24.8669C21.7881 24.9248 21.622 24.98 21.4269 25.0127C21.4467 25.3236 21.4542 25.4435 21.5558 25.7411C21.7164 25.7148 21.8499 25.6966 22.0063 25.6484C22.18 25.606 22.3837 25.5512 22.5565 25.5174C22.4344 25.1105 22.5036 24.7768 21.977 24.8669ZM33.3741 22.3195C33.3383 22.4682 33.5234 22.9974 33.6702 23.0643C33.8515 23.0035 33.8279 22.889 34.1513 22.8193L34.2843 22.811C34.3949 22.6778 34.2366 22.3569 34.2126 22.1733C33.9737 22.2172 33.5745 22.257 33.3741 22.3195ZM30.7269 22.9231C30.6586 23.1604 30.7529 23.6721 31.1092 23.5098C31.2604 23.4407 31.4098 23.3825 31.5727 23.3464L31.6081 23.2969C31.5872 23.1813 31.5615 22.8384 31.5201 22.7795C31.3183 22.7926 30.9255 22.8696 30.7269 22.9231ZM26.3792 23.8073C26.1947 24.128 26.393 24.3868 26.7606 24.3193C26.9691 23.8968 26.7615 23.8002 26.3792 23.8073ZM18.0446 24.1682L18.0675 24.1963L18.1009 24.1982C18.1787 24.1414 18.2327 24.1245 18.2596 24.0476C18.2339 24.0185 18.2195 23.9977 18.1875 23.9761C18.1369 24.041 18.092 24.1009 18.0446 24.1682ZM17.2831 24.0475C17.2757 24.1389 17.2578 24.2261 17.3025 24.303C17.3497 24.3185 17.3337 24.32 17.3789 24.3147C17.3561 24.2118 17.3528 24.0965 17.2831 24.0475ZM17.0742 18.8514C17.0975 18.99 17.1378 19.2712 17.1851 19.387C17.0478 19.6538 17.2978 19.6428 17.3344 19.8784C17.2693 20.0296 17.1232 19.9159 17.0288 20.0232C17.0632 20.1173 17.208 20.3285 17.2836 20.3954C17.3569 20.401 17.3667 20.3887 17.4338 20.3505C17.5364 20.4385 17.4503 20.5923 17.4685 20.6925C17.4738 20.7184 17.5213 20.7627 17.5196 20.8154L17.5187 20.8156C17.5112 20.8536 17.5044 20.888 17.5008 20.9193C17.4899 21.0135 17.5081 21.0826 17.6168 21.1552C17.576 21.3991 17.6829 21.6217 17.6955 21.9342L17.6957 21.9351C17.695 21.9971 17.7052 22.0511 17.7201 22.1016C17.7259 22.1212 17.7336 22.1396 17.7411 22.1581C17.7497 22.1789 17.7568 22.2003 17.7674 22.2204C17.7713 22.228 17.7768 22.2349 17.781 22.2425C17.8147 22.3024 17.8539 22.3622 17.8972 22.4274L17.8224 22.3994C17.6535 22.4064 17.544 22.4391 17.5657 22.6526C17.6166 22.7253 17.5882 22.7062 17.6746 22.7283C17.675 22.5963 17.654 22.608 17.7177 22.5175L17.7609 22.5093C17.8096 22.5281 17.9472 22.578 17.9868 22.6001C17.9718 22.6198 17.957 22.6412 17.9408 22.6608L17.8859 22.7124C17.8692 22.7879 18.0282 23.1726 18.0702 23.2413L18.14 23.2973C18.1614 23.3164 18.1783 23.3368 18.181 23.3585C18.1068 23.4658 18.01 23.7086 18.0086 23.8394L18.037 23.8693C18.1091 23.8423 18.0943 23.8336 18.1372 23.7492C18.1955 23.7787 18.2469 23.83 18.2966 23.874L18.3231 23.8484C18.3147 23.7727 18.3096 23.732 18.2913 23.6565C18.2972 23.5249 18.2528 23.2022 18.229 23.0677L18.2309 23.0673L18.1434 22.9422L18.1731 22.866L18.2063 22.806C18.2644 22.6683 18.1901 22.5461 18.0589 22.4599C17.9868 22.4555 17.951 22.4468 17.9059 22.4306C17.8719 22.2842 17.8474 22.199 17.8418 22.0918C17.8401 22.0566 17.8407 22.0194 17.8443 21.9764C17.8463 21.9514 17.8468 21.9244 17.851 21.8951L17.8867 21.8895C17.9143 21.9384 17.9408 22.0135 17.9628 22.088C17.9847 22.1624 18.0027 22.2367 18.0146 22.2847L18.0426 22.2707C18.0606 22.2006 18.0629 22.1231 18.0501 22.0475C18.0416 21.9972 18.0268 21.9475 18.006 21.9011C17.9956 21.878 17.9832 21.856 17.9699 21.8349C17.9435 21.7925 17.9113 21.7542 17.8744 21.7234C17.9358 21.6084 17.8717 21.3732 17.8222 21.2573L17.7872 21.2477L17.7376 21.3242C17.6733 21.2569 17.7341 21.0997 17.641 20.9404L17.6092 20.8703C17.5886 20.5173 17.405 19.6619 17.256 19.3589L17.1978 19.0758C17.1278 19.0126 17.224 18.9862 17.0742 18.8514ZM29.0174 20.0568L28.9391 20.1203C28.9423 20.0958 29.0603 20.6206 29.0645 20.6398L29.1496 20.7535L29.1511 20.7841C29.1251 20.9366 29.2077 21.1713 29.2718 21.3096L29.3117 21.333C29.3672 21.2543 29.3325 21.1385 29.3172 21.0393C29.3035 20.9585 29.302 20.9036 29.284 20.8647L29.285 20.8645C29.3029 20.9034 29.3044 20.9584 29.3181 21.0391C29.3186 20.696 29.3929 20.7825 29.3331 20.377C29.3127 20.3283 29.26 20.2794 29.2388 20.2293C29.2046 20.1481 29.1812 20.0421 29.1543 19.9538L29.0174 20.0568ZM17.5774 22.8299C17.5397 22.9159 17.5021 22.9578 17.519 23.034C17.6084 23.0526 17.6652 23.0396 17.7552 23.0277L17.8013 22.9909C17.7806 22.9378 17.6279 22.8369 17.5774 22.8299ZM16.9151 21.9872C17.0392 22.2241 17.0365 22.2971 17.0816 22.5638C17.0984 22.5794 17.114 22.5931 17.1261 22.6043C17.2603 22.6003 17.2737 22.5373 17.398 22.4976L17.4525 22.491C17.4525 22.3539 17.099 22.1712 17.0043 22.0032C16.9781 21.9979 16.9404 21.9887 16.9151 21.9872ZM28.7733 19.0633C28.7489 19.2126 28.9172 19.5718 28.9183 19.7404C28.8816 19.7705 28.8488 19.7978 28.8206 19.821C28.8941 19.8916 28.9825 19.9628 29.0165 20.057L29.1533 19.954L29.1451 19.9338C29.0574 19.7253 28.9561 19.202 28.8603 19.0638L28.8074 19.0451L28.7733 19.0633ZM17.8865 21.8886L17.858 21.8906L17.8716 21.8608C17.8774 21.8683 17.881 21.8787 17.8865 21.8886ZM17.3144 21.4611C17.3148 21.5703 17.358 21.7501 17.4173 21.8416C17.435 21.8457 17.4486 21.8498 17.4624 21.8519C17.4762 21.8542 17.4901 21.8543 17.5084 21.8521L17.5082 21.8512L17.5093 21.8519C17.5133 21.7877 17.4782 21.6844 17.4316 21.5989C17.4068 21.5531 17.3808 21.5111 17.3515 21.4851C17.3394 21.4745 17.3264 21.4662 17.3144 21.4611ZM16.6683 21.7092C16.682 21.7888 16.6838 21.9025 16.7704 21.9311C16.754 21.8367 16.7596 21.7532 16.6683 21.7092ZM27.3525 17.9776C27.3179 18.1246 27.5827 18.7974 27.6353 19.0497C27.6903 18.8206 27.589 18.0714 27.3525 17.9776ZM28.6804 18.4192C28.6175 18.5638 28.6288 18.7471 28.8004 18.801C28.7906 18.6884 28.7871 18.546 28.741 18.4462L28.6804 18.4192ZM16.4906 20.4082C16.4401 20.5586 16.4649 21.2024 16.6079 21.2698C16.6045 21.1669 16.5238 20.4616 16.5045 20.4172L16.4906 20.4082ZM28.32 16.7895C28.2519 16.8109 28.2985 16.8677 28.0921 16.9199L28.044 16.9471C28.0914 17.3063 28.1336 17.421 28.2904 17.7403L28.3189 17.7332C28.2693 17.5224 28.073 17.2891 28.1251 17.1175C28.5622 17.0371 28.38 17.9468 28.5652 18.1921L28.6024 18.273C28.6125 18.2891 28.6266 18.2982 28.6603 18.3106C28.6664 18.2959 28.6709 18.277 28.6734 18.2549C28.6785 18.2101 28.677 18.1522 28.6695 18.091C28.662 18.0301 28.6492 17.9652 28.6322 17.9063C28.6151 17.8469 28.5936 17.7928 28.5699 17.7538L28.5331 17.7077L28.5137 17.6539C28.4806 17.5025 28.5166 17.1896 28.3979 17.0715C28.395 16.967 28.4005 16.8786 28.3576 16.7835C28.3424 16.785 28.3296 16.7865 28.32 16.7895ZM10.6895 17.2773C10.5377 17.3293 10.3869 17.3844 10.2373 17.4423C10.2885 17.6977 10.3497 18.0577 10.4244 18.2991L10.9142 18.208C11.0292 18.1861 11.1833 18.152 11.2969 18.1436C11.273 18.06 11.2525 17.9689 11.2245 17.8874C11.1034 17.5349 11.181 17.1424 10.6895 17.2773ZM12.9029 16.7749C12.939 17.0139 12.9706 17.4684 13.1198 17.6263C13.2015 17.6588 13.2325 17.6639 13.3293 17.6257C13.509 17.536 13.7626 17.4917 13.9635 17.448C13.8633 17.1449 13.9316 16.5333 13.535 16.6206L12.9029 16.7749ZM16.0486 16.1072C15.9776 16.1437 15.8551 16.1951 15.8345 16.2696C15.7745 16.4938 15.9565 16.8053 16.0252 17.0587C16.1819 17.0074 16.53 16.9222 16.6443 16.8712C16.9514 16.774 16.8799 16.5054 16.7954 16.267C16.7695 16.1943 16.7426 16.1216 16.7152 16.0494C16.4482 16.0346 16.3131 16.0479 16.0486 16.1072ZM23.6454 14.3837C23.4521 14.4549 23.2491 14.5328 23.0524 14.5906C23.1863 14.7489 23.4107 15.2196 23.5827 15.2117C23.8164 15.1247 23.8582 15.1279 24.0997 15.0888C24.0608 14.8052 24.0187 14.3692 23.6454 14.3837ZM26.1352 13.8055C26.0072 13.8496 25.8742 13.8935 25.7475 13.9399C25.8674 14.3794 25.8522 14.7385 26.3995 14.579C26.5046 14.5515 26.7047 14.5115 26.7821 14.4488C26.8134 14.2846 26.6614 13.8692 26.5756 13.7259C26.4745 13.6776 26.2482 13.7681 26.1352 13.8055ZM29.1826 13.0979C29.0265 13.1487 28.6793 13.2435 28.5678 13.3384C28.4099 13.4738 28.6419 13.911 28.792 13.9936C28.8589 14.0021 28.8913 14.0097 28.96 13.9998C29.0946 13.9662 29.4918 13.8923 29.5708 13.8111C29.6396 13.6778 29.48 13.1444 29.3768 13.0766C29.3007 13.0805 29.2594 13.0828 29.1826 13.0979ZM31.9698 12.4435C31.8801 12.4149 31.8038 12.4249 31.7173 12.4723C31.4969 12.5488 31.3191 12.6 31.0933 12.6598C31.1706 13.0265 31.1364 13.4506 31.594 13.381C31.832 13.3078 31.948 13.2886 32.1489 13.1453C32.1043 12.921 32.1018 12.5794 31.9698 12.4435Z" fill="black"/>
</svg>
