<svg width="206" height="206" viewBox="0 0 206 206" fill="none" xmlns="http://www.w3.org/2000/svg">
<rect width="206" height="206" rx="38.6684" fill="url(#paint0_linear_107_129)"/>
<path d="M127.366 54.269C130.716 54.2692 133.584 55.4625 135.969 57.8481C138.355 60.2338 139.548 63.1017 139.548 66.4517V93.8628L163.914 69.4976V136.502L139.548 112.137V139.548C139.548 142.898 138.355 145.767 135.969 148.153C133.584 150.538 130.716 151.731 127.366 151.731H54.269C50.9188 151.731 48.0503 150.539 45.6646 148.153C43.2788 145.767 42.0864 142.899 42.0864 139.548L42.0864 66.4517C42.0866 63.1018 43.2791 60.2337 45.6646 57.8481C48.0503 55.4625 50.9189 54.269 54.269 54.269H127.366ZM71.6694 72.5425C68.3195 72.5426 65.4516 73.7351 63.0659 76.1206C60.6801 78.5064 59.4868 81.3749 59.4868 84.7251C59.4868 88.0753 60.6801 90.9438 63.0659 93.3296C65.4516 95.7151 68.3195 96.9076 71.6694 96.9077C72.5323 96.9077 73.3954 96.8315 74.2583 96.6792C75.1211 96.5269 75.9335 96.2483 76.6948 95.8423L83.8521 103L76.6948 110.157C75.9335 109.751 75.1212 109.471 74.2583 109.319C73.3955 109.167 72.5323 109.09 71.6694 109.09C68.3193 109.09 65.4516 110.284 63.0659 112.669C60.6802 115.055 59.4869 117.923 59.4868 121.273C59.4868 124.623 60.6801 127.492 63.0659 129.877C65.4516 132.263 68.3194 133.455 71.6694 133.456C75.0197 133.456 77.8881 132.263 80.2739 129.877C82.6597 127.492 83.8521 124.623 83.8521 121.273C83.852 120.41 83.7768 119.547 83.6245 118.684C83.4722 117.821 83.1927 117.009 82.7866 116.248L89.9438 109.09L111.263 130.411H120.401V127.365L82.7866 89.7505C83.1927 88.9891 83.4722 88.1769 83.6245 87.314C83.7768 86.451 83.8521 85.588 83.8521 84.7251C83.852 81.3749 82.6597 78.5064 80.2739 76.1206C77.8882 73.7349 75.0196 72.5425 71.6694 72.5425ZM71.6694 115.182C73.3446 115.182 74.7793 115.778 75.9722 116.971C77.1649 118.164 77.7612 119.598 77.7612 121.273C77.7612 122.948 77.1651 124.383 75.9722 125.576C74.7793 126.769 73.3446 127.365 71.6694 127.365C69.9945 127.365 68.5605 126.768 67.3677 125.576C66.1748 124.383 65.5786 122.948 65.5786 121.273C65.5787 119.598 66.1749 118.164 67.3677 116.971C68.5605 115.778 69.9945 115.182 71.6694 115.182ZM89.9438 101.476C90.3499 101.476 90.7057 101.629 91.0103 101.933C91.3147 102.238 91.4663 102.593 91.4663 103C91.4662 103.405 91.3145 103.761 91.0103 104.065C90.7057 104.37 90.3499 104.522 89.9438 104.522C89.5378 104.522 89.182 104.37 88.8774 104.065C88.5732 103.761 88.4215 103.405 88.4214 103C88.4214 102.593 88.573 102.238 88.8774 101.933C89.182 101.629 89.5378 101.476 89.9438 101.476ZM127.361 103.004L127.366 103L127.361 102.996V103.004ZM111.263 75.5884L92.9897 93.8618L99.0806 99.9536L120.401 78.6333V75.5884H111.263ZM71.6694 78.6333C73.3446 78.6333 74.7793 79.2304 75.9722 80.4233C77.1648 81.6162 77.7612 83.0501 77.7612 84.7251C77.7612 86.4001 77.1648 87.834 75.9722 89.0269C74.7793 90.2197 73.3446 90.8169 71.6694 90.8169C69.9945 90.8168 68.5605 90.2197 67.3677 89.0269C66.1749 87.834 65.5786 86.4001 65.5786 84.7251C65.5786 83.0501 66.1749 81.6162 67.3677 80.4233C68.5605 79.2305 69.9945 78.6334 71.6694 78.6333Z" fill="black"/>
<defs>
<linearGradient id="paint0_linear_107_129" x1="102.019" y1="-13.7333" x2="103.981" y2="219.733" gradientUnits="userSpaceOnUse">
<stop stop-color="#E0FD35"/>
<stop offset="1" stop-color="#D7FB00"/>
</linearGradient>
</defs>
</svg>
