<svg width="131" height="131" viewBox="0 0 131 131" fill="none" xmlns="http://www.w3.org/2000/svg">
<rect width="130.634" height="130.634" rx="24.5214" fill="url(#paint0_linear_107_146)"/>
<path d="M44.6054 27.4108L49.6721 22.4043L80.1615 53.0689C81.5244 54.4397 82.2059 56.1383 82.2059 58.1647C82.2059 60.1911 81.5244 61.8898 80.1615 63.2606L63.2723 80.2468C61.9093 81.6176 60.2204 82.303 58.2056 82.303C56.1907 82.303 54.5018 81.6176 53.1389 80.2468L36.2497 63.2606C34.8867 61.8898 34.2052 60.1911 34.2052 58.1647C34.2052 56.1383 34.8867 54.4397 36.2497 53.0689L53.1389 35.9933L44.6054 27.4108ZM58.2056 41.0891L41.2276 58.1647H75.1836L58.2056 41.0891ZM85.1838 81.0961C83.7911 79.6955 83.0948 78.0117 83.0948 76.0449C83.0948 74.7933 83.4652 73.4523 84.206 72.0219C84.9467 70.5915 85.7615 69.2504 86.6504 67.9988C87.1838 67.2836 87.7467 66.5386 88.3394 65.7638C88.932 64.989 89.5542 64.244 90.206 63.5288C90.8579 64.244 91.4801 64.989 92.0727 65.7638C92.6653 66.5386 93.2283 67.2836 93.7617 67.9988C94.6506 69.2504 95.4654 70.5915 96.2061 72.0219C96.9469 73.4523 97.3173 74.7933 97.3173 76.0449C97.3173 78.0117 96.6209 79.6955 95.2283 81.0961C93.8357 82.4967 92.1616 83.197 90.206 83.197C88.2505 83.197 86.5764 82.4967 85.1838 81.0961ZM29.7607 108.229V93.9251H100.873V108.229H29.7607Z" fill="black"/>
<defs>
<linearGradient id="paint0_linear_107_146" x1="64.695" y1="-8.70894" x2="65.9391" y2="139.343" gradientUnits="userSpaceOnUse">
<stop stop-color="#E0FD35"/>
<stop offset="1" stop-color="#D7FB00"/>
</linearGradient>
</defs>
</svg>
