<svg width="84" height="57" viewBox="0 0 84 57" fill="none" xmlns="http://www.w3.org/2000/svg">
<path d="M71.1245 21.2443L71.3041 10.1383C71.3433 10.1378 71.3628 10.1243 71.3625 10.0977C73.5798 10.5742 74.9839 10.8884 75.5746 11.0403L75.5751 11.0801C75.5473 17.4216 75.5381 20.9837 75.5476 21.7663C76.0975 23.9484 76.4056 25.0788 76.472 25.1576C76.5377 25.1833 76.8326 25.2194 77.3566 25.266L77.3559 25.2063C77.3422 24.0788 77.1403 18.755 76.7502 9.23468C77.4949 9.13255 78.7494 8.9909 80.5139 8.80973L80.5742 8.92838L82.0071 38.0829L72.2742 38.3633C72.2737 38.3235 72.2538 38.3038 72.2146 38.3043C72.4466 34.7726 72.5611 32.8808 72.5581 32.6288L72.6751 32.5676L77.3925 33.0859L77.3874 32.6681C77.3826 32.2702 77.3948 31.6598 77.4241 30.8369C74.1964 30.1342 72.5818 29.7298 72.5805 29.6237C72.3813 28.2995 71.8959 25.5064 71.1245 21.2443Z" fill="white"/>
<path d="M63.5444 29.9949C63.4943 22.6195 63.4426 16.7366 63.3894 12.3461L63.3697 10.7146C63.4078 10.6213 64.8447 9.86714 67.6804 8.45215L67.7405 8.5509C67.7445 8.8825 67.7092 10.2892 67.6346 12.7709L71.1317 9.78223L71.171 9.78174C71.2855 12.7519 71.3487 14.7278 71.3606 15.7094C68.9838 17.1982 67.7957 17.9692 67.7964 18.0223C67.5542 26.1177 67.4348 30.3046 67.4382 30.5832L67.3408 30.6441C65.0072 30.3017 63.742 30.1052 63.5451 30.0546L63.5444 29.9949Z" fill="white"/>
<path d="M52.0322 9.08478C52.0313 9.00519 53.1619 8.89825 55.4243 8.76395C55.424 8.73742 55.4434 8.72391 55.4827 8.72342L55.3988 5.0431C55.5027 4.97547 55.5743 4.94142 55.6135 4.94093C55.8883 4.93751 57.2021 4.82828 59.5551 4.61326L59.5958 4.73215L59.6248 5.50786C59.6576 6.05137 59.6965 7.10554 59.7417 8.67039L61.4885 8.64864C61.9072 8.64343 62.548 8.61555 63.4111 8.565C63.4244 8.57811 63.4312 8.59792 63.4315 8.62445C63.4447 8.63755 63.4581 8.65728 63.4715 8.68365C63.4847 8.69675 63.4914 8.70993 63.4916 8.7232C63.5506 10.3542 63.5936 11.74 63.6205 12.8805L63.5228 12.9216L59.8318 12.868C59.9627 20.4281 60.035 24.7785 60.0488 25.9193C60.0856 28.9568 60.0909 30.4757 60.0648 30.476L60.0059 30.4767C57.4665 30.4288 56.0137 30.4071 55.6473 30.4116L55.6068 30.3126L55.181 12.9856L52.2762 13.0218C52.1977 13.0228 52.158 12.9835 52.157 12.9039L52.1033 11.7106C52.0685 10.9947 52.0448 10.1194 52.0322 9.08478Z" fill="white"/>
<path d="M47.3703 30.256C47.4073 30.0698 47.4257 29.9634 47.4254 29.9369C47.4013 27.9473 47.4052 21.2544 47.4373 9.85837C47.4765 9.85788 47.4959 9.83774 47.4954 9.79794C48.137 9.82975 48.6018 9.84387 48.8896 9.84028L50.342 9.8222C50.6953 9.8178 51.2124 9.83126 51.8933 9.86258L51.9533 9.96133C51.8899 23.0824 51.8492 29.988 51.8314 30.678L51.7337 30.719C49.035 30.474 47.5805 30.3197 47.3703 30.256ZM47.379 8.28705L47.3312 4.34758L47.369 4.22771C50.8537 4.52925 52.6355 4.69942 52.7145 4.73823L52.7687 9.2149C52.7696 9.28122 52.7372 9.31479 52.6718 9.31561C49.5109 8.73145 47.7466 8.3886 47.379 8.28705Z" fill="white"/>
<path d="M30.5544 20.3764L30.5308 18.4266C30.4837 14.5402 30.5209 11.6676 30.6423 9.8088L46.5115 10.5067C46.602 23.3738 46.6529 30.2715 46.6641 31.2L46.5667 31.261C45.0756 31.3193 43.9309 31.3535 43.1328 31.3634L43.0935 31.3639C43.015 31.3649 42.7535 31.3814 42.3089 31.4135C42.3086 31.3869 42.2888 31.3739 42.2496 31.3744C42.2273 23.0568 42.1969 17.3063 42.1583 14.1228L41.531 14.1904L40.9618 14.1974L40.8644 14.2584L40.6786 29.7025L40.5811 29.7634C38.6295 29.6153 37.555 29.5026 37.3578 29.4255C36.8568 19.4025 36.6049 14.2716 36.602 14.0328L35.7188 14.0438L35.413 30.9223C35.4138 30.9886 33.9103 31.1134 30.9027 31.2968L30.8426 31.1981C30.6694 25.5488 30.5734 21.9416 30.5544 20.3764Z" fill="white"/>
<path d="M20.9526 30.764L20.9611 29.8485C20.9942 17.4575 21.0197 10.9236 21.0377 10.2468L25.4787 9.01742L25.4534 6.92831C25.4396 5.78759 25.4015 4.26245 25.3391 2.3529L25.4561 2.29174L29.6539 2.04048C29.6542 2.06701 29.6674 2.08011 29.6936 2.07978L29.6717 3.51281L29.8382 30.2156C29.8429 30.6003 29.8078 30.9456 29.733 31.2517C24.7706 31.0349 21.8438 30.8723 20.9526 30.764ZM24.6328 25.0668L25.6738 25.1135L25.6512 18.3878L25.6034 14.4484L25.3875 14.4511L24.76 14.4987C24.7608 14.565 24.754 15.0891 24.7398 16.071C24.7253 17.0396 24.7082 18.3266 24.6884 19.9321C24.6684 21.5243 24.6499 23.2358 24.6328 25.0668Z" fill="white"/>
<path d="M81.6094 6.76258L82.2017 7.92805L82.2621 8.04628L82.4501 8.41651L84 39.9513L70.3992 40.343L70.3981 40.2521L70.1833 40.2547L70.3199 38.1766C70.4358 36.4117 70.5224 35.0596 70.5793 34.1187C70.6078 33.6479 70.6287 33.2839 70.6422 33.0241C70.6574 32.7314 70.6593 32.6389 70.6595 32.6522L70.6451 31.463L71.3484 31.095C71.28 31.0349 71.2016 30.9583 71.124 30.8635C71.0039 30.7167 70.7746 30.3911 70.7038 29.9137L70.7033 29.9141C70.5577 28.9464 70.2518 27.1497 69.7818 24.5112L69.257 21.5918L69.223 21.4039L69.2936 17.0158C69.8032 16.6903 70.4422 16.2851 71.2121 15.8025L71.1245 21.2443C71.8959 25.5064 72.3813 28.2995 72.5805 29.6237C72.5835 29.7301 74.1981 30.1346 77.4241 30.8369L77.4053 31.4142C77.3898 31.9517 77.3838 32.3697 77.3874 32.6681L77.3925 33.0859L72.6751 32.5676L72.5581 32.6288C72.5611 32.8808 72.4466 34.7726 72.2146 38.3043C72.2538 38.3038 72.2737 38.3235 72.2742 38.3633L82.0071 38.0829L80.5742 8.92838L80.5139 8.80973C78.7494 8.9909 77.4949 9.13255 76.7502 9.23468C77.1403 18.7545 77.3422 24.0784 77.3559 25.2063L77.3566 25.266C76.8326 25.2194 76.5377 25.1833 76.472 25.1576C76.4055 25.0784 76.0973 23.9479 75.5476 21.7663C75.5381 20.9834 75.5473 17.4211 75.5751 11.0801L75.5746 11.0403C74.9839 10.8884 73.5798 10.5742 71.3625 10.0977C71.3628 10.1243 71.3433 10.1378 71.3041 10.1383L71.267 12.4073C71.2404 11.6414 71.2089 10.7661 71.171 9.78174L71.1317 9.78223L69.3867 11.2735L69.436 8.23676L69.441 8.2367L69.4347 7.71582L71.7564 8.21476C73.0463 8.49195 74.0757 8.7183 74.8353 8.89033L74.7811 7.56243L76.4958 7.32746C77.2751 7.22057 78.5577 7.07604 80.3226 6.89483L81.6094 6.76258Z" fill="#353535"/>
<path d="M71.175 18.0917C70.5661 18.4762 70.0783 18.787 69.7108 19.0255C69.6955 19.0354 69.6803 19.0453 69.6654 19.055C69.5589 22.624 69.4778 25.3687 69.423 27.2895C69.3932 28.3357 69.3714 29.1363 69.357 29.692C69.3498 29.9701 69.3441 30.1852 69.3408 30.3381C69.3371 30.5093 69.3368 30.5655 69.3367 30.5596L69.3499 31.6491L67.751 32.6489L67.0686 32.549C65.9003 32.3776 64.9946 32.2422 64.3542 32.1427C63.924 32.0759 63.5409 32.0146 63.2866 31.9654L63.0785 31.9202L61.6643 31.5569L61.6456 30.0081C61.5974 22.923 61.5471 17.218 61.4962 12.8919L63.3953 12.9193C63.4461 17.2439 63.4964 22.9358 63.5444 29.9949L63.5451 30.0546C63.6928 30.0925 64.4415 30.2124 65.7911 30.4145L67.3408 30.6441L67.4382 30.5832C67.4348 30.3046 67.5542 26.1177 67.7964 18.0223C67.7979 17.969 68.9366 17.2291 71.2121 15.8025L71.175 18.0917ZM72.9962 7.8341L73.0683 9.70662C73.0785 9.96998 73.0873 10.2258 73.0966 10.4739C72.5879 10.3625 72.0099 10.2369 71.3625 10.0977C71.3628 10.1243 71.3433 10.1378 71.3041 10.1383L71.267 12.4073C71.2404 11.6414 71.2089 10.7661 71.171 9.78174L71.1317 9.78223L67.6346 12.7709C67.6906 10.9096 67.7246 9.65309 67.7363 9.00123L67.7405 8.5509L67.6804 8.45215C65.4019 9.5891 64.0265 10.2994 63.5541 10.5831C63.5355 10.0033 63.5155 9.38327 63.4916 8.7232C63.4914 8.70993 63.4847 8.69675 63.4715 8.68365C63.4581 8.65728 63.4447 8.63755 63.4315 8.62445C63.4312 8.59792 63.4244 8.57811 63.4111 8.565C63.3445 8.56891 63.2789 8.57199 63.2149 8.57562C63.3339 8.51175 63.4635 8.44281 63.603 8.36957C64.3391 7.98325 65.4212 7.43394 66.8418 6.72503L68.3905 5.95234L69.6324 7.99405L69.6389 8.52733L69.6386 8.53974L70.428 7.86608L72.9962 7.8341Z" fill="#353535"/>
<path d="M50.1337 9.10832C50.1326 9.01606 50.1383 8.92781 50.1486 8.84352C50.6975 8.94742 51.3258 9.06539 52.0336 9.19675C52.0464 10.1827 52.0697 11.0206 52.1033 11.7106L52.157 12.9039C52.1579 12.9735 52.1884 13.0124 52.2485 13.0204L52.2762 13.0218L55.181 12.9856L55.6068 30.3126L55.6473 30.4116C55.8305 30.4093 56.2854 30.4137 57.0119 30.4246L60.0059 30.4767L60.0648 30.476L60.0694 30.4582C60.0847 30.3275 60.0848 29.4789 60.0703 27.9126L60.0488 25.9193C60.035 24.7785 59.9627 20.4281 59.8318 12.868L63.3953 12.9193C63.4025 13.5335 63.4097 14.1754 63.4168 14.8448L61.7638 14.8208C61.873 21.1583 61.9347 24.8526 61.9474 25.8955C61.9658 27.4153 61.9763 28.5614 61.979 29.3295C61.9804 29.7116 61.9799 30.0103 61.9771 30.2176C61.9757 30.3175 61.9736 30.4162 61.9696 30.4984C61.968 30.5323 61.964 30.6043 61.9547 30.6846C61.9514 30.7121 61.9392 30.8202 61.9058 30.9517C61.893 31.0022 61.8479 31.1783 61.7406 31.3819C61.6876 31.4824 61.5692 31.6875 61.3538 31.8893C61.1265 32.1022 60.6966 32.3931 60.088 32.4007L59.9996 32.4018L59.9706 32.4013C57.4106 32.3529 55.9991 32.3322 55.6706 32.3363L54.3851 32.3523L53.7173 30.7187L53.7089 30.3605L53.3294 14.9336L52.2995 14.9465C52.1975 14.9477 52.0704 14.9408 51.9284 14.9166C51.9361 13.3772 51.9448 11.7255 51.9533 9.96133L51.8933 9.86258C51.2124 9.83126 50.6953 9.8178 50.342 9.8222L50.1447 9.82484C50.1404 9.5943 50.1367 9.35538 50.1337 9.10832ZM60.8625 2.56109L61.3488 3.98238L61.3897 4.10086L61.4827 4.37212L61.5223 5.43467C61.5399 5.7377 61.559 6.16774 61.5791 6.72119C61.9571 6.71331 62.5262 6.68865 63.3016 6.64324L64.1375 6.59424L64.737 7.18721C64.9182 7.36643 65.0448 7.55917 65.1335 7.74687C65.2661 7.98081 65.3751 8.28347 65.3879 8.65285L65.3892 8.65283C65.4009 8.97489 65.4101 9.28766 65.4205 9.59099C64.4638 10.0798 63.8416 10.4104 63.5541 10.5831C63.5355 10.0033 63.5155 9.38327 63.4916 8.7232C63.4914 8.70993 63.4847 8.69675 63.4715 8.68365C63.4581 8.65728 63.4447 8.63755 63.4315 8.62445C63.4312 8.59792 63.4244 8.57811 63.4111 8.565C62.548 8.61555 61.9072 8.64343 61.4885 8.64864L59.7417 8.67039C59.6965 7.10554 59.6576 6.05137 59.6248 5.50786L59.5958 4.73215L59.5551 4.61326C57.2021 4.82828 55.8883 4.93751 55.6135 4.94093C55.5743 4.94142 55.5027 4.97547 55.3988 5.0431L55.4827 8.72342C55.4434 8.72391 55.424 8.73742 55.4243 8.76395C54.2144 8.83577 53.3283 8.90039 52.7657 8.95656L52.7423 7.02463C52.971 7.00334 53.2382 6.98183 53.5432 6.95907L53.4761 4.00737L54.3727 3.42334C54.4606 3.36612 54.5824 3.29173 54.7233 3.22465C54.8054 3.18558 55.1428 3.02194 55.59 3.01631C55.5832 3.0164 55.6014 3.01599 55.6606 3.01268C55.7148 3.00965 55.7881 3.0051 55.882 2.99844C56.0698 2.98512 56.3249 2.9649 56.6499 2.93788C57.2992 2.8839 58.21 2.80352 59.3846 2.69618L60.8625 2.56109Z" fill="#353535"/>
<path d="M45.4289 4.05887L45.5227 3.76139L45.5607 3.64148L46.0215 2.17945L47.5304 2.30997C49.2741 2.46085 50.5978 2.5794 51.4972 2.6653C51.9453 2.7081 52.2965 2.74336 52.5449 2.77124C52.667 2.78496 52.7782 2.79851 52.8685 2.81132C52.9115 2.81742 52.9688 2.8261 53.0283 2.83735C53.057 2.84278 53.1055 2.8524 53.1628 2.86691C53.1781 2.87079 53.2764 2.8945 53.4053 2.94567L53.5429 3.00597L54.5987 3.52526L54.6627 8.81074C53.8351 8.86382 53.2028 8.91292 52.7657 8.95656L52.7145 4.73823C52.6355 4.69942 50.8537 4.52925 47.369 4.22771L47.3312 4.34758L47.379 8.28705C47.7211 8.38155 49.2727 8.68436 52.0336 9.19675C52.0464 10.1827 52.0697 11.0206 52.1033 11.7106L52.157 12.9039C52.158 12.9835 52.1977 13.0228 52.2762 13.0218L53.8371 13.0024C53.7821 24.142 53.7467 30.0677 53.7297 30.7282L53.6972 31.9777L52.5583 32.4563L52.4605 32.4971L52.0294 32.6784L51.5644 32.6364C50.2121 32.5136 49.1626 32.4124 48.4212 32.3338C48.0518 32.2946 47.7485 32.2599 47.5181 32.2297C47.3823 32.2119 47.1325 32.18 46.9164 32.1251L46.8264 32.1L45.1671 31.597L45.2239 31.3091C45.6349 31.2953 46.0827 31.2799 46.5667 31.261L46.6641 31.2C46.6529 30.2715 46.602 23.3738 46.5115 10.5067L45.5369 10.4638C45.5374 10.2617 45.5379 10.058 45.5385 9.85279L45.5385 9.77332L45.498 9.76234L45.4289 4.05887ZM47.4118 30.0365C47.4026 30.0897 47.3889 30.1628 47.3703 30.256C47.5284 30.3038 48.3861 30.4024 49.9431 30.5521L51.7337 30.719L51.8314 30.678C51.8492 29.9873 51.8899 23.0816 51.9533 9.96133L51.8933 9.86258C51.2124 9.83126 50.6953 9.8178 50.342 9.8222L48.8896 9.84028C48.6018 9.84387 48.137 9.82975 47.4954 9.79794C47.4959 9.83774 47.4765 9.85788 47.4373 9.85837C47.4052 21.2544 47.4013 27.9473 47.4254 29.9369L47.4118 30.0365Z" fill="#353535"/>
<path d="M48.3972 8.66319L48.4055 9.83409C48.1574 9.82737 47.854 9.81572 47.4954 9.79794C47.4959 9.83774 47.4765 9.85788 47.4373 9.85837C47.4052 21.2544 47.4013 27.9473 47.4254 29.9369C47.4257 29.9634 47.4073 30.0698 47.3703 30.256C47.4726 30.2869 47.8682 30.3391 48.5565 30.4127C48.5597 30.7898 48.561 31.0445 48.5626 31.1766L48.5758 32.2661L47.1388 33.1647L46.6401 33.1842C45.1439 33.2428 43.9794 33.278 43.156 33.2882L43.117 33.2887C43.1362 33.2885 43.1359 33.2879 43.0967 33.2899C43.0642 33.2916 43.0182 33.2942 42.9567 33.2981C42.834 33.3058 42.6637 33.3175 42.4437 33.3334L40.4352 33.4783L40.4333 33.3221L40.3558 33.3231L40.3513 31.6758C39.4109 31.6039 38.6631 31.54 38.1162 31.4826C37.836 31.4533 37.5916 31.4238 37.3936 31.3942C37.3615 31.3894 37.3154 31.3823 37.2597 31.3729C37.1046 32.0378 36.6419 32.3976 36.5385 32.4753C36.3356 32.6276 36.1493 32.7037 36.0825 32.7299C35.9259 32.7915 35.7886 32.8216 35.738 32.8326C35.6098 32.8602 35.4745 32.8792 35.368 32.8927C35.1381 32.922 34.823 32.9525 34.441 32.9842C33.668 33.0484 32.5234 33.1261 31.0165 33.218L29.8831 33.2872L28.9606 31.7712L28.9449 31.2578C28.9444 31.244 28.9439 31.2302 28.9435 31.2165C29.2006 31.2279 29.4638 31.2399 29.733 31.2517C29.8078 30.9456 29.8429 30.6003 29.8382 30.2156L29.6984 7.84033L48.3972 8.66319ZM30.5544 20.3764L30.5651 21.0592C30.5986 22.8755 30.6911 26.2552 30.8426 31.1981L30.9027 31.2968C33.8152 31.1192 35.3172 30.9966 35.4085 30.9288L35.413 30.9223L35.7188 14.0438L36.602 14.0328L36.651 15.1294C36.7465 17.1431 36.9821 21.9085 37.3578 29.4255L37.4049 29.4403C37.6923 29.5168 38.7511 29.6245 40.5811 29.7634L40.6786 29.7025L40.8644 14.2584L40.9618 14.1974L41.531 14.1904L42.1583 14.1228C42.1969 17.3063 42.2273 23.0568 42.2496 31.3744C42.2888 31.3739 42.3086 31.3869 42.3089 31.4135C42.7535 31.3814 43.015 31.3649 43.0935 31.3639L43.1328 31.3634C43.9309 31.3535 45.0756 31.3193 46.5667 31.261L46.6641 31.2C46.6529 30.2715 46.602 23.3738 46.5115 10.5067L30.6423 9.8088C30.5209 11.6676 30.4837 14.5402 30.5308 18.4266L30.5544 20.3764Z" fill="#353535"/>
<path d="M31.5281 -2.14328e-08L31.5297 0.131827L31.6226 0.13067L31.5702 3.51202L31.6098 9.85074L30.6423 9.8088C30.5209 11.6676 30.4837 14.5402 30.5308 18.4266L30.5544 20.3764C30.5734 21.9416 30.6694 25.5488 30.8426 31.1981L30.9027 31.2968C31.1691 31.2806 31.4237 31.264 31.6665 31.2487C31.6427 31.4053 31.6137 31.561 31.5761 31.7148L31.2026 33.2423L29.651 33.1748C25.0384 32.9733 22.0945 32.8154 20.9348 32.698L20.7266 32.6754L19.0378 32.4699L19.0622 29.8433C19.0952 17.4771 19.1207 10.9025 19.1395 10.1948L19.1775 8.76655L23.5622 7.55243L23.5549 6.95209C23.5447 6.111 23.5207 5.05118 23.4833 3.77075L23.4415 2.41651L23.4018 1.1996L24.9433 0.394381L31.5281 -2.14328e-08ZM25.6034 14.4484L25.6512 18.3878L25.6738 25.1135L24.6328 25.0668C24.6499 23.2358 24.6684 21.5243 24.6884 19.9321C24.7082 18.3266 24.7253 17.0396 24.7398 16.071C24.754 15.0891 24.7608 14.565 24.76 14.4987L25.3875 14.4511L25.6034 14.4484ZM25.4787 9.01742L21.0377 10.2468C21.0197 10.9247 20.9942 17.4588 20.9611 29.8485L20.9526 30.764C21.8438 30.8723 24.7706 31.0349 29.733 31.2517C29.7984 30.9839 29.8334 30.6861 29.838 30.3582L29.8382 30.2156L29.6717 3.51281L29.6936 2.07978C29.6674 2.08011 29.6542 2.06701 29.6539 2.04048L25.4561 2.29174L25.3391 2.3529C25.4015 4.26245 25.4396 5.78759 25.4534 6.92831L25.4787 9.01742Z" fill="#353535"/>
<path d="M60.2869 53.8692C60.2368 45.4193 60.2775 38.5137 60.4088 33.1526C60.4079 33.073 62.7139 32.7657 67.3269 32.2306C67.4314 32.2161 67.5884 32.2075 67.7977 32.2049C68.5697 32.1953 69.1809 32.4132 69.6312 32.8586C70.0815 33.3041 70.3114 33.9181 70.3209 34.7007C70.4006 46.6791 70.4452 53.0596 70.4547 53.8421C70.4565 53.988 70.4193 54.161 70.3432 54.3609C68.0499 54.0976 66.6999 53.9221 66.2931 53.8343L66.1029 38.1361C66.0991 37.8177 65.9467 37.6604 65.6457 37.6642L64.8606 37.674C64.6803 48.7137 64.5575 54.234 64.492 54.2348C61.7813 54.0828 60.3797 53.9742 60.2873 53.909L60.2869 53.8692Z" fill="white"/>
<path d="M54.857 53.7777C54.894 53.5915 54.9123 53.4851 54.912 53.4586C54.8879 51.469 54.8919 44.7761 54.9239 33.38C54.9632 33.3796 54.9825 33.3594 54.9821 33.3196C55.6237 33.3514 56.0884 33.3655 56.3763 33.362L57.8287 33.3439C58.1819 33.3395 58.699 33.3529 59.3799 33.3843L59.44 33.483C59.3765 46.6041 59.3358 53.5096 59.318 54.1997L59.2204 54.2407C56.5216 53.9957 55.0671 53.8414 54.857 53.7777ZM54.8656 31.8087L54.8179 27.8693L54.8557 27.7494C58.3403 28.0509 60.1221 28.2211 60.2011 28.2599L60.2554 32.7366C60.2562 32.8029 60.2239 32.8365 60.1585 32.8373C56.9975 32.2531 55.2333 31.9103 54.8656 31.8087Z" fill="white"/>
<path d="M38.0411 43.8981L38.0174 41.9483C37.9703 38.0619 38.0075 35.1893 38.1289 33.3305L53.9982 34.0284C54.0886 46.8954 54.1395 53.7932 54.1508 54.7217L54.0533 54.7826C52.5622 54.841 51.4175 54.8752 50.6194 54.8851L50.5801 54.8856C50.5016 54.8866 50.2401 54.9031 49.7956 54.9351C49.7952 54.9086 49.7754 54.8956 49.7362 54.8961C49.7139 46.5785 49.6835 40.8279 49.6449 37.6445L49.0176 37.712L48.4484 37.7191L48.351 37.78L48.1652 53.2242L48.0678 53.2851C46.1161 53.137 45.0416 53.0243 44.8444 52.9472C44.3435 42.9242 44.0915 37.7933 44.0886 37.5545L43.2054 37.5655L42.8996 54.4439C42.9004 54.5103 41.397 54.6351 38.3893 54.8185L38.3292 54.7197C38.1561 49.0705 38.06 45.4633 38.0411 43.8981Z" fill="white"/>
<path d="M25.0195 52.3184L30.8037 37.2026C27.7132 37.0288 25.9128 36.9451 25.4025 36.9514C25.4022 36.9249 25.3824 36.9119 25.3432 36.9124C25.5328 34.2037 25.6524 32.7297 25.7018 32.4903C29.1303 32.4741 31.152 32.4622 31.767 32.4545L35.3586 32.4098C35.882 32.4033 36.6935 32.4131 37.7931 32.4392C37.7936 32.479 37.8134 32.4986 37.8527 32.4981L31.3087 49.7129L31.3675 49.7122C31.6161 49.7091 33.9958 49.5402 38.5066 49.2054L38.5667 49.3042L38.6221 53.8803C38.6229 53.9466 38.5906 53.9802 38.5252 53.981L25.2379 54.1465C25.1463 54.1476 25.0735 53.5383 25.0195 52.3184Z" fill="white"/>
<path d="M14.2541 50.9203L14.2064 46.9808C14.1736 44.2749 14.2233 39.7372 14.3555 33.3678C14.3545 33.2882 15.9105 33.1826 19.0235 33.051C19.0238 33.0775 19.0436 33.0905 19.0829 33.09C19.0788 41.3947 19.091 46.721 19.1195 49.0687L19.0664 49.547L19.2823 49.5443C19.4393 49.5423 19.7274 49.5586 20.1466 49.5932C20.5779 38.7494 20.7906 33.0821 20.7846 32.5913L20.8823 32.5503L24.9843 32.4992L25.0829 32.5378C25.0799 44.1723 25.0888 50.8517 25.1097 52.576L25.1326 54.4662C21.0246 54.5571 18.1266 54.6131 16.4387 54.6341L14.4564 54.6588L14.3576 54.6003C14.2987 52.9826 14.2642 51.7559 14.2541 50.9203Z" fill="white"/>
<path d="M1.89867 54.3774C1.89224 53.8468 2.15855 44.5041 2.69759 26.3492L2.79524 26.3082L7.47773 27.1852L7.47845 27.2449L6.89353 38.9131L6.89425 38.9728L6.93351 38.9723L11.325 32.0325L11.4231 32.0313C13.1728 33.8667 14.2736 35.0802 14.7258 35.6715L14.727 35.771L9.6335 43.0977C12.7262 49.931 14.3942 53.6712 14.6376 54.3183C11.9309 54.4979 10.4336 54.5895 10.1457 54.5931C7.85758 49.3549 6.64711 46.657 6.51434 46.4995L6.05077 47.1221L6.07946 49.4898C6.09248 50.5642 6.13163 52.1755 6.19692 54.3239C6.15767 54.3243 6.13828 54.3445 6.13876 54.3843C4.98765 54.4251 4.30088 54.447 4.07844 54.4497L1.99801 54.4756C1.93259 54.4764 1.89947 54.4437 1.89867 54.3774Z" fill="white"/>
<path d="M59.318 54.1997C59.3358 53.5089 59.3765 46.6033 59.44 33.483L59.3799 33.3843C59.0499 33.3691 58.7582 33.358 58.5051 33.3513C58.5071 33.2688 58.5088 33.1867 58.5108 33.105C58.5156 32.8964 58.5524 32.7102 58.6055 32.5479C59.0791 32.6365 59.5967 32.7335 60.1585 32.8373C60.2239 32.8365 60.2562 32.8029 60.2554 32.7366L60.237 31.2054C60.3318 31.1864 60.4319 31.1678 60.5305 31.1513C60.851 31.0975 61.309 31.0312 61.8903 30.9538C63.0597 30.798 64.8025 30.586 67.1113 30.3182C67.3257 30.2913 67.5612 30.2827 67.7743 30.2801C68.8562 30.2666 69.9256 30.5605 70.7878 31.3221L70.9574 31.4808C71.8467 32.3605 72.2055 33.5073 72.2197 34.6772L72.2198 34.6878C72.2996 46.6715 72.3439 53.0431 72.3533 53.8186L72.35 53.995C72.3295 54.401 72.2246 54.7642 72.1145 55.0537L71.5866 56.4407L70.1294 56.2737C68.1693 56.0487 66.7984 55.8772 66.1371 55.7625L65.8977 55.7168L65.741 55.6829C65.4953 55.9006 65.0905 56.1522 64.5155 56.1594L64.4511 56.1602L64.3872 56.1569C63.0285 56.0807 61.9845 56.0146 61.2634 55.9587C60.9057 55.931 60.6084 55.9042 60.3855 55.8782C60.2776 55.8657 60.1591 55.8504 60.0491 55.8305C59.9964 55.821 59.9139 55.8046 59.8215 55.7791C59.8046 55.7745 59.574 55.7181 59.3154 55.5622L59.203 55.4892L58.4008 54.9231L58.3916 54.1633C58.6535 54.1876 58.9296 54.2143 59.2204 54.2407L59.318 54.1997ZM60.2873 53.909C60.3797 53.9742 61.7813 54.0828 64.492 54.2348C64.5575 54.2274 64.6804 48.7071 64.8606 37.674L65.6457 37.6642C65.9467 37.6604 66.0991 37.8177 66.1029 38.1361L66.2931 53.8343C66.5983 53.9001 67.4341 54.0152 68.8003 54.1798L70.3432 54.3609C70.4098 54.186 70.4467 54.0318 70.4536 53.8983L70.4547 53.8421C70.4452 53.0596 70.4006 46.6791 70.3209 34.7007C70.312 33.9671 70.1093 33.3817 69.713 32.9443L69.6312 32.8586C69.1809 32.4132 68.5697 32.1953 67.7977 32.2049C67.5884 32.2075 67.4314 32.2161 67.3269 32.2306L65.7052 32.4205C62.1739 32.8387 60.4085 33.0829 60.4088 33.1526C60.2775 38.5137 60.2368 45.4193 60.2869 53.8692L60.2873 53.909Z" fill="#353535"/>
<path d="M52.9156 27.5806L53.0094 27.2831L53.0469 27.1632L53.5082 25.7011L55.0171 25.8316C56.7607 25.9825 58.084 26.1011 58.9835 26.187C59.4317 26.2298 59.7832 26.265 60.0316 26.2929C60.1537 26.3066 60.2649 26.3202 60.3552 26.333C60.3982 26.3391 60.4556 26.3478 60.515 26.359C60.5437 26.3645 60.5923 26.3741 60.6495 26.3886C60.6648 26.3925 60.763 26.4162 60.892 26.4673L61.0296 26.5276L62.0854 27.0469L62.1541 32.7127L62.1512 32.8488C62.151 32.8526 62.1502 32.8564 62.15 32.8603C60.989 33.0148 60.4086 33.1126 60.4088 33.1526C60.2775 38.5137 60.2368 45.4193 60.2869 53.8692L60.2873 53.909C60.3293 53.9386 60.6399 53.976 61.2191 54.0234C61.2176 54.1265 61.2172 54.202 61.2159 54.2499L61.1839 55.4994L60.045 55.978L59.9472 56.0188L59.5161 56.2001L59.0511 56.1581C57.6989 56.0353 56.6494 55.9341 55.9079 55.8554C55.5384 55.8162 55.2347 55.7816 55.0044 55.7514C54.8685 55.7336 54.6191 55.7017 54.4031 55.6468L54.3131 55.6217L52.6533 55.1187L52.7101 54.8308C53.1213 54.817 53.5691 54.8016 54.0533 54.7826L54.1508 54.7217C54.1395 53.7932 54.0886 46.8954 53.9982 34.0284L53.0236 33.9855C53.0241 33.7834 53.0247 33.5796 53.0252 33.3745L53.0252 33.295L52.9847 33.284L52.9156 27.5806ZM54.8985 53.5582C54.8893 53.6113 54.8755 53.6845 54.857 53.7777C55.0152 53.8255 55.873 53.9241 57.4298 54.0738L59.2204 54.2407L59.318 54.1997C59.3358 53.5089 59.3765 46.6033 59.44 33.483L59.3799 33.3843C58.699 33.3529 58.1819 33.3395 57.8287 33.3439L56.3763 33.362C56.0884 33.3655 55.6237 33.3514 54.9821 33.3196C54.9825 33.3594 54.9632 33.3796 54.9239 33.38C54.8919 44.7761 54.8879 51.469 54.912 53.4586L54.8985 53.5582ZM54.8656 31.8087C55.2333 31.9103 56.9975 32.2531 60.1585 32.8373C60.2239 32.8365 60.2562 32.8029 60.2554 32.7366L60.2011 28.2599C60.1221 28.2211 58.3403 28.0509 54.8557 27.7494L54.8179 27.8693L54.8656 31.8087Z" fill="#353535"/>
<path d="M36.1187 41.9717C36.0963 40.1255 36.0935 38.4949 36.1093 37.0839L37.8527 32.4981C37.8134 32.4986 37.7936 32.479 37.7931 32.4392C37.2094 32.4253 36.7069 32.4161 36.2856 32.4114L36.3568 31.3259L55.8839 32.1849L55.8922 33.3558C55.6441 33.3491 55.3406 33.3374 54.9821 33.3196C54.9825 33.3594 54.9632 33.3796 54.9239 33.38C54.8919 44.7761 54.8879 51.469 54.912 53.4586C54.9123 53.4851 54.894 53.5915 54.857 53.7777C54.9594 53.8086 55.355 53.8608 56.0432 53.9344C56.0464 54.3115 56.0477 54.5662 56.0493 54.6983L56.0625 55.7878L54.6255 56.6864L54.1268 56.7059C52.6306 56.7645 51.4661 56.7997 50.6427 56.8099L50.6033 56.8104C50.5983 56.8106 50.5917 56.8111 50.5834 56.8116C50.5509 56.8133 50.5045 56.8159 50.443 56.8198C50.3203 56.8275 50.1502 56.8392 49.9304 56.8551L47.9215 57L47.9196 56.8438L47.8425 56.8448L47.838 55.1975C46.8976 55.1256 46.1498 55.0616 45.6029 55.0043C45.3227 54.9749 45.0783 54.9455 44.8803 54.9159C44.8482 54.9111 44.8021 54.904 44.7464 54.8946C44.5913 55.5595 44.1286 55.9193 44.0252 55.997C43.8221 56.1494 43.6354 56.2254 43.5687 56.2516C43.4123 56.3132 43.2753 56.3433 43.2247 56.3542C43.0965 56.3819 42.9612 56.4009 42.8547 56.4144C42.6248 56.4437 42.3097 56.4742 41.9277 56.5059C41.1548 56.5701 40.0101 56.6478 38.5032 56.7397L37.3698 56.8089L36.4473 55.2929L36.4316 54.7795C36.4236 54.5178 36.4163 54.2605 36.4086 54.0075L38.3071 53.9839C38.3145 54.2251 38.3216 54.4705 38.3292 54.7197L38.3893 54.8185C41.3023 54.6409 42.8043 54.5183 42.8953 54.4505L42.8996 54.4439L43.2054 37.5655L44.0886 37.5545L44.1377 38.6511C44.2332 40.6648 44.4687 45.4302 44.8444 52.9472C45.0416 53.0243 46.1161 53.137 48.0678 53.2851L48.1652 53.2242L48.351 37.78L48.4484 37.7191L49.0176 37.712L49.6449 37.6445C49.6835 40.8279 49.7139 46.5785 49.7362 54.8961C49.7754 54.8956 49.7952 54.9086 49.7956 54.9351C50.2401 54.9031 50.5016 54.8866 50.5801 54.8856L50.6194 54.8851C51.4175 54.8752 52.5622 54.841 54.0533 54.7826L54.1508 54.7217C54.1395 53.7932 54.0886 46.8954 53.9982 34.0284L38.1289 33.3305C38.0075 35.1893 37.9703 38.0619 38.0174 41.9483L38.0411 43.8981L38.0518 44.5809C38.0709 45.6195 38.1098 47.1694 38.1675 49.2304C37.4845 49.281 36.8527 49.3276 36.2722 49.3702C36.1985 46.7429 36.1545 44.9247 36.1423 43.9216L36.1187 41.9717Z" fill="#353535"/>
<path d="M25.1239 53.7566C25.1535 53.9817 25.1853 54.1094 25.221 54.1395L25.2379 54.1465L38.3071 53.9839C38.3145 54.2251 38.3216 54.4705 38.3292 54.7197L38.3893 54.8185C39.1389 54.7728 39.795 54.7304 40.3577 54.692C40.2726 54.894 40.1461 55.1035 39.9577 55.2992C39.4658 55.8103 38.8738 55.9017 38.5484 55.9057L25.2611 56.0712C24.1269 56.0853 23.6183 55.1823 23.5629 55.0858C23.4286 54.8516 23.3666 54.634 23.3415 54.5414C23.3383 54.5293 23.3356 54.517 23.3325 54.5048C23.9042 54.4925 24.5043 54.4801 25.1326 54.4662L25.1239 53.7566ZM24.1578 30.5728L25.693 30.5656C29.1257 30.5495 31.138 30.5373 31.7438 30.5298L31.767 32.4545L29.7897 32.4694C28.7788 32.4753 27.4161 32.4822 25.7018 32.4903C25.6523 32.7301 25.5328 34.2042 25.3432 36.9124C25.3824 36.9119 25.4022 36.9249 25.4025 36.9514C25.9128 36.9451 27.7132 37.0288 30.8037 37.2026L25.1055 52.0929C25.098 51.1101 25.0921 49.351 25.0883 46.8156L28.0854 38.9841C26.8652 38.9218 26.0597 38.8867 25.6469 38.8781L25.4258 38.8762L25.0828 38.8805C25.0824 36.9615 25.0823 34.8473 25.0829 32.5378L24.9843 32.4992L23.7843 32.5143C23.804 32.3395 23.8225 32.1957 23.8431 32.096L24.1578 30.5728ZM35.3351 30.4851C35.8943 30.4781 36.7342 30.4888 37.8374 30.515L39.453 30.5533L40.6324 30.5386L39.6245 33.1904L39.5472 33.3925L38.1289 33.3305C38.0604 34.3803 38.0197 35.7536 38.0048 37.4503L34.1484 47.5949C35.1913 47.5196 36.5134 47.4226 38.1152 47.3039C38.1303 47.8869 38.1479 48.529 38.1675 49.2304C33.877 49.5484 31.6103 49.7091 31.3675 49.7122L31.3087 49.7129L37.8527 32.4981C37.8232 32.4985 37.8048 32.4875 37.7972 32.4652L37.7931 32.4392C36.6935 32.4131 35.882 32.4033 35.3586 32.4098L35.3351 30.4851ZM35.3351 30.4851L35.3586 32.4098L31.767 32.4545L31.7438 30.5298L35.3351 30.4851Z" fill="#353535"/>
<path d="M25.1239 53.7566C25.1582 54.0168 25.1956 54.1468 25.2379 54.1465L27.0276 54.1243L27.0545 56.3488L25.1739 56.3906C21.066 56.4816 18.1598 56.5377 16.4619 56.5588L13.954 56.5901L12.4988 55.7294L12.4602 54.6714C12.4576 54.6005 12.4551 54.5301 12.4527 54.4606C12.992 54.4262 13.6238 54.3848 14.3481 54.3369C14.3512 54.4235 14.3543 54.5113 14.3576 54.6003L14.4564 54.6588L16.4387 54.6341L17.9315 54.612C19.6512 54.5831 22.0517 54.5344 25.1326 54.4662L25.1239 53.7566ZM14.3215 53.5636C13.953 52.7095 13.29 51.2171 12.3332 49.0858L12.3079 47.0046C12.286 45.1936 12.3005 42.5859 12.351 39.1879L14.2965 36.3894C14.2091 41.1937 14.179 44.7242 14.2064 46.9808L14.2541 50.9203L14.2663 51.6201C14.278 52.1605 14.2965 52.8083 14.3215 53.5636ZM25.3265 30.5697L26.982 31.2175L26.9815 32.4837C26.5793 32.4856 26.1527 32.4881 25.7018 32.4903C25.6523 32.7301 25.5328 34.2042 25.3432 36.9124C25.3824 36.9119 25.4022 36.9249 25.4025 36.9514C25.6428 36.9484 26.1691 36.9658 26.9814 37.0027C26.9816 41.2337 26.9836 44.6235 26.9878 47.1742L25.1055 52.0929C25.0879 49.8 25.0801 43.2816 25.0829 32.5378L24.9843 32.4992L20.8823 32.5503L20.7846 32.5913C20.7906 33.0821 20.5779 38.7494 20.1466 49.5932C19.7274 49.5586 19.4393 49.5423 19.2823 49.5443L19.0664 49.547L19.1195 49.0687C19.091 46.721 19.0788 41.3947 19.0829 33.09C19.0436 33.0905 19.0238 33.0775 19.0235 33.051C15.9129 33.1825 14.3568 33.2882 14.3555 33.3678C14.3426 33.9877 14.3307 34.5902 14.3194 35.1753C13.9044 34.6894 13.2877 34.011 12.4703 33.1394C12.55 32.4359 12.983 32.0175 13.1461 31.88C13.357 31.7023 13.5571 31.6125 13.6355 31.579C13.8112 31.5039 13.9658 31.4691 14.0224 31.4566C14.165 31.4249 14.313 31.4047 14.425 31.3914C14.6682 31.3624 14.9989 31.3354 15.3951 31.3085C16.1978 31.2541 17.3845 31.1939 18.9444 31.1279L19.3484 31.1105L20.0577 30.8131L20.4932 30.6299L25.3265 30.5697Z" fill="#353535"/>
<path d="M14.2965 36.3894C14.2743 37.6125 14.2558 38.7531 14.241 39.8112L11.814 43.302C12.7618 45.3979 13.5665 47.1849 14.2267 48.657L14.2541 50.9203C14.2619 51.5671 14.2845 52.4482 14.3215 53.5636C13.8748 52.5284 12.9968 50.5545 11.6858 47.6426L9.6335 43.0977L14.2965 36.3894ZM7.47773 27.1852L2.79524 26.3082L2.69759 26.3492C2.15855 44.5041 1.89224 53.8468 1.89867 54.3774C1.8993 54.4271 1.91808 54.4581 1.95505 54.4701L1.99801 54.4756L4.07844 54.4497C4.30088 54.447 4.98765 54.4251 6.13876 54.3843C6.13828 54.3445 6.15767 54.3243 6.19692 54.3239C6.13163 52.1755 6.09248 50.5642 6.07946 49.4898L6.05077 47.1221L6.51434 46.4995C6.61392 46.6176 7.31962 48.1648 8.63162 51.1408L10.1457 54.5931C10.4233 54.5896 11.8241 54.5038 14.3481 54.3369C14.3512 54.4235 14.3543 54.5113 14.3576 54.6003L14.4564 54.6588L16.4387 54.6341C16.5495 54.6327 16.6654 54.6307 16.7866 54.629L17.3283 56.0684L14.7618 56.2391C12.0978 56.4159 10.5231 56.5133 10.1691 56.5177L8.91675 56.5333L8.40963 55.3723C8.30698 55.1373 8.20544 54.908 8.10717 54.6833L8.1544 56.2245L8.06015 56.2256L8.06035 56.2422L6.20541 56.308C5.06594 56.3485 4.35138 56.3715 4.10169 56.3746L2.02149 56.4005C1.69612 56.4046 1.10206 56.3279 0.597954 55.8293C0.0939841 55.3307 0.00415271 54.731 0.000136436 54.4011C-0.00694995 53.8163 0.262117 44.3979 0.799725 26.2913L0.836767 25.0472L2.58752 24.312L9.35696 25.5797L9.37758 27.282L9.37469 27.3426L9.14545 31.911L10.2789 30.1204L12.2191 30.0962L12.7887 30.6937C13.7657 31.7186 14.5659 32.5777 15.1735 33.255C14.6288 33.2974 14.356 33.3345 14.3555 33.3678C14.3426 33.9877 14.3307 34.5902 14.3194 35.1753C13.7425 34.5 12.7772 33.4518 11.4231 32.0313L11.325 32.0325L6.93351 38.9723L6.89425 38.9728L6.89353 38.9131L7.47845 27.2449L7.47773 27.1852Z" fill="#353535"/>
</svg>
