<svg width="54" height="54" viewBox="0 0 54 54" fill="none" xmlns="http://www.w3.org/2000/svg">
<rect width="53.2734" height="53.2734" rx="10" fill="url(#paint0_radial_107_224)"/>
<path d="M32.938 14.0347C33.804 14.0348 34.5458 14.3428 35.1626 14.9595C35.7794 15.5764 36.0884 16.3188 36.0884 17.1851V24.2739L42.3892 17.9722V35.3003L36.0884 28.9995V36.0884C36.0883 36.9546 35.7794 37.6961 35.1626 38.313C34.5458 38.9298 33.8041 39.2386 32.938 39.2388H14.0347C13.1684 39.2388 12.426 38.9298 11.8091 38.313C11.1923 37.6961 10.8843 36.9546 10.8843 36.0884V17.1851C10.8843 16.3187 11.1921 15.5765 11.8091 14.9595C12.426 14.3427 13.1684 14.0347 14.0347 14.0347H32.938ZM18.5347 18.7603C17.6684 18.7603 16.927 19.0691 16.3101 19.686C15.6932 20.303 15.3843 21.0444 15.3843 21.9106C15.3843 22.777 15.6931 23.5192 16.3101 24.1362C16.9269 24.753 17.6685 25.061 18.5347 25.061C18.7578 25.061 18.9814 25.0418 19.2046 25.0024C19.4277 24.9631 19.6376 24.8906 19.8345 24.7856L21.6851 26.6372L19.8345 28.4878C19.6376 28.3828 19.4277 28.3104 19.2046 28.271C18.9814 28.2316 18.7578 28.2124 18.5347 28.2124C17.6685 28.2125 16.9269 28.5205 16.3101 29.1372C15.6931 29.7542 15.3843 30.4964 15.3843 31.3628C15.3843 32.2291 15.6932 32.9705 16.3101 33.5874C16.927 34.2043 17.6684 34.5131 18.5347 34.5132C19.4011 34.5132 20.1433 34.2044 20.7603 33.5874C21.377 32.9705 21.685 32.229 21.6851 31.3628C21.6851 31.1396 21.6658 30.916 21.6265 30.6929C21.5871 30.4698 21.5147 30.2598 21.4097 30.063L23.2612 28.2124L28.7739 33.7251H31.1372V32.938L21.4097 23.2104C21.5147 23.0136 21.5871 22.8037 21.6265 22.5806C21.6658 22.3574 21.6851 22.1338 21.6851 21.9106C21.685 21.0444 21.377 20.3029 20.7603 19.686C20.1433 19.0691 19.4011 18.7603 18.5347 18.7603ZM18.5347 29.7876C18.9679 29.7876 19.3395 29.942 19.6479 30.2505C19.9562 30.5589 20.1099 30.9298 20.1099 31.3628C20.1098 31.7958 19.9562 32.1667 19.6479 32.4751C19.3395 32.7836 18.9679 32.938 18.5347 32.938C18.1016 32.9379 17.7308 32.7835 17.4224 32.4751C17.114 32.1667 16.9595 31.7959 16.9595 31.3628C16.9595 30.9297 17.114 30.5589 17.4224 30.2505C17.7308 29.9421 18.1016 29.7877 18.5347 29.7876ZM23.2612 26.2427C23.3661 26.2428 23.458 26.2822 23.5366 26.3608C23.6154 26.4396 23.6548 26.5322 23.6548 26.6372C23.6547 26.742 23.6153 26.8339 23.5366 26.9126C23.458 26.9912 23.3661 27.0307 23.2612 27.0308C23.1562 27.0308 23.0636 26.9914 22.9849 26.9126C22.9062 26.834 22.8668 26.742 22.8667 26.6372C22.8667 26.5322 22.9061 26.4396 22.9849 26.3608C23.0636 26.2821 23.1562 26.2427 23.2612 26.2427ZM28.7739 19.5483L24.0483 24.2739L25.6235 25.8491L31.1372 20.3354V19.5483H28.7739ZM18.5347 20.3354C18.9679 20.3354 19.3395 20.4898 19.6479 20.7983C19.9562 21.1067 20.1098 21.4776 20.1099 21.9106C20.1099 22.3438 19.9564 22.7154 19.6479 23.0239C19.3395 23.3324 18.9679 23.4858 18.5347 23.4858C18.1017 23.4858 17.7307 23.3322 17.4224 23.0239C17.1139 22.7154 16.9595 22.3438 16.9595 21.9106C16.9595 21.4776 17.1139 21.1068 17.4224 20.7983C17.7308 20.4899 18.1016 20.3355 18.5347 20.3354Z" fill="black"/>
<defs>
<radialGradient id="paint0_radial_107_224" cx="0" cy="0" r="1" gradientUnits="userSpaceOnUse" gradientTransform="translate(26.6367 26.6367) rotate(89.5185) scale(30.1893)">
<stop stop-color="#E0FD35"/>
<stop offset="1" stop-color="#D3EE33"/>
</radialGradient>
</defs>
</svg>
