<svg width="54" height="54" viewBox="0 0 54 54" fill="none" xmlns="http://www.w3.org/2000/svg">
<rect width="53.2734" height="53.2734" rx="10" fill="url(#paint0_radial_107_232)"/>
<g clip-path="url(#clip0_107_232)">
<path d="M40.5315 25.7573C39.732 21.9823 37.3245 18.7645 34.0373 16.8086H37.1983C37.612 17.7954 38.6118 18.4934 39.7772 18.4934C41.3115 18.4934 42.5598 17.2842 42.5598 15.7977C42.5598 14.3114 41.3116 13.1021 39.7772 13.1021C38.6118 13.1021 37.6121 13.8 37.1983 14.7868H29.4963V13.0275H23.7771V14.7869H16.0752C15.6615 13.8001 14.6618 13.1021 13.4963 13.1021C11.962 13.1021 10.7137 14.3114 10.7137 15.7978C10.7137 17.2842 11.962 18.4935 13.4963 18.4935C14.6618 18.4935 15.6615 17.7955 16.0752 16.8087H19.2363C15.949 18.7645 13.5416 21.9823 12.7421 25.7573H10.6367V31.2978H16.356V25.7573H14.8803C15.9432 21.5173 19.4003 18.1682 23.7771 17.1385V18.568H29.4963V17.1385C33.8732 18.1681 37.3303 21.5173 38.3932 25.7574H36.9175V31.2979H42.6367V25.7573L40.5315 25.7573Z" fill="black"/>
<path d="M27.6806 22.9485V28.4351C28.3564 28.7933 28.8148 29.4882 28.8148 30.287C28.8148 31.452 27.8398 32.3965 26.6371 32.3965C25.4345 32.3965 24.4595 31.4521 24.4595 30.287C24.4595 29.4882 24.9179 28.7931 25.5936 28.4351V22.9485L19.0566 31.5294L21.2646 35.4888H32.0096L34.2176 31.5294L27.6806 22.9485Z" fill="black"/>
<path d="M31.6526 37.5104H21.6208L20.4736 40.2459H26.6367H32.7998L31.6526 37.5104Z" fill="black"/>
</g>
<defs>
<radialGradient id="paint0_radial_107_232" cx="0" cy="0" r="1" gradientUnits="userSpaceOnUse" gradientTransform="translate(26.6367 26.6367) rotate(89.5185) scale(30.1893)">
<stop stop-color="#E0FD35"/>
<stop offset="1" stop-color="#D3EE33"/>
</radialGradient>
<clipPath id="clip0_107_232">
<rect width="32" height="31" fill="white" transform="translate(10.6367 11.1367)"/>
</clipPath>
</defs>
</svg>
