<svg width="104" height="104" viewBox="0 0 104 104" fill="none" xmlns="http://www.w3.org/2000/svg">
<path d="M31.9491 22.4614H70.6853C76.5583 22.4614 81.3066 27.1923 81.3066 33.0437V70.1441C81.3066 75.9955 76.5583 80.7264 70.6853 80.7264H31.9491C26.0762 80.7264 21.3279 75.9955 21.3279 70.1441V33.0437C21.3279 27.1923 26.0762 22.4614 31.9491 22.4614Z" fill="#00005B"/>
<path d="M35.5725 63.2964V37.6499C35.5725 37.4756 35.6475 37.376 35.8224 37.376C36.2473 37.376 36.6471 37.376 37.2219 37.3511C37.8217 37.3262 38.4465 37.3262 39.1212 37.3013C39.796 37.2764 40.5208 37.2764 41.2955 37.2515C42.0702 37.2266 42.8199 37.2266 43.5697 37.2266C45.6189 37.2266 47.3183 37.4756 48.7178 37.9985C49.9674 38.4217 51.117 39.1189 52.0667 40.0402C52.8664 40.837 53.4911 41.8081 53.891 42.8788C54.2659 43.9246 54.4658 44.9952 54.4658 46.1157C54.4658 48.2571 53.966 50.025 52.9663 51.4193C51.9667 52.8137 50.5672 53.8595 48.9428 54.4571C47.2434 55.0796 45.369 55.3037 43.3198 55.3037C42.72 55.3037 42.3201 55.3037 42.0702 55.2788C41.8203 55.2539 41.4704 55.2539 40.9956 55.2539V63.2466C41.0206 63.4209 40.8956 63.5703 40.7207 63.5952H40.6207H35.8724C35.6725 63.5952 35.5725 63.4956 35.5725 63.2715V63.2964ZM41.0206 42.2065V50.5727C41.3705 50.5976 41.6953 50.6225 41.9952 50.6225H43.3198C44.2944 50.6225 45.2691 50.4731 46.1937 50.1743C46.9935 49.9503 47.6932 49.4772 48.243 48.8547C48.7678 48.2322 49.0177 47.3856 49.0177 46.29C49.0427 45.5181 48.8428 44.7462 48.4429 44.0739C48.0181 43.4266 47.4183 42.9286 46.6936 42.6547C45.7689 42.2812 44.7692 42.1318 43.7446 42.1567C43.0948 42.1567 42.52 42.1567 42.0452 42.1816C41.5454 42.1567 41.1955 42.1816 41.0206 42.2065Z" fill="#9999FF"/>
<path d="M58.0662 43.676H62.4397C62.6896 43.676 62.8895 43.8503 62.9645 44.0744C63.0395 44.2736 63.0894 44.4728 63.1144 44.6969C63.1644 44.9459 63.2144 45.2198 63.2394 45.4687C63.2644 45.7426 63.2894 46.0414 63.2894 46.3651C64.0391 45.4936 64.9388 44.7716 65.9634 44.2238C67.113 43.5764 68.4375 43.2527 69.7621 43.2527C69.937 43.2278 70.087 43.3523 70.1119 43.5266V43.6262V48.4816C70.1119 48.6808 69.987 48.7555 69.7121 48.7555C68.8124 48.7306 67.8877 48.8053 67.013 49.0045C66.2883 49.1539 65.5885 49.378 64.9138 49.6768C64.439 49.9009 63.9891 50.1997 63.6392 50.5981V63.2968C63.6392 63.5458 63.5393 63.6454 63.3144 63.6454H58.3911C58.1912 63.6703 58.0162 63.5458 57.9912 63.3466V63.247V49.4527C57.9912 48.8551 57.9913 48.2326 57.9663 47.5852C57.9413 46.9378 57.9413 46.2904 57.9163 45.643C57.9163 45.0704 57.8663 44.5226 57.8163 43.9499C57.7913 43.8254 57.8663 43.7009 57.9912 43.676C57.9912 43.6511 58.0412 43.6511 58.0662 43.676Z" fill="#9999FF"/>
</svg>
