<svg width="101" height="101" viewBox="0 0 101 101" fill="none" xmlns="http://www.w3.org/2000/svg">
<path d="M65.0508 22.5417H35.3194C28.0752 22.5417 22.2026 28.4143 22.2026 35.6585V65.3899C22.2026 72.6341 28.0752 78.5066 35.3194 78.5066H65.0508C72.295 78.5066 78.1675 72.6341 78.1675 65.3899V35.6585C78.1675 28.4143 72.295 22.5417 65.0508 22.5417Z" fill="#001E36"/>
<path d="M34.7957 61.4628V37.4679C34.7957 37.3046 34.8656 37.2114 35.0289 37.2114C35.4253 37.2114 35.7984 37.2114 36.3347 37.1881C36.8943 37.1647 37.4774 37.1647 38.107 37.1415C38.7366 37.1181 39.4128 37.1181 40.1357 37.0947C40.8584 37.0715 41.558 37.0715 42.2576 37.0715C44.1698 37.0715 45.7554 37.3046 47.0614 37.7943C48.2319 38.1919 49.2993 38.8451 50.186 39.7065C50.9372 40.4605 51.5178 41.367 51.8883 42.3648C52.2381 43.3442 52.4246 44.347 52.4246 45.3963C52.4246 47.4017 51.9582 49.0573 51.0255 50.3632C50.0927 51.669 48.7869 52.6484 47.2712 53.208C45.6854 53.791 43.9365 54.0009 42.0245 54.0009C41.4649 54.0009 41.0917 54.0009 40.8584 53.9775C40.6252 53.9541 40.2988 53.9541 39.8559 53.9541V61.4394C39.8791 61.6027 39.7625 61.7427 39.5992 61.766H35.0755C34.889 61.766 34.7957 61.6727 34.7957 61.4628ZM39.8791 41.7118V49.5469C40.2057 49.5703 40.5087 49.5937 40.7885 49.5937H42.0245C42.934 49.5937 43.8434 49.4538 44.706 49.1739C45.4524 48.9641 46.1052 48.5209 46.6182 47.9379C47.1079 47.3551 47.3412 46.5622 47.3412 45.5362C47.3631 44.8075 47.177 44.0876 46.8047 43.4607C46.4084 42.8545 45.8487 42.3882 45.1726 42.1315C44.3097 41.7818 43.3769 41.6419 42.4209 41.6652C41.8147 41.6652 41.2782 41.6652 40.8353 41.6886C40.3688 41.6652 40.0424 41.6886 39.8791 41.7118ZM66.9755 48.1246C66.2759 47.7514 65.5298 47.495 64.7369 47.3317C63.874 47.1452 63.0114 47.0285 62.1251 47.0285C61.6588 47.0053 61.1691 47.0753 60.726 47.1918C60.423 47.2617 60.1663 47.425 60.0033 47.6581C59.8865 47.8448 59.8166 48.0778 59.8166 48.2877C59.8166 48.4976 59.9099 48.7074 60.0498 48.8941C60.2597 49.1505 60.5395 49.3604 60.8427 49.5237C61.3834 49.8036 61.9357 50.0604 62.4983 50.2932C63.7575 50.713 64.9701 51.2958 66.0894 51.9954C66.859 52.4851 67.4886 53.138 67.9315 53.931C68.3046 54.6771 68.4911 55.4932 68.4679 56.3326C68.4911 57.4288 68.1647 58.5247 67.5585 59.4341C66.9081 60.3649 66.0005 61.0861 64.9467 61.5094C63.8041 61.9991 62.4049 62.2557 60.726 62.2557C59.6535 62.2557 58.6041 62.1624 57.5548 61.9525C56.7323 61.8105 55.9325 61.5596 55.1763 61.2064C55.013 61.113 54.8965 60.9497 54.9196 60.7633V56.7058C54.9196 56.6359 54.943 56.5425 55.013 56.4959C55.0829 56.4494 55.1529 56.4725 55.2228 56.5193C56.1323 57.0556 57.0883 57.4288 58.1144 57.6618C59.0005 57.8951 59.9333 58.0116 60.8659 58.0116C61.7522 58.0116 62.3818 57.8951 62.8015 57.6852C63.1744 57.5219 63.4311 57.1255 63.4311 56.7058C63.4311 56.3794 63.2444 56.0762 62.8715 55.773C62.4983 55.47 61.7288 55.1202 60.5861 54.6771C59.414 54.2639 58.3009 53.6995 57.275 52.9981C56.5442 52.4774 55.9387 51.8003 55.5027 51.016C55.1295 50.2698 54.943 49.4538 54.9664 48.6375C54.9664 47.6349 55.2462 46.6787 55.7591 45.816C56.3421 44.8832 57.205 44.1371 58.2076 43.6706C59.3037 43.1109 60.6794 42.8545 62.335 42.8545C63.2912 42.8545 64.2706 42.9245 65.2266 43.0644C65.9261 43.1577 66.6023 43.3442 67.2319 43.6006C67.3253 43.624 67.4186 43.7174 67.4652 43.8105C67.4886 43.9038 67.5117 43.9972 67.5117 44.0903V47.8913C67.5117 47.9847 67.4652 48.0778 67.3952 48.1246C67.1853 48.1712 67.0688 48.1712 66.9755 48.1246Z" fill="#31A8FF"/>
</svg>
