<svg width="184" height="184" viewBox="0 0 184 184" fill="none" xmlns="http://www.w3.org/2000/svg">
<rect y="13.3835" width="170.887" height="170.887" rx="48" transform="rotate(-4.49189 0 13.3835)" fill="#CDFA03"/>
<path d="M60.8284 44.3299L66.9528 37.2475L110.065 74.2937C111.992 75.9498 113.06 78.1056 113.269 80.7612C113.478 83.4168 112.759 85.7129 111.114 87.6497L90.7304 111.648C89.0854 113.585 86.9426 114.657 84.3022 114.865C81.6618 115.072 79.378 114.348 77.4507 112.692L53.5692 92.1704C51.642 90.5143 50.574 88.3584 50.3654 85.7029C50.1568 83.0473 50.875 80.7511 52.52 78.8144L72.8948 54.6985L60.8284 44.3299ZM80.0593 60.8549L59.568 84.9799L104.066 81.4842L80.0593 60.8549ZM119.532 110.506C117.563 108.813 116.477 106.679 116.275 104.101C116.146 102.461 116.493 100.666 117.317 98.7147C118.14 96.764 119.07 94.9227 120.106 93.191C120.731 92.1988 121.392 91.1645 122.089 90.0882C122.786 89.0118 123.525 87.9714 124.305 86.9671C125.233 87.8372 126.125 88.7495 126.982 89.7038C127.838 90.6582 128.652 91.5765 129.425 92.4589C130.719 94.0076 131.925 95.6811 133.043 97.4793C134.161 99.2776 134.784 100.997 134.913 102.637C135.115 105.215 134.376 107.493 132.695 109.472C131.015 111.45 128.893 112.54 126.33 112.742C123.767 112.943 121.501 112.198 119.532 110.506ZM49.6951 151.769L48.2225 133.024L141.413 125.703L142.886 144.448L49.6951 151.769Z" fill="black"/>
</svg>
