<svg width="165" height="165" viewBox="0 0 165 165" fill="none" xmlns="http://www.w3.org/2000/svg">
<rect x="26.3708" width="140.787" height="140.787" rx="35.9129" transform="rotate(10.7958 26.3708 0)" fill="#CDFA03"/>
<path d="M104.928 52.7372C107.177 53.1661 108.95 54.3338 110.246 56.2406C111.542 58.1476 111.976 60.2266 111.547 62.4756L108.038 80.8775L127.515 67.639L118.938 112.621L105.699 93.1457L102.19 111.547C101.761 113.796 100.593 115.569 98.6857 116.865C96.7787 118.161 94.7007 118.596 92.4517 118.167L43.3798 108.809C41.1307 108.381 39.3575 107.212 38.0612 105.305C36.7652 103.398 36.3318 101.32 36.7606 99.0711L46.1178 49.9992C46.5467 47.7502 47.7144 45.9767 49.6214 44.6805C51.5284 43.3844 53.6072 42.9511 55.8562 43.38L104.928 52.7372ZM65.1982 57.8746C62.9493 57.4459 60.8712 57.8793 58.9643 59.1753C57.0573 60.4716 55.8896 62.2449 55.4607 64.4941C55.0319 66.7431 55.4653 68.8209 56.7614 70.7279C58.0576 72.6349 59.8301 73.8033 62.079 74.2323C62.6583 74.3427 63.2477 74.402 63.8465 74.4102C64.4452 74.4185 65.0262 74.335 65.5893 74.16L69.478 79.8812L63.7568 83.77C63.2976 83.3999 62.7884 83.1077 62.2286 82.895C61.6688 82.6824 61.0987 82.5215 60.5194 82.4111C58.2705 81.9823 56.1926 82.4156 54.2856 83.7117C52.3787 85.0079 51.2112 86.7806 50.7822 89.0295C50.3533 91.2787 50.7865 93.3572 52.0827 95.2643C53.3789 97.1712 55.1516 98.3388 57.4005 98.7677C59.6496 99.1966 61.7282 98.7635 63.6353 97.4672C65.5423 96.171 66.71 94.3976 67.1389 92.1485C67.2493 91.5694 67.3084 90.9806 67.3166 90.382C67.3249 89.7832 67.2415 89.2023 67.0664 88.6392L72.7877 84.7504L84.3719 101.792L90.5055 102.962L90.8955 100.917L70.4585 70.8503C70.8284 70.3913 71.1198 69.8816 71.3325 69.322C71.5451 68.7622 71.7069 68.1923 71.8174 67.613C72.2463 65.3639 71.8132 63.2853 70.5169 61.3782C69.2207 59.4712 67.4473 58.3035 65.1982 57.8746ZM59.7397 86.5005C60.8642 86.7149 61.7509 87.2987 62.399 88.2523C63.047 89.2056 63.2638 90.2443 63.0495 91.3687C62.835 92.4933 62.2512 93.3799 61.2977 94.0281C60.3441 94.6762 59.3048 94.8927 58.1803 94.6783C57.0559 94.4638 56.1699 93.8801 55.5219 92.9267C54.8737 91.9732 54.6562 90.9337 54.8707 89.8091C55.0852 88.6848 55.6698 87.7989 56.6232 87.1509C57.5766 86.5029 58.6152 86.2861 59.7397 86.5005ZM73.7624 79.6384C74.0351 79.6904 74.254 79.8384 74.4195 80.0819C74.585 80.3253 74.642 80.5834 74.59 80.856C74.538 81.1285 74.39 81.3477 74.1466 81.5131C73.9032 81.6784 73.6451 81.7346 73.3726 81.6826C73.1001 81.6306 72.8808 81.4835 72.7154 81.2402C72.55 80.9968 72.493 80.7385 72.5449 80.466C72.5968 80.1935 72.745 79.9744 72.9883 79.8089C73.2317 79.6435 73.4899 79.5865 73.7624 79.6384ZM98.6866 85.4538L98.69 85.4515L98.6877 85.4481L98.6866 85.4538ZM91.39 64.9876L76.7824 74.9164L80.092 79.7856L97.1336 68.2023L97.5236 66.1572L91.39 64.9876ZM64.4184 61.964C65.5429 62.1785 66.4296 62.7624 67.0778 63.7158C67.7259 64.6694 67.9424 65.7087 67.728 66.8332C67.5135 67.9577 66.9297 68.8445 65.9762 69.4926C65.0228 70.1406 63.9832 70.3573 62.8588 70.1429C61.7346 69.9284 60.8484 69.3444 60.2004 68.3912C59.5523 67.4378 59.3348 66.3982 59.5492 65.2737C59.7636 64.1491 60.3484 63.2626 61.3019 62.6145C62.2553 61.9665 63.2941 61.7497 64.4184 61.964Z" fill="black"/>
</svg>
