<svg width="300" height="373" viewBox="0 0 300 373" fill="none" xmlns="http://www.w3.org/2000/svg">
<rect x="-73" y="59.85" width="318.757" height="318.757" rx="82" transform="rotate(-10.8221 -73 59.85)" fill="#CDFA03"/>
<g clip-path="url(#clip0_241_996)">
<path d="M195.433 165.356C186.349 143.727 168.301 127.26 146.439 119.334L165.315 115.726C168.911 121.146 175.678 124.173 182.637 122.842C191.799 121.091 197.872 112.445 196.176 103.569C194.479 94.6939 185.645 88.8977 176.483 90.6492C169.524 91.9795 164.351 97.2884 163.007 103.653L117.016 112.445L115.008 101.939L80.8571 108.467L82.8654 118.973L36.8756 127.765C33.2789 122.345 26.5125 119.318 19.5533 120.648C10.3916 122.4 4.31789 131.045 6.0146 139.921C7.71123 148.797 16.5452 154.593 25.7074 152.841C32.6665 151.511 37.8391 146.202 39.1834 139.837L58.0592 136.229C40.6624 151.66 29.96 173.623 29.495 197.077L16.9233 199.48L23.2476 232.564L57.3987 226.035L51.0744 192.952L42.263 194.636C43.7695 168.104 60.59 144.16 85.5496 133.015L87.1815 141.552L121.333 135.023L119.701 126.487C147.011 127.639 171.477 143.692 182.664 167.797L173.852 169.482L180.177 202.565L214.328 196.037L208.003 162.953L195.433 165.356Z" fill="black"/>
<path d="M115.491 163.253L121.754 196.015C126.197 197.382 129.728 201.008 130.639 205.778C131.969 212.735 127.226 219.487 120.044 220.86C112.863 222.233 105.963 217.706 104.633 210.749C103.721 205.979 105.665 201.306 109.292 198.397L103.029 165.635L73.7894 224.335L91.4935 245.458L155.655 233.193L164.32 207.029L115.491 163.253Z" fill="black"/>
<path d="M155.833 245.675L95.9307 257.126L92.2031 274.769L129.004 267.735L165.805 260.7L155.833 245.675Z" fill="black"/>
</g>
<defs>
<clipPath id="clip0_241_996">
<rect width="194.54" height="188.461" fill="white" transform="translate(0.235962 112.178) rotate(-10.8221)"/>
</clipPath>
</defs>
</svg>
