<svg width="1502" height="634" viewBox="0 0 1502 634" fill="none" xmlns="http://www.w3.org/2000/svg">
<path opacity="0.92" d="M99.1557 633.589H80.6691C26.8896 633.589 -0.000108843 608.38 -0.000108843 557.962V363.011H80.6691V552.08C80.6691 561.323 83.19 565.524 89.0721 565.524C94.9542 565.524 98.3154 561.323 98.3154 552.08V389.901C98.3154 373.095 96.6348 367.213 84.0303 354.608L39.4942 310.912C12.6044 284.863 2.5208 258.814 2.5208 219.319V77.3079C2.5208 30.2509 24.3687 -3.91389e-05 84.0303 -3.91389e-05H102.517C162.179 -3.91389e-05 179.825 30.2509 179.825 70.5855V238.646H101.677V73.9467C101.677 67.2242 99.1557 63.863 93.2736 63.863C87.3915 63.863 84.8706 67.2242 84.8706 73.9467V215.958C84.8706 231.924 87.3915 236.966 97.4751 247.89L141.171 291.585C172.262 320.996 183.186 342.844 183.186 386.54V547.878C183.186 601.657 156.296 633.589 99.1557 633.589ZM195.344 629.387V4.20148H277.694V259.654H294.5V4.20148H376.01V629.387H294.5V344.524H277.694V629.387H195.344ZM575.536 94.9543V540.315C575.536 600.817 543.604 633.589 488.984 633.589H477.22C420.08 633.589 389.829 599.977 389.829 540.315V94.9543C389.829 35.2927 416.718 -3.91389e-05 477.22 -3.91389e-05H488.984C549.486 -3.91389e-05 575.536 36.9733 575.536 94.9543ZM492.346 547.038V86.5512C492.346 77.3079 488.984 72.2661 483.102 72.2661C477.22 72.2661 473.859 77.3079 473.859 86.5512V547.038C473.859 556.281 477.22 560.483 483.102 560.483C488.984 560.483 492.346 556.281 492.346 547.038ZM715.322 629.387H619.527L580.873 4.20148H665.744L674.147 441.159L689.272 4.20148H765.74L780.865 431.916L790.109 4.20148H869.097L830.443 629.387H737.169L726.246 260.494L715.322 629.387ZM957.979 67.2242V271.418H963.861C969.743 271.418 973.104 268.057 973.104 260.494V78.1482C973.104 70.5855 972.264 67.2242 964.701 67.2242H957.979ZM957.979 342.004V629.387H875.629V4.20148H1003.36C1032.77 4.20148 1053.77 22.6881 1053.77 62.1824V242.848C1053.77 275.62 1037.81 289.064 1025.2 294.947C1038.65 300.829 1055.45 314.274 1055.45 340.323V606.699C1055.45 615.943 1056.29 621.825 1058.82 627.707V629.387H978.987C974.785 625.186 973.104 618.464 973.104 609.22V352.928C973.104 347.045 973.104 342.004 963.861 342.004H957.979ZM1069.29 4.20148H1206.26V78.9885H1149.96V261.334H1198.7V338.642H1149.96V553.76H1207.94V629.387H1069.29V4.20148ZM1219.46 4.20148H1356.43V78.9885H1300.13V261.334H1348.87V338.642H1300.13V553.76H1358.11V629.387H1219.46V4.20148ZM1369.64 4.20148H1450.3L1451.15 552.92H1501.56V629.387H1369.64V4.20148Z" fill="#CDFA03"/>
</svg>
