<svg width="590" height="572" viewBox="0 0 590 572" fill="none" xmlns="http://www.w3.org/2000/svg">
<rect width="590" height="572" rx="25" fill="white"/>
<path d="M487 174.5L294.5 35L77 161.5L103.5 398L294.5 536.5L461.5 382.5L487 174.5Z" fill="#E5FE4F" stroke="#3C4600" stroke-width="2"/>
<path d="M511.306 160.327V410.672L294.5 535.845L77.6943 410.672V160.327L294.5 35.1543L511.306 160.327Z" stroke="black" stroke-width="2"/>
<path d="M461.076 189.327V381.672L294.5 477.845L127.924 381.672V189.327L294.5 93.1543L461.076 189.327Z" stroke="black" stroke-width="2"/>
<path d="M487.057 174.327V396.672L294.5 507.845L101.943 396.672V174.327L294.5 63.1543L487.057 174.327Z" stroke="black" stroke-width="2"/>
<path d="M439.426 201.827V369.172L294.5 452.845L149.575 369.172V201.827L294.5 118.154L439.426 201.827Z" stroke="black" stroke-width="2"/>
<path d="M390.928 229.827V341.172L294.5 396.845L198.072 341.172V229.827L294.5 174.154L390.928 229.827Z" stroke="black" stroke-width="2"/>
<path d="M348.492 254.327V316.672L294.5 347.845L240.508 316.672V254.327L294.5 223.154L348.492 254.327Z" stroke="black" stroke-width="2"/>
<path d="M414.311 216.327V354.672L294.5 423.845L174.689 354.672V216.327L294.5 147.154L414.311 216.327Z" stroke="black" stroke-width="2"/>
<path d="M367.545 243.327V327.672L294.5 369.845L221.455 327.672V243.327L294.5 201.154L367.545 243.327Z" stroke="black" stroke-width="2"/>
<path d="M327.708 266.327V304.672L294.5 323.845L261.292 304.672V266.327L294.5 247.154L327.708 266.327Z" stroke="black" stroke-width="2"/>
<circle cx="294.5" cy="34.5" r="5.5" fill="#E0FD35" stroke="black" stroke-width="2"/>
<circle cx="77.5" cy="161.5" r="5.5" fill="#E0FD35" stroke="black" stroke-width="2"/>
<circle cx="102.5" cy="397.5" r="5.5" fill="#E0FD35" stroke="black" stroke-width="2"/>
<circle cx="294.5" cy="534.5" r="5.5" fill="#E0FD35" stroke="black" stroke-width="2"/>
<circle cx="462.5" cy="381.5" r="5.5" fill="#E0FD35" stroke="black" stroke-width="2"/>
<circle cx="486.5" cy="174.5" r="5.5" fill="#E0FD35" stroke="black" stroke-width="2"/>
<rect x="282.5" y="46.5" width="174" height="30" rx="9.5" fill="white"/>
<rect x="282.5" y="46.5" width="174" height="30" rx="9.5" stroke="black"/>
<path d="M311.5 66C311.083 66 310.729 65.8542 310.438 65.5625C310.146 65.2708 310 64.9167 310 64.5V62C310 61.5833 310.146 61.2292 310.438 60.9375C310.729 60.6458 311.083 60.5 311.5 60.5C311.917 60.5 312.271 60.6458 312.562 60.9375C312.854 61.2292 313 61.5833 313 62V64.5C313 64.9167 312.854 65.2708 312.562 65.5625C312.271 65.8542 311.917 66 311.5 66ZM311 69.5V67.95C310.15 67.8167 309.438 67.4292 308.863 66.7875C308.288 66.1458 308 65.3833 308 64.5H309C309 65.2 309.242 65.7917 309.725 66.275C310.208 66.7583 310.8 67 311.5 67C312.2 67 312.792 66.7583 313.275 66.275C313.758 65.7917 314 65.2 314 64.5H315C315 65.3833 314.712 66.1458 314.138 66.7875C313.562 67.4292 312.85 67.8167 312 67.95V69.5H311ZM300 61.5C298.9 61.5 297.958 61.1083 297.175 60.325C296.392 59.5417 296 58.6 296 57.5C296 56.4 296.392 55.4583 297.175 54.675C297.958 53.8917 298.9 53.5 300 53.5C300.233 53.5 300.463 53.5167 300.688 53.55C300.913 53.5833 301.133 53.6417 301.35 53.725C300.917 54.2417 300.583 54.8208 300.35 55.4625C300.117 56.1042 300 56.7833 300 57.5C300 58.2167 300.117 58.8958 300.35 59.5375C300.583 60.1792 300.917 60.7583 301.35 61.275C301.133 61.3583 300.913 61.4167 300.688 61.45C300.463 61.4833 300.233 61.5 300 61.5ZM292 69.5V66.725C292 66.1583 292.142 65.6333 292.425 65.15C292.708 64.6667 293.1 64.3 293.6 64.05C294.233 63.7167 294.921 63.4292 295.663 63.1875C296.404 62.9458 297.217 62.7583 298.1 62.625C297.433 63.0917 296.917 63.6833 296.55 64.4C296.183 65.1167 296 65.8917 296 66.725V69.5H292ZM306 61.5C304.9 61.5 303.958 61.1083 303.175 60.325C302.392 59.5417 302 58.6 302 57.5C302 56.4 302.392 55.4583 303.175 54.675C303.958 53.8917 304.9 53.5 306 53.5C307.1 53.5 308.042 53.8917 308.825 54.675C309.608 55.4583 310 56.4 310 57.5C310 58.6 309.608 59.5417 308.825 60.325C308.042 61.1083 307.1 61.5 306 61.5ZM298 69.5V66.725C298 66.1583 298.142 65.6333 298.425 65.15C298.708 64.6667 299.1 64.3 299.6 64.05C300.45 63.6167 301.413 63.25 302.488 62.95C303.562 62.65 304.733 62.5 306 62.5C306.2 62.5 306.396 62.5042 306.588 62.5125C306.779 62.5208 306.967 62.5333 307.15 62.55C306.45 63.8167 306.317 65.1333 306.75 66.5C307.183 67.8667 308.042 68.8667 309.325 69.5H298Z" fill="#A8C400"/>
<path d="M320.844 67V55.3594H325.312C326.151 55.3594 326.849 55.4922 327.406 55.7578C327.964 56.0182 328.38 56.3776 328.656 56.8359C328.932 57.2891 329.07 57.8021 329.07 58.375C329.07 58.849 328.979 59.2552 328.797 59.5938C328.62 59.9271 328.378 60.1979 328.07 60.4062C327.763 60.6146 327.419 60.7656 327.039 60.8594V60.9766C327.456 60.9922 327.852 61.1172 328.227 61.3516C328.607 61.5807 328.917 61.9036 329.156 62.3203C329.401 62.737 329.523 63.2396 329.523 63.8281C329.523 64.4323 329.378 64.974 329.086 65.4531C328.799 65.9271 328.362 66.3047 327.773 66.5859C327.19 66.862 326.453 67 325.562 67H320.844ZM322.953 65.2422H325.219C325.984 65.2422 326.536 65.0938 326.875 64.7969C327.219 64.5 327.391 64.1224 327.391 63.6641C327.391 63.3151 327.305 63.0026 327.133 62.7266C326.961 62.4505 326.716 62.2318 326.398 62.0703C326.086 61.9089 325.716 61.8281 325.289 61.8281H322.953V65.2422ZM322.953 60.3125H325.047C325.406 60.3125 325.732 60.2448 326.023 60.1094C326.315 59.974 326.544 59.7839 326.711 59.5391C326.883 59.2891 326.969 58.9948 326.969 58.6562C326.969 58.2083 326.81 57.8385 326.492 57.5469C326.174 57.25 325.708 57.1016 325.094 57.1016H322.953V60.3125ZM330.5 64.6016H332.531C332.557 64.9297 332.706 65.1849 332.977 65.3672C333.247 65.5443 333.602 65.6328 334.039 65.6328C334.482 65.6328 334.854 65.5365 335.156 65.3438C335.464 65.1458 335.617 64.8464 335.617 64.4453C335.617 64.2057 335.557 63.9974 335.438 63.8203C335.323 63.6432 335.159 63.5052 334.945 63.4062C334.732 63.3073 334.484 63.2578 334.203 63.2578H332.859V61.7969H334.203C334.625 61.7969 334.945 61.7005 335.164 61.5078C335.388 61.3099 335.5 61.0625 335.5 60.7656C335.5 60.4375 335.383 60.1745 335.148 59.9766C334.919 59.7786 334.599 59.6797 334.188 59.6797C333.781 59.6797 333.443 59.7708 333.172 59.9531C332.901 60.1354 332.758 60.3724 332.742 60.6641H330.719C330.729 60.1589 330.88 59.7188 331.172 59.3438C331.469 58.9635 331.87 58.6719 332.375 58.4688C332.885 58.2604 333.458 58.1562 334.094 58.1562C334.776 58.1562 335.365 58.2578 335.859 58.4609C336.354 58.6641 336.737 58.9505 337.008 59.3203C337.279 59.6849 337.411 60.1146 337.406 60.6094C337.411 61.0833 337.266 61.474 336.969 61.7812C336.672 62.0885 336.271 62.3099 335.766 62.4453V62.5312C336.115 62.5521 336.427 62.651 336.703 62.8281C336.984 63.0052 337.206 63.2422 337.367 63.5391C337.529 63.8359 337.609 64.1823 337.609 64.5781C337.609 65.1146 337.456 65.5781 337.148 65.9688C336.846 66.3542 336.427 66.651 335.891 66.8594C335.354 67.0677 334.74 67.1719 334.047 67.1719C333.375 67.1719 332.773 67.0703 332.242 66.8672C331.716 66.6641 331.297 66.3724 330.984 65.9922C330.677 65.6068 330.516 65.1432 330.5 64.6016ZM340.852 67.1797C340.294 67.1797 339.794 67.0807 339.352 66.8828C338.909 66.6797 338.56 66.3828 338.305 65.9922C338.049 65.6016 337.922 65.1198 337.922 64.5469C337.922 64.0573 338.013 63.651 338.195 63.3281C338.378 63.0052 338.625 62.7474 338.938 62.5547C339.255 62.362 339.612 62.2161 340.008 62.1172C340.404 62.013 340.812 61.9401 341.234 61.8984C341.75 61.8411 342.167 61.7917 342.484 61.75C342.802 61.7083 343.031 61.6406 343.172 61.5469C343.318 61.4531 343.391 61.3073 343.391 61.1094V61.0703C343.391 60.6484 343.266 60.3203 343.016 60.0859C342.766 59.8516 342.401 59.7344 341.922 59.7344C341.417 59.7344 341.016 59.8438 340.719 60.0625C340.427 60.2812 340.229 60.5391 340.125 60.8359L338.211 60.5625C338.362 60.0312 338.612 59.5885 338.961 59.2344C339.31 58.875 339.734 58.6068 340.234 58.4297C340.74 58.2474 341.297 58.1562 341.906 58.1562C342.323 58.1562 342.74 58.2057 343.156 58.3047C343.573 58.3984 343.956 58.5599 344.305 58.7891C344.654 59.0182 344.932 59.3255 345.141 59.7109C345.349 60.0964 345.453 60.5781 345.453 61.1562V67H343.477V65.7969H343.414C343.289 66.0365 343.112 66.263 342.883 66.4766C342.659 66.6849 342.378 66.8542 342.039 66.9844C341.706 67.1146 341.31 67.1797 340.852 67.1797ZM341.375 65.6641C341.792 65.6641 342.151 65.5833 342.453 65.4219C342.755 65.2552 342.99 65.0365 343.156 64.7656C343.323 64.4896 343.406 64.1901 343.406 63.8672V62.8438C343.339 62.8958 343.229 62.9453 343.078 62.9922C342.927 63.0339 342.755 63.0729 342.562 63.1094C342.37 63.1458 342.18 63.1771 341.992 63.2031C341.81 63.2292 341.651 63.25 341.516 63.2656C341.208 63.3073 340.932 63.3776 340.688 63.4766C340.448 63.5703 340.258 63.7005 340.117 63.8672C339.977 64.0339 339.906 64.25 339.906 64.5156C339.906 64.8958 340.044 65.1823 340.32 65.375C340.596 65.5677 340.948 65.6641 341.375 65.6641ZM348.953 64.2109L352.453 58.2656H354.562V67H352.586V61.0469L349.094 67H346.977V58.2656H348.953V64.2109ZM361.109 64.6094L363.703 58.2656H365.352L361.828 67H360.391L356.938 58.2656H358.586L361.109 64.6094ZM358.062 58.2656V67H356.086V58.2656H358.062ZM364.234 67V58.2656H366.195V67H364.234ZM371.516 67.1719C370.661 67.1719 369.922 66.9844 369.297 66.6094C368.672 66.2344 368.188 65.7083 367.844 65.0312C367.505 64.3542 367.336 63.5677 367.336 62.6719C367.336 61.7708 367.505 60.9818 367.844 60.3047C368.188 59.6224 368.672 59.0938 369.297 58.7188C369.922 58.3438 370.661 58.1562 371.516 58.1562C372.37 58.1562 373.109 58.3438 373.734 58.7188C374.359 59.0938 374.844 59.6224 375.188 60.3047C375.531 60.9818 375.703 61.7708 375.703 62.6719C375.703 63.5677 375.531 64.3542 375.188 65.0312C374.844 65.7083 374.359 66.2344 373.734 66.6094C373.109 66.9844 372.37 67.1719 371.516 67.1719ZM371.516 65.5156C371.99 65.5156 372.38 65.3906 372.688 65.1406C372.995 64.8854 373.224 64.5417 373.375 64.1094C373.531 63.6771 373.609 63.1979 373.609 62.6719C373.609 62.1354 373.531 61.651 373.375 61.2188C373.224 60.7865 372.995 60.4453 372.688 60.1953C372.38 59.9401 371.99 59.8125 371.516 59.8125C371.052 59.8125 370.664 59.9401 370.352 60.1953C370.039 60.4453 369.805 60.7865 369.648 61.2188C369.497 61.651 369.422 62.1354 369.422 62.6719C369.422 63.1979 369.497 63.6771 369.648 64.1094C369.805 64.5417 370.039 64.8854 370.352 65.1406C370.664 65.3906 371.052 65.5156 371.516 65.5156ZM376.062 69.5391V65.3047H376.75C376.938 65.1641 377.094 64.9714 377.219 64.7266C377.344 64.4766 377.445 64.1823 377.523 63.8438C377.607 63.5 377.674 63.1172 377.727 62.6953C377.784 62.2734 377.833 61.8203 377.875 61.3359L378.125 58.2656H384.438V65.3047H385.781V69.5391H383.797V67H378.086V69.5391H376.062ZM378.867 65.3047H382.469V59.9297H379.914L379.773 61.3359C379.701 62.2578 379.599 63.0495 379.469 63.7109C379.344 64.3672 379.143 64.8984 378.867 65.3047ZM390.594 67.1719C389.719 67.1719 388.964 66.9896 388.328 66.625C387.693 66.2552 387.203 65.7344 386.859 65.0625C386.521 64.3906 386.352 63.599 386.352 62.6875C386.352 61.7865 386.521 60.9974 386.859 60.3203C387.198 59.638 387.674 59.1068 388.289 58.7266C388.904 58.3464 389.628 58.1562 390.461 58.1562C390.997 58.1562 391.505 58.2422 391.984 58.4141C392.469 58.5859 392.896 58.8516 393.266 59.2109C393.641 59.5703 393.935 60.0286 394.148 60.5859C394.362 61.138 394.469 61.7969 394.469 62.5625V63.2031H387.312V61.8203H393.445L392.484 62.2266C392.484 61.7318 392.409 61.3021 392.258 60.9375C392.107 60.5677 391.883 60.2786 391.586 60.0703C391.289 59.862 390.919 59.7578 390.477 59.7578C390.034 59.7578 389.656 59.862 389.344 60.0703C389.031 60.2786 388.794 60.5599 388.633 60.9141C388.471 61.263 388.391 61.6536 388.391 62.0859V63.0469C388.391 63.5781 388.482 64.0339 388.664 64.4141C388.852 64.7891 389.112 65.0755 389.445 65.2734C389.784 65.4714 390.177 65.5703 390.625 65.5703C390.917 65.5703 391.182 65.5286 391.422 65.4453C391.667 65.362 391.875 65.237 392.047 65.0703C392.224 64.8984 392.359 64.6875 392.453 64.4375L394.375 64.6641C394.25 65.1693 394.018 65.612 393.68 65.9922C393.346 66.3672 392.917 66.6589 392.391 66.8672C391.87 67.0703 391.271 67.1719 390.594 67.1719ZM397.562 64.2109L401.062 58.2656H403.172V67H401.195V61.0469L397.703 67H395.586V58.2656H397.562V64.2109ZM399.367 57.2656C398.581 57.2656 397.94 57.0547 397.445 56.6328C396.956 56.2109 396.711 55.6589 396.711 54.9766H398.25C398.25 55.3047 398.352 55.5703 398.555 55.7734C398.758 55.9714 399.029 56.0703 399.367 56.0703C399.706 56.0703 399.977 55.9714 400.18 55.7734C400.383 55.5703 400.484 55.3047 400.484 54.9766H402.031C402.031 55.6589 401.784 56.2109 401.289 56.6328C400.799 57.0547 400.159 57.2656 399.367 57.2656ZM408.5 67.1719C407.63 67.1719 406.883 66.9818 406.258 66.6016C405.633 66.2161 405.154 65.6849 404.82 65.0078C404.487 64.3307 404.32 63.5521 404.32 62.6719C404.32 61.7812 404.49 60.9974 404.828 60.3203C405.167 59.6432 405.648 59.1146 406.273 58.7344C406.898 58.349 407.635 58.1562 408.484 58.1562C409.198 58.1562 409.828 58.2865 410.375 58.5469C410.922 58.8073 411.357 59.1745 411.68 59.6484C412.008 60.1172 412.195 60.6667 412.242 61.2969H410.273C410.221 61.0156 410.12 60.763 409.969 60.5391C409.818 60.3151 409.62 60.138 409.375 60.0078C409.135 59.8776 408.849 59.8125 408.516 59.8125C408.094 59.8125 407.724 59.9271 407.406 60.1562C407.094 60.3802 406.849 60.7031 406.672 61.125C406.495 61.5469 406.406 62.0521 406.406 62.6406C406.406 63.2344 406.492 63.7474 406.664 64.1797C406.836 64.6068 407.081 64.9375 407.398 65.1719C407.716 65.401 408.089 65.5156 408.516 65.5156C408.969 65.5156 409.352 65.3828 409.664 65.1172C409.982 64.8516 410.185 64.4844 410.273 64.0156H412.242C412.195 64.6354 412.013 65.1823 411.695 65.6562C411.378 66.1302 410.948 66.5026 410.406 66.7734C409.865 67.0391 409.229 67.1719 408.5 67.1719ZM412.391 59.9531V58.2656H420.023V59.9531H417.203V67H415.211V59.9531H412.391ZM421.07 67V58.2656H424.734C425.766 58.2708 426.581 58.4818 427.18 58.8984C427.784 59.3099 428.086 59.8828 428.086 60.6172C428.086 61.112 427.917 61.513 427.578 61.8203C427.24 62.1224 426.781 62.3281 426.203 62.4375C426.656 62.474 427.055 62.5911 427.398 62.7891C427.747 62.9818 428.021 63.2344 428.219 63.5469C428.417 63.8594 428.516 64.2214 428.516 64.6328C428.516 65.112 428.388 65.5312 428.133 65.8906C427.883 66.2448 427.518 66.5182 427.039 66.7109C426.565 66.9036 425.984 67 425.297 67H421.07ZM422.992 65.375H425.297C425.677 65.3802 425.974 65.2943 426.188 65.1172C426.406 64.9349 426.513 64.6875 426.508 64.375C426.513 64.0156 426.406 63.7344 426.188 63.5312C425.974 63.3229 425.677 63.2188 425.297 63.2188H422.992V65.375ZM422.992 61.8906H424.773C425.19 61.8854 425.518 61.7943 425.758 61.6172C425.997 61.4401 426.117 61.1979 426.117 60.8906C426.117 60.5833 425.995 60.3464 425.75 60.1797C425.505 60.0078 425.167 59.9219 424.734 59.9219H422.992V61.8906ZM431.594 64.2109L435.094 58.2656H437.203V67H435.227V61.0469L431.734 67H429.617V58.2656H431.594V64.2109ZM442.594 67.1719C441.719 67.1719 440.964 66.9896 440.328 66.625C439.693 66.2552 439.203 65.7344 438.859 65.0625C438.521 64.3906 438.352 63.599 438.352 62.6875C438.352 61.7865 438.521 60.9974 438.859 60.3203C439.198 59.638 439.674 59.1068 440.289 58.7266C440.904 58.3464 441.628 58.1562 442.461 58.1562C442.997 58.1562 443.505 58.2422 443.984 58.4141C444.469 58.5859 444.896 58.8516 445.266 59.2109C445.641 59.5703 445.935 60.0286 446.148 60.5859C446.362 61.138 446.469 61.7969 446.469 62.5625V63.2031H439.312V61.8203H445.445L444.484 62.2266C444.484 61.7318 444.409 61.3021 444.258 60.9375C444.107 60.5677 443.883 60.2786 443.586 60.0703C443.289 59.862 442.919 59.7578 442.477 59.7578C442.034 59.7578 441.656 59.862 441.344 60.0703C441.031 60.2786 440.794 60.5599 440.633 60.9141C440.471 61.263 440.391 61.6536 440.391 62.0859V63.0469C440.391 63.5781 440.482 64.0339 440.664 64.4141C440.852 64.7891 441.112 65.0755 441.445 65.2734C441.784 65.4714 442.177 65.5703 442.625 65.5703C442.917 65.5703 443.182 65.5286 443.422 65.4453C443.667 65.362 443.875 65.237 444.047 65.0703C444.224 64.8984 444.359 64.6875 444.453 64.4375L446.375 64.6641C446.25 65.1693 446.018 65.612 445.68 65.9922C445.346 66.3672 444.917 66.6589 444.391 66.8672C443.87 67.0703 443.271 67.1719 442.594 67.1719Z" fill="black"/>
<path d="M53 114.5H157C162.247 114.5 166.5 118.753 166.5 124V135C166.5 140.247 162.247 144.5 157 144.5H53C47.7533 144.5 43.5 140.247 43.5 135V124C43.5 118.753 47.7533 114.5 53 114.5Z" fill="white"/>
<path d="M53 114.5H157C162.247 114.5 166.5 118.753 166.5 124V135C166.5 140.247 162.247 144.5 157 144.5H53C47.7533 144.5 43.5 140.247 43.5 135V124C43.5 118.753 47.7533 114.5 53 114.5Z" stroke="black"/>
<path d="M57.9664 137.5C57.7815 137.5 57.6092 137.454 57.4496 137.363C57.2899 137.271 57.1681 137.142 57.084 136.975L55.1176 133.5H56.5798L57.5882 135.5H59.9076V134.5H58.1933L57.1849 132.5H54.563L53.1261 130C53.0924 129.917 53.063 129.833 53.0378 129.75C53.0126 129.667 53 129.583 53 129.5C53 129.433 53.042 129.267 53.1261 129L54.563 126.5H57.1849L58.1933 124.5H59.9076V123.5H57.5882L56.5798 125.5H55.1176L57.084 122.025C57.1681 121.858 57.2899 121.729 57.4496 121.638C57.6092 121.546 57.7815 121.5 57.9664 121.5H60.4118C60.6975 121.5 60.937 121.596 61.1303 121.787C61.3235 121.979 61.4202 122.217 61.4202 122.5V126.5H59.9076L58.8992 127.5H61.4202V130.5H59.2017L58.1933 128.5H55.8739L54.8655 129.5H57.5882L58.5966 131.5H61.4202V136.5C61.4202 136.783 61.3235 137.021 61.1303 137.213C60.937 137.404 60.6975 137.5 60.4118 137.5H57.9664ZM62.5168 136.913C62.1218 136.521 61.9244 136.05 61.9244 135.5C61.9244 135.117 62.0168 134.779 62.2017 134.488C62.3866 134.196 62.6303 133.958 62.9328 133.775V125.225C62.6303 125.042 62.3866 124.804 62.2017 124.513C62.0168 124.221 61.9244 123.883 61.9244 123.5C61.9244 122.95 62.1218 122.479 62.5168 122.088C62.9118 121.696 63.3866 121.5 63.9412 121.5C64.4958 121.5 64.9706 121.696 65.3655 122.088C65.7605 122.479 65.958 122.95 65.958 123.5C65.958 123.883 65.8655 124.221 65.6807 124.513C65.4958 124.804 65.2521 125.042 64.9496 125.225V127.75L66.9664 126.55C66.9664 125.983 67.1639 125.5 67.5588 125.1C67.9538 124.7 68.4286 124.5 68.9832 124.5C69.5378 124.5 70.0126 124.696 70.4076 125.088C70.8025 125.479 71 125.95 71 126.5C71 127.05 70.8025 127.521 70.4076 127.912C70.0126 128.304 69.5378 128.5 68.9832 128.5C68.7983 128.5 68.6261 128.479 68.4664 128.438C68.3067 128.396 68.1513 128.333 68 128.25L65.7059 129.625L68.2521 131.625C68.3697 131.575 68.4874 131.542 68.605 131.525C68.7227 131.508 68.8487 131.5 68.9832 131.5C69.5378 131.5 70.0126 131.696 70.4076 132.088C70.8025 132.479 71 132.95 71 133.5C71 134.05 70.8025 134.521 70.4076 134.913C70.0126 135.304 69.5378 135.5 68.9832 135.5C68.3613 135.5 67.8529 135.267 67.458 134.8C67.063 134.333 66.9076 133.8 66.9916 133.2L64.9496 131.575V133.8C65.2521 133.983 65.4916 134.221 65.6681 134.512C65.8445 134.804 65.9328 135.133 65.9328 135.5C65.9328 136.05 65.7395 136.521 65.3529 136.913C64.9664 137.304 64.4958 137.5 63.9412 137.5C63.3866 137.5 62.9118 137.304 62.5168 136.913Z" fill="#A8C400"/>
<path d="M78.3438 135H76.0859L80.1953 123.359H82.7891L86.8906 135H84.6406L81.5312 125.75H81.4375L78.3438 135ZM78.4219 130.438H84.5547V132.125H78.4219V130.438ZM93.7266 129.781V131.469H89.0938V129.781H93.7266ZM89.7188 126.266V135H87.7422V126.266H89.7188ZM95.0859 126.266V135H93.1094V126.266H95.0859ZM99.1172 135.18C98.5599 135.18 98.0599 135.081 97.6172 134.883C97.1745 134.68 96.8255 134.383 96.5703 133.992C96.3151 133.602 96.1875 133.12 96.1875 132.547C96.1875 132.057 96.2786 131.651 96.4609 131.328C96.6432 131.005 96.8906 130.747 97.2031 130.555C97.5208 130.362 97.8776 130.216 98.2734 130.117C98.6693 130.013 99.0781 129.94 99.5 129.898C100.016 129.841 100.432 129.792 100.75 129.75C101.068 129.708 101.297 129.641 101.438 129.547C101.583 129.453 101.656 129.307 101.656 129.109V129.07C101.656 128.648 101.531 128.32 101.281 128.086C101.031 127.852 100.667 127.734 100.188 127.734C99.6823 127.734 99.2812 127.844 98.9844 128.062C98.6927 128.281 98.4948 128.539 98.3906 128.836L96.4766 128.562C96.6276 128.031 96.8776 127.589 97.2266 127.234C97.5755 126.875 98 126.607 98.5 126.43C99.0052 126.247 99.5625 126.156 100.172 126.156C100.589 126.156 101.005 126.206 101.422 126.305C101.839 126.398 102.221 126.56 102.57 126.789C102.919 127.018 103.198 127.326 103.406 127.711C103.615 128.096 103.719 128.578 103.719 129.156V135H101.742V133.797H101.68C101.555 134.036 101.378 134.263 101.148 134.477C100.924 134.685 100.643 134.854 100.305 134.984C99.9714 135.115 99.5755 135.18 99.1172 135.18ZM99.6406 133.664C100.057 133.664 100.417 133.583 100.719 133.422C101.021 133.255 101.255 133.036 101.422 132.766C101.589 132.49 101.672 132.19 101.672 131.867V130.844C101.604 130.896 101.495 130.945 101.344 130.992C101.193 131.034 101.021 131.073 100.828 131.109C100.635 131.146 100.445 131.177 100.258 131.203C100.076 131.229 99.9167 131.25 99.7812 131.266C99.474 131.307 99.1979 131.378 98.9531 131.477C98.7135 131.57 98.5234 131.701 98.3828 131.867C98.2422 132.034 98.1719 132.25 98.1719 132.516C98.1719 132.896 98.3099 133.182 98.5859 133.375C98.862 133.568 99.2135 133.664 99.6406 133.664ZM104.641 135L104.633 133.305H104.922C105.229 133.305 105.471 133.211 105.648 133.023C105.831 132.836 105.969 132.513 106.062 132.055C106.156 131.591 106.219 130.953 106.25 130.141L106.398 126.266H112.766V135H110.773V127.953H108.273L108.133 130.781C108.096 131.505 108.016 132.133 107.891 132.664C107.766 133.195 107.586 133.635 107.352 133.984C107.122 134.328 106.836 134.583 106.492 134.75C106.148 134.917 105.742 135 105.273 135H104.641ZM116.266 132.211L119.766 126.266H121.875V135H119.898V129.047L116.406 135H114.289V126.266H116.266V132.211ZM122.422 127.953V126.266H130.055V127.953H127.234V135H125.242V127.953H122.422ZM133.078 132.211L136.578 126.266H138.688V135H136.711V129.047L133.219 135H131.102V126.266H133.078V132.211ZM140.211 135V126.266H142.266V129.797H143.016L145.648 126.266H148.117L144.891 130.562L148.148 135H145.664L143.266 131.703H142.266V135H140.211ZM151.227 135.18C150.669 135.18 150.169 135.081 149.727 134.883C149.284 134.68 148.935 134.383 148.68 133.992C148.424 133.602 148.297 133.12 148.297 132.547C148.297 132.057 148.388 131.651 148.57 131.328C148.753 131.005 149 130.747 149.312 130.555C149.63 130.362 149.987 130.216 150.383 130.117C150.779 130.013 151.188 129.94 151.609 129.898C152.125 129.841 152.542 129.792 152.859 129.75C153.177 129.708 153.406 129.641 153.547 129.547C153.693 129.453 153.766 129.307 153.766 129.109V129.07C153.766 128.648 153.641 128.32 153.391 128.086C153.141 127.852 152.776 127.734 152.297 127.734C151.792 127.734 151.391 127.844 151.094 128.062C150.802 128.281 150.604 128.539 150.5 128.836L148.586 128.562C148.737 128.031 148.987 127.589 149.336 127.234C149.685 126.875 150.109 126.607 150.609 126.43C151.115 126.247 151.672 126.156 152.281 126.156C152.698 126.156 153.115 126.206 153.531 126.305C153.948 126.398 154.331 126.56 154.68 126.789C155.029 127.018 155.307 127.326 155.516 127.711C155.724 128.096 155.828 128.578 155.828 129.156V135H153.852V133.797H153.789C153.664 134.036 153.487 134.263 153.258 134.477C153.034 134.685 152.753 134.854 152.414 134.984C152.081 135.115 151.685 135.18 151.227 135.18ZM151.75 133.664C152.167 133.664 152.526 133.583 152.828 133.422C153.13 133.255 153.365 133.036 153.531 132.766C153.698 132.49 153.781 132.19 153.781 131.867V130.844C153.714 130.896 153.604 130.945 153.453 130.992C153.302 131.034 153.13 131.073 152.938 131.109C152.745 131.146 152.555 131.177 152.367 131.203C152.185 131.229 152.026 131.25 151.891 131.266C151.583 131.307 151.307 131.378 151.062 131.477C150.823 131.57 150.633 131.701 150.492 131.867C150.352 132.034 150.281 132.25 150.281 132.516C150.281 132.896 150.419 133.182 150.695 133.375C150.971 133.568 151.323 133.664 151.75 133.664Z" fill="black"/>
<path d="M275 489.5H392C397.247 489.5 401.5 493.753 401.5 499V510C401.5 515.247 397.247 519.5 392 519.5H275C269.753 519.5 265.5 515.247 265.5 510V499C265.5 493.753 269.753 489.5 275 489.5Z" fill="white"/>
<path d="M275 489.5H392C397.247 489.5 401.5 493.753 401.5 499V510C401.5 515.247 397.247 519.5 392 519.5H275C269.753 519.5 265.5 515.247 265.5 510V499C265.5 493.753 269.753 489.5 275 489.5Z" stroke="black"/>
<path d="M282.93 511.752C281.111 511.232 279.857 509.569 279.857 507.678V504.735C279.857 504.019 280.437 503.44 281.152 503.44C281.247 503.44 281.341 503.45 281.436 503.47C281.53 503.491 281.625 503.515 281.719 503.542L287.325 505.663C287.514 505.732 287.666 505.856 287.78 506.034C287.895 506.213 287.952 506.398 287.952 506.59C287.952 506.878 287.855 507.112 287.659 507.29C287.463 507.469 287.237 507.558 286.981 507.558H284.856C284.788 507.558 284.738 507.554 284.704 507.548C284.67 507.541 284.627 507.524 284.573 507.496L283.687 507.144C283.465 507.056 283.214 507.173 283.14 507.401C283.07 507.614 283.183 507.845 283.395 507.92L284.573 508.34C284.6 508.354 284.64 508.364 284.694 508.371C284.748 508.378 284.795 508.382 284.836 508.382H290.381C290.813 508.382 291.19 508.539 291.514 508.855C292.078 509.405 291.515 510.215 290.779 510.496L287.239 511.851C286.139 512.272 284.932 512.325 283.799 512.001L282.93 511.752ZM276.619 512.5C275.725 512.5 275 511.775 275 510.881V505.059C275 504.164 275.725 503.44 276.619 503.44C277.513 503.44 278.238 504.164 278.238 505.059V510.881C278.238 511.775 277.513 512.5 276.619 512.5ZM286.396 501.708C285.439 502.682 283.869 502.682 282.911 501.708L281.78 500.557C281.466 500.237 281.468 499.725 281.785 499.408C282.105 499.088 282.626 499.09 282.943 499.413L283.506 499.986C284.137 500.628 285.171 500.629 285.803 499.989L288.67 497.085C288.988 496.763 289.507 496.764 289.823 497.086C290.133 497.401 290.133 497.906 289.823 498.22L286.396 501.708Z" fill="#A8C400"/>
<path d="M297.844 510V498.359H299.953V503.289H305.344V498.359H307.453V510H305.344V505.062H299.953V510H297.844ZM311.57 510.18C311.013 510.18 310.513 510.081 310.07 509.883C309.628 509.68 309.279 509.383 309.023 508.992C308.768 508.602 308.641 508.12 308.641 507.547C308.641 507.057 308.732 506.651 308.914 506.328C309.096 506.005 309.344 505.747 309.656 505.555C309.974 505.362 310.331 505.216 310.727 505.117C311.122 505.013 311.531 504.94 311.953 504.898C312.469 504.841 312.885 504.792 313.203 504.75C313.521 504.708 313.75 504.641 313.891 504.547C314.036 504.453 314.109 504.307 314.109 504.109V504.07C314.109 503.648 313.984 503.32 313.734 503.086C313.484 502.852 313.12 502.734 312.641 502.734C312.135 502.734 311.734 502.844 311.438 503.062C311.146 503.281 310.948 503.539 310.844 503.836L308.93 503.562C309.081 503.031 309.331 502.589 309.68 502.234C310.029 501.875 310.453 501.607 310.953 501.43C311.458 501.247 312.016 501.156 312.625 501.156C313.042 501.156 313.458 501.206 313.875 501.305C314.292 501.398 314.674 501.56 315.023 501.789C315.372 502.018 315.651 502.326 315.859 502.711C316.068 503.096 316.172 503.578 316.172 504.156V510H314.195V508.797H314.133C314.008 509.036 313.831 509.263 313.602 509.477C313.378 509.685 313.096 509.854 312.758 509.984C312.424 510.115 312.029 510.18 311.57 510.18ZM312.094 508.664C312.51 508.664 312.87 508.583 313.172 508.422C313.474 508.255 313.708 508.036 313.875 507.766C314.042 507.49 314.125 507.19 314.125 506.867V505.844C314.057 505.896 313.948 505.945 313.797 505.992C313.646 506.034 313.474 506.073 313.281 506.109C313.089 506.146 312.898 506.177 312.711 506.203C312.529 506.229 312.37 506.25 312.234 506.266C311.927 506.307 311.651 506.378 311.406 506.477C311.167 506.57 310.977 506.701 310.836 506.867C310.695 507.034 310.625 507.25 310.625 507.516C310.625 507.896 310.763 508.182 311.039 508.375C311.315 508.568 311.667 508.664 312.094 508.664ZM316.922 512.539V508.305H317.609C317.797 508.164 317.953 507.971 318.078 507.727C318.203 507.477 318.305 507.182 318.383 506.844C318.466 506.5 318.534 506.117 318.586 505.695C318.643 505.273 318.693 504.82 318.734 504.336L318.984 501.266H325.297V508.305H326.641V512.539H324.656V510H318.945V512.539H316.922ZM319.727 508.305H323.328V502.93H320.773L320.633 504.336C320.56 505.258 320.458 506.049 320.328 506.711C320.203 507.367 320.003 507.898 319.727 508.305ZM331.453 510.172C330.578 510.172 329.823 509.99 329.188 509.625C328.552 509.255 328.062 508.734 327.719 508.062C327.38 507.391 327.211 506.599 327.211 505.688C327.211 504.786 327.38 503.997 327.719 503.32C328.057 502.638 328.534 502.107 329.148 501.727C329.763 501.346 330.487 501.156 331.32 501.156C331.857 501.156 332.365 501.242 332.844 501.414C333.328 501.586 333.755 501.852 334.125 502.211C334.5 502.57 334.794 503.029 335.008 503.586C335.221 504.138 335.328 504.797 335.328 505.562V506.203H328.172V504.82H334.305L333.344 505.227C333.344 504.732 333.268 504.302 333.117 503.938C332.966 503.568 332.742 503.279 332.445 503.07C332.148 502.862 331.779 502.758 331.336 502.758C330.893 502.758 330.516 502.862 330.203 503.07C329.891 503.279 329.654 503.56 329.492 503.914C329.331 504.263 329.25 504.654 329.25 505.086V506.047C329.25 506.578 329.341 507.034 329.523 507.414C329.711 507.789 329.971 508.076 330.305 508.273C330.643 508.471 331.036 508.57 331.484 508.57C331.776 508.57 332.042 508.529 332.281 508.445C332.526 508.362 332.734 508.237 332.906 508.07C333.083 507.898 333.219 507.688 333.312 507.438L335.234 507.664C335.109 508.169 334.878 508.612 334.539 508.992C334.206 509.367 333.776 509.659 333.25 509.867C332.729 510.07 332.13 510.172 331.453 510.172ZM335.711 510L338.93 505.492L335.734 501.266H338.102L340.594 504.797H341.078V501.266H343.141V504.797H343.617L346.094 501.266H348.469L345.289 505.492L348.5 510H346.078L343.602 506.477H343.141V510H341.078V506.477H340.617L338.133 510H335.711ZM355.445 504.781V506.469H350.812V504.781H355.445ZM351.438 501.266V510H349.461V501.266H351.438ZM356.805 501.266V510H354.828V501.266H356.805ZM362.125 510.172C361.271 510.172 360.531 509.984 359.906 509.609C359.281 509.234 358.797 508.708 358.453 508.031C358.115 507.354 357.945 506.568 357.945 505.672C357.945 504.771 358.115 503.982 358.453 503.305C358.797 502.622 359.281 502.094 359.906 501.719C360.531 501.344 361.271 501.156 362.125 501.156C362.979 501.156 363.719 501.344 364.344 501.719C364.969 502.094 365.453 502.622 365.797 503.305C366.141 503.982 366.312 504.771 366.312 505.672C366.312 506.568 366.141 507.354 365.797 508.031C365.453 508.708 364.969 509.234 364.344 509.609C363.719 509.984 362.979 510.172 362.125 510.172ZM362.125 508.516C362.599 508.516 362.99 508.391 363.297 508.141C363.604 507.885 363.833 507.542 363.984 507.109C364.141 506.677 364.219 506.198 364.219 505.672C364.219 505.135 364.141 504.651 363.984 504.219C363.833 503.786 363.604 503.445 363.297 503.195C362.99 502.94 362.599 502.812 362.125 502.812C361.661 502.812 361.273 502.94 360.961 503.195C360.648 503.445 360.414 503.786 360.258 504.219C360.107 504.651 360.031 505.135 360.031 505.672C360.031 506.198 360.107 506.677 360.258 507.109C360.414 507.542 360.648 507.885 360.961 508.141C361.273 508.391 361.661 508.516 362.125 508.516ZM371.25 510.172C370.38 510.172 369.633 509.982 369.008 509.602C368.383 509.216 367.904 508.685 367.57 508.008C367.237 507.331 367.07 506.552 367.07 505.672C367.07 504.781 367.24 503.997 367.578 503.32C367.917 502.643 368.398 502.115 369.023 501.734C369.648 501.349 370.385 501.156 371.234 501.156C371.948 501.156 372.578 501.286 373.125 501.547C373.672 501.807 374.107 502.174 374.43 502.648C374.758 503.117 374.945 503.667 374.992 504.297H373.023C372.971 504.016 372.87 503.763 372.719 503.539C372.568 503.315 372.37 503.138 372.125 503.008C371.885 502.878 371.599 502.812 371.266 502.812C370.844 502.812 370.474 502.927 370.156 503.156C369.844 503.38 369.599 503.703 369.422 504.125C369.245 504.547 369.156 505.052 369.156 505.641C369.156 506.234 369.242 506.747 369.414 507.18C369.586 507.607 369.831 507.938 370.148 508.172C370.466 508.401 370.839 508.516 371.266 508.516C371.719 508.516 372.102 508.383 372.414 508.117C372.732 507.852 372.935 507.484 373.023 507.016H374.992C374.945 507.635 374.763 508.182 374.445 508.656C374.128 509.13 373.698 509.503 373.156 509.773C372.615 510.039 371.979 510.172 371.25 510.172ZM375.141 502.953V501.266H382.773V502.953H379.953V510H377.961V502.953H375.141ZM385.219 504.117H387.789C388.898 504.112 389.758 504.383 390.367 504.93C390.982 505.471 391.289 506.18 391.289 507.055C391.289 507.628 391.151 508.135 390.875 508.578C390.599 509.021 390.201 509.37 389.68 509.625C389.159 509.875 388.529 510 387.789 510H383.82V501.266H385.797V508.312H387.789C388.232 508.312 388.596 508.201 388.883 507.977C389.174 507.747 389.32 507.451 389.32 507.086C389.32 506.706 389.174 506.396 388.883 506.156C388.596 505.917 388.232 505.799 387.789 505.805H385.219V504.117Z" fill="black"/>
<path d="M397 340.5H486C491.247 340.5 495.5 344.753 495.5 350V361C495.5 366.247 491.247 370.5 486 370.5H397C391.753 370.5 387.5 366.247 387.5 361V350C387.5 344.753 391.753 340.5 397 340.5Z" fill="white"/>
<path d="M397 340.5H486C491.247 340.5 495.5 344.753 495.5 350V361C495.5 366.247 491.247 370.5 486 370.5H397C391.753 370.5 387.5 366.247 387.5 361V350C387.5 344.753 391.753 340.5 397 340.5Z" stroke="black"/>
<path d="M404.318 358.32C405.238 358.32 406.021 358.02 406.665 357.42C407.309 356.82 407.632 356.093 407.632 355.24C407.632 354.48 407.392 353.837 406.912 353.31C406.432 352.783 405.85 352.52 405.166 352.52C404.548 352.52 404.025 352.72 403.598 353.12C403.171 353.52 402.957 354.013 402.957 354.6C402.957 354.853 403.006 355.1 403.105 355.34C403.11 355.353 403.116 355.366 403.121 355.379C403.283 355.752 403.768 355.758 404.053 355.469L404.558 354.956C404.608 354.906 404.595 354.823 404.564 354.76C404.545 354.72 404.535 354.673 404.535 354.62C404.535 354.473 404.594 354.357 404.712 354.27C404.831 354.183 404.982 354.14 405.166 354.14C405.429 354.14 405.646 354.25 405.817 354.47C405.988 354.69 406.073 354.953 406.073 355.26C406.073 355.673 405.906 356.023 405.57 356.31C405.235 356.597 404.824 356.74 404.338 356.74C403.72 356.74 403.197 356.487 402.769 355.98C402.342 355.473 402.128 354.853 402.128 354.12C402.128 353.733 402.201 353.363 402.345 353.01C402.387 352.909 402.433 352.811 402.484 352.717C402.695 352.329 402.708 351.828 402.398 351.513C402.086 351.197 401.567 351.189 401.313 351.554C401.136 351.81 400.987 352.085 400.866 352.38C400.642 352.927 400.531 353.5 400.531 354.1C400.531 355.273 400.899 356.27 401.635 357.09C402.372 357.91 403.266 358.32 404.318 358.32ZM401.76 363.5C400.439 363.5 399.367 362.428 399.367 361.106C399.367 360.439 399.072 359.815 398.65 359.299C398.235 358.793 397.892 358.236 397.621 357.63C397.207 356.703 397 355.727 397 354.7C397 352.7 397.69 351 399.071 349.6C400.452 348.2 402.128 347.5 404.101 347.5C405.745 347.5 407.201 347.99 408.47 348.97C409.739 349.95 410.564 351.227 410.945 352.8L411.971 356.9C412.037 357.153 411.991 357.383 411.833 357.59C411.675 357.797 411.465 357.9 411.202 357.9C410.33 357.9 409.624 358.606 409.624 359.478V360.3C409.624 360.74 409.469 361.117 409.16 361.43C408.851 361.743 408.48 361.9 408.046 361.9H407.268C406.826 361.9 406.468 362.258 406.468 362.7C406.468 363.142 406.11 363.5 405.668 363.5H401.76Z" fill="#A8C400"/>
<path d="M425.336 349.359V351.125H419.953V361H417.844V349.359H425.336ZM427.5 358.211L431 352.266H433.109V361H431.133V355.047L427.641 361H425.523V352.266H427.5V358.211ZM441.609 349.047L442.336 350.367C442.081 350.591 441.794 350.753 441.477 350.852C441.164 350.951 440.794 351.016 440.367 351.047C439.945 351.073 439.445 351.091 438.867 351.102C438.216 351.117 437.685 351.24 437.273 351.469C436.862 351.698 436.544 352.047 436.32 352.516C436.102 352.984 435.961 353.583 435.898 354.312H435.992C436.263 353.776 436.643 353.367 437.133 353.086C437.628 352.805 438.206 352.664 438.867 352.664C439.591 352.664 440.229 352.826 440.781 353.148C441.339 353.471 441.773 353.94 442.086 354.555C442.404 355.169 442.56 355.914 442.555 356.789C442.56 357.685 442.393 358.461 442.055 359.117C441.716 359.773 441.237 360.281 440.617 360.641C439.997 360.995 439.266 361.172 438.422 361.172C437.146 361.172 436.133 360.758 435.383 359.93C434.638 359.096 434.263 357.88 434.258 356.281V355.508C434.263 353.451 434.646 351.919 435.406 350.914C436.172 349.904 437.307 349.385 438.812 349.359C439.26 349.349 439.661 349.346 440.016 349.352C440.37 349.357 440.68 349.341 440.945 349.305C441.211 349.263 441.432 349.177 441.609 349.047ZM438.43 359.531C438.852 359.526 439.214 359.417 439.516 359.203C439.823 358.984 440.06 358.674 440.227 358.273C440.393 357.872 440.474 357.396 440.469 356.844C440.474 356.302 440.393 355.841 440.227 355.461C440.06 355.076 439.823 354.784 439.516 354.586C439.208 354.388 438.839 354.289 438.406 354.289C438.089 354.289 437.805 354.346 437.555 354.461C437.305 354.57 437.089 354.734 436.906 354.953C436.729 355.172 436.594 355.44 436.5 355.758C436.406 356.076 436.357 356.438 436.352 356.844C436.346 357.661 436.529 358.312 436.898 358.797C437.268 359.281 437.779 359.526 438.43 359.531ZM443.695 361V352.266H445.75V355.797H446.5L449.133 352.266H451.602L448.375 356.562L451.633 361H449.148L446.75 357.703H445.75V361H443.695ZM455.641 361.172C454.786 361.172 454.047 360.984 453.422 360.609C452.797 360.234 452.312 359.708 451.969 359.031C451.63 358.354 451.461 357.568 451.461 356.672C451.461 355.771 451.63 354.982 451.969 354.305C452.312 353.622 452.797 353.094 453.422 352.719C454.047 352.344 454.786 352.156 455.641 352.156C456.495 352.156 457.234 352.344 457.859 352.719C458.484 353.094 458.969 353.622 459.312 354.305C459.656 354.982 459.828 355.771 459.828 356.672C459.828 357.568 459.656 358.354 459.312 359.031C458.969 359.708 458.484 360.234 457.859 360.609C457.234 360.984 456.495 361.172 455.641 361.172ZM455.641 359.516C456.115 359.516 456.505 359.391 456.812 359.141C457.12 358.885 457.349 358.542 457.5 358.109C457.656 357.677 457.734 357.198 457.734 356.672C457.734 356.135 457.656 355.651 457.5 355.219C457.349 354.786 457.12 354.445 456.812 354.195C456.505 353.94 456.115 353.812 455.641 353.812C455.177 353.812 454.789 353.94 454.477 354.195C454.164 354.445 453.93 354.786 453.773 355.219C453.622 355.651 453.547 356.135 453.547 356.672C453.547 357.198 453.622 357.677 453.773 358.109C453.93 358.542 454.164 358.885 454.477 359.141C454.789 359.391 455.177 359.516 455.641 359.516ZM464.766 361.172C463.896 361.172 463.148 360.982 462.523 360.602C461.898 360.216 461.419 359.685 461.086 359.008C460.753 358.331 460.586 357.552 460.586 356.672C460.586 355.781 460.755 354.997 461.094 354.32C461.432 353.643 461.914 353.115 462.539 352.734C463.164 352.349 463.901 352.156 464.75 352.156C465.464 352.156 466.094 352.286 466.641 352.547C467.188 352.807 467.622 353.174 467.945 353.648C468.273 354.117 468.461 354.667 468.508 355.297H466.539C466.487 355.016 466.385 354.763 466.234 354.539C466.083 354.315 465.885 354.138 465.641 354.008C465.401 353.878 465.115 353.812 464.781 353.812C464.359 353.812 463.99 353.927 463.672 354.156C463.359 354.38 463.115 354.703 462.938 355.125C462.76 355.547 462.672 356.052 462.672 356.641C462.672 357.234 462.758 357.747 462.93 358.18C463.102 358.607 463.346 358.938 463.664 359.172C463.982 359.401 464.354 359.516 464.781 359.516C465.234 359.516 465.617 359.383 465.93 359.117C466.247 358.852 466.451 358.484 466.539 358.016H468.508C468.461 358.635 468.279 359.182 467.961 359.656C467.643 360.13 467.214 360.503 466.672 360.773C466.13 361.039 465.495 361.172 464.766 361.172ZM468.656 353.953V352.266H476.289V353.953H473.469V361H471.477V353.953H468.656ZM478.734 355.117H481.305C482.414 355.112 483.273 355.383 483.883 355.93C484.497 356.471 484.805 357.18 484.805 358.055C484.805 358.628 484.667 359.135 484.391 359.578C484.115 360.021 483.716 360.37 483.195 360.625C482.674 360.875 482.044 361 481.305 361H477.336V352.266H479.312V359.312H481.305C481.747 359.312 482.112 359.201 482.398 358.977C482.69 358.747 482.836 358.451 482.836 358.086C482.836 357.706 482.69 357.396 482.398 357.156C482.112 356.917 481.747 356.799 481.305 356.805H478.734V355.117Z" fill="black"/>
<path d="M374 191.5H495C500.247 191.5 504.5 195.753 504.5 201V212C504.5 217.247 500.247 221.5 495 221.5H374C368.753 221.5 364.5 217.247 364.5 212V201C364.5 195.753 368.753 191.5 374 191.5Z" fill="white"/>
<path d="M374 191.5H495C500.247 191.5 504.5 195.753 504.5 201V212C504.5 217.247 500.247 221.5 495 221.5H374C368.753 221.5 364.5 217.247 364.5 212V201C364.5 195.753 368.753 191.5 374 191.5Z" stroke="black"/>
<path d="M376.397 200.897H385.985C386.211 200.897 386.401 200.974 386.554 201.127C386.707 201.28 386.784 201.47 386.784 201.696C386.784 201.922 386.707 202.112 386.554 202.265C386.401 202.418 386.211 202.495 385.985 202.495H376.397C376.171 202.495 375.981 202.418 375.828 202.265C375.675 202.112 375.598 201.922 375.598 201.696C375.598 201.47 375.675 201.28 375.828 201.127C375.981 200.974 376.171 200.897 376.397 200.897ZM377.995 198.5H384.387C384.613 198.5 384.803 198.577 384.956 198.73C385.109 198.883 385.186 199.073 385.186 199.299C385.186 199.525 385.109 199.715 384.956 199.868C384.803 200.021 384.613 200.098 384.387 200.098H377.995C377.769 200.098 377.579 200.021 377.426 199.868C377.273 199.715 377.196 199.525 377.196 199.299C377.196 199.073 377.273 198.883 377.426 198.73C377.579 198.577 377.769 198.5 377.995 198.5ZM385.326 214.5L385.086 213.301C384.926 213.235 384.777 213.165 384.637 213.092C384.497 213.019 384.354 212.929 384.207 212.822L383.049 213.182L382.25 211.823L383.169 211.024C383.142 210.851 383.129 210.678 383.129 210.505C383.129 210.332 383.142 210.159 383.169 209.986L382.25 209.187L383.049 207.828L384.207 208.188C384.354 208.081 384.497 207.991 384.637 207.918C384.777 207.845 384.926 207.775 385.086 207.708L385.326 206.51H386.924L387.164 207.708C387.323 207.775 387.473 207.845 387.613 207.918C387.753 207.991 387.896 208.081 388.042 208.188L389.201 207.828L390 209.187L389.081 209.986C389.108 210.159 389.121 210.332 389.121 210.505C389.121 210.678 389.108 210.851 389.081 211.024L390 211.823L389.201 213.182L388.042 212.822C387.896 212.929 387.753 213.019 387.613 213.092C387.473 213.165 387.323 213.235 387.164 213.301L386.924 214.5H385.326ZM387.253 211.634C387.566 211.321 387.723 210.944 387.723 210.505C387.723 210.066 387.566 209.689 387.253 209.376C386.94 209.063 386.564 208.907 386.125 208.907C385.685 208.907 385.309 209.063 384.996 209.376C384.683 209.689 384.527 210.066 384.527 210.505C384.527 210.944 384.683 211.321 384.996 211.634C385.309 211.947 385.685 212.103 386.125 212.103C386.564 212.103 386.94 211.947 387.253 211.634ZM381.051 212.882H375.598L374 203.294H388.382L388.042 205.252C387.736 205.132 387.423 205.042 387.104 204.982C386.784 204.922 386.458 204.892 386.125 204.892C384.567 204.892 383.242 205.438 382.15 206.53C381.058 207.622 380.512 208.947 380.512 210.505C380.512 210.918 380.558 211.324 380.652 211.723C380.745 212.123 380.878 212.509 381.051 212.882Z" fill="#A8C400"/>
<path d="M400.883 212.156C399.862 212.156 398.948 211.919 398.141 211.445C397.339 210.971 396.706 210.289 396.242 209.398C395.784 208.508 395.555 207.438 395.555 206.188C395.555 204.932 395.786 203.859 396.25 202.969C396.719 202.073 397.354 201.388 398.156 200.914C398.964 200.44 399.872 200.203 400.883 200.203C401.523 200.203 402.122 200.294 402.68 200.477C403.242 200.659 403.742 200.927 404.18 201.281C404.617 201.63 404.974 202.06 405.25 202.57C405.531 203.076 405.716 203.651 405.805 204.297H403.68C403.622 203.943 403.51 203.63 403.344 203.359C403.182 203.089 402.979 202.859 402.734 202.672C402.495 202.479 402.221 202.336 401.914 202.242C401.607 202.143 401.276 202.094 400.922 202.094C400.286 202.094 399.724 202.253 399.234 202.57C398.745 202.883 398.362 203.346 398.086 203.961C397.81 204.57 397.672 205.312 397.672 206.188C397.672 207.073 397.81 207.82 398.086 208.43C398.367 209.034 398.75 209.492 399.234 209.805C399.724 210.112 400.284 210.266 400.914 210.266C401.263 210.266 401.589 210.221 401.891 210.133C402.193 210.039 402.466 209.901 402.711 209.719C402.961 209.531 403.167 209.307 403.328 209.047C403.495 208.781 403.612 208.477 403.68 208.133H405.805C405.727 208.69 405.555 209.214 405.289 209.703C405.029 210.188 404.685 210.615 404.258 210.984C403.836 211.349 403.341 211.635 402.773 211.844C402.206 212.052 401.576 212.156 400.883 212.156ZM409.047 209.211L412.547 203.266H414.656V212H412.68V206.047L409.188 212H407.07V203.266H409.047V209.211ZM419.984 212.172C419.115 212.172 418.367 211.982 417.742 211.602C417.117 211.216 416.638 210.685 416.305 210.008C415.971 209.331 415.805 208.552 415.805 207.672C415.805 206.781 415.974 205.997 416.312 205.32C416.651 204.643 417.133 204.115 417.758 203.734C418.383 203.349 419.12 203.156 419.969 203.156C420.682 203.156 421.312 203.286 421.859 203.547C422.406 203.807 422.841 204.174 423.164 204.648C423.492 205.117 423.68 205.667 423.727 206.297H421.758C421.706 206.016 421.604 205.763 421.453 205.539C421.302 205.315 421.104 205.138 420.859 205.008C420.62 204.878 420.333 204.812 420 204.812C419.578 204.812 419.208 204.927 418.891 205.156C418.578 205.38 418.333 205.703 418.156 206.125C417.979 206.547 417.891 207.052 417.891 207.641C417.891 208.234 417.977 208.747 418.148 209.18C418.32 209.607 418.565 209.938 418.883 210.172C419.201 210.401 419.573 210.516 420 210.516C420.453 210.516 420.836 210.383 421.148 210.117C421.466 209.852 421.669 209.484 421.758 209.016H423.727C423.68 209.635 423.497 210.182 423.18 210.656C422.862 211.13 422.432 211.503 421.891 211.773C421.349 212.039 420.714 212.172 419.984 212.172ZM423.875 204.953V203.266H431.508V204.953H428.688V212H426.695V204.953H423.875ZM436.062 212.172C435.188 212.172 434.432 211.99 433.797 211.625C433.161 211.255 432.672 210.734 432.328 210.062C431.99 209.391 431.82 208.599 431.82 207.688C431.82 206.786 431.99 205.997 432.328 205.32C432.667 204.638 433.143 204.107 433.758 203.727C434.372 203.346 435.096 203.156 435.93 203.156C436.466 203.156 436.974 203.242 437.453 203.414C437.938 203.586 438.365 203.852 438.734 204.211C439.109 204.57 439.404 205.029 439.617 205.586C439.831 206.138 439.938 206.797 439.938 207.562V208.203H432.781V206.82H438.914L437.953 207.227C437.953 206.732 437.878 206.302 437.727 205.938C437.576 205.568 437.352 205.279 437.055 205.07C436.758 204.862 436.388 204.758 435.945 204.758C435.503 204.758 435.125 204.862 434.812 205.07C434.5 205.279 434.263 205.56 434.102 205.914C433.94 206.263 433.859 206.654 433.859 207.086V208.047C433.859 208.578 433.951 209.034 434.133 209.414C434.32 209.789 434.581 210.076 434.914 210.273C435.253 210.471 435.646 210.57 436.094 210.57C436.385 210.57 436.651 210.529 436.891 210.445C437.135 210.362 437.344 210.237 437.516 210.07C437.693 209.898 437.828 209.688 437.922 209.438L439.844 209.664C439.719 210.169 439.487 210.612 439.148 210.992C438.815 211.367 438.385 211.659 437.859 211.867C437.339 212.07 436.74 212.172 436.062 212.172ZM446.078 209.609L448.672 203.266H450.32L446.797 212H445.359L441.906 203.266H443.555L446.078 209.609ZM443.031 203.266V212H441.055V203.266H443.031ZM449.203 212V203.266H451.164V212H449.203ZM458.664 206.781V208.469H454.031V206.781H458.664ZM454.656 203.266V212H452.68V203.266H454.656ZM460.023 203.266V212H458.047V203.266H460.023ZM465.344 212.172C464.49 212.172 463.75 211.984 463.125 211.609C462.5 211.234 462.016 210.708 461.672 210.031C461.333 209.354 461.164 208.568 461.164 207.672C461.164 206.771 461.333 205.982 461.672 205.305C462.016 204.622 462.5 204.094 463.125 203.719C463.75 203.344 464.49 203.156 465.344 203.156C466.198 203.156 466.938 203.344 467.562 203.719C468.188 204.094 468.672 204.622 469.016 205.305C469.359 205.982 469.531 206.771 469.531 207.672C469.531 208.568 469.359 209.354 469.016 210.031C468.672 210.708 468.188 211.234 467.562 211.609C466.938 211.984 466.198 212.172 465.344 212.172ZM465.344 210.516C465.818 210.516 466.208 210.391 466.516 210.141C466.823 209.885 467.052 209.542 467.203 209.109C467.359 208.677 467.438 208.198 467.438 207.672C467.438 207.135 467.359 206.651 467.203 206.219C467.052 205.786 466.823 205.445 466.516 205.195C466.208 204.94 465.818 204.812 465.344 204.812C464.88 204.812 464.492 204.94 464.18 205.195C463.867 205.445 463.633 205.786 463.477 206.219C463.326 206.651 463.25 207.135 463.25 207.672C463.25 208.198 463.326 208.677 463.477 209.109C463.633 209.542 463.867 209.885 464.18 210.141C464.492 210.391 464.88 210.516 465.344 210.516ZM474.469 212.172C473.599 212.172 472.852 211.982 472.227 211.602C471.602 211.216 471.122 210.685 470.789 210.008C470.456 209.331 470.289 208.552 470.289 207.672C470.289 206.781 470.458 205.997 470.797 205.32C471.135 204.643 471.617 204.115 472.242 203.734C472.867 203.349 473.604 203.156 474.453 203.156C475.167 203.156 475.797 203.286 476.344 203.547C476.891 203.807 477.326 204.174 477.648 204.648C477.977 205.117 478.164 205.667 478.211 206.297H476.242C476.19 206.016 476.089 205.763 475.938 205.539C475.786 205.315 475.589 205.138 475.344 205.008C475.104 204.878 474.818 204.812 474.484 204.812C474.062 204.812 473.693 204.927 473.375 205.156C473.062 205.38 472.818 205.703 472.641 206.125C472.464 206.547 472.375 207.052 472.375 207.641C472.375 208.234 472.461 208.747 472.633 209.18C472.805 209.607 473.049 209.938 473.367 210.172C473.685 210.401 474.057 210.516 474.484 210.516C474.938 210.516 475.32 210.383 475.633 210.117C475.951 209.852 476.154 209.484 476.242 209.016H478.211C478.164 209.635 477.982 210.182 477.664 210.656C477.346 211.13 476.917 211.503 476.375 211.773C475.833 212.039 475.198 212.172 474.469 212.172ZM478.359 204.953V203.266H485.992V204.953H483.172V212H481.18V204.953H478.359ZM488.438 206.117H491.008C492.117 206.112 492.977 206.383 493.586 206.93C494.201 207.471 494.508 208.18 494.508 209.055C494.508 209.628 494.37 210.135 494.094 210.578C493.818 211.021 493.419 211.37 492.898 211.625C492.378 211.875 491.747 212 491.008 212H487.039V203.266H489.016V210.312H491.008C491.451 210.312 491.815 210.201 492.102 209.977C492.393 209.747 492.539 209.451 492.539 209.086C492.539 208.706 492.393 208.396 492.102 208.156C491.815 207.917 491.451 207.799 491.008 207.805H488.438V206.117Z" fill="black"/>
<path d="M72 350.5H203C208.247 350.5 212.5 354.753 212.5 360V371C212.5 376.247 208.247 380.5 203 380.5H72C66.7533 380.5 62.5 376.247 62.5 371V360C62.5 354.753 66.7533 350.5 72 350.5Z" fill="white"/>
<path d="M72 350.5H203C208.247 350.5 212.5 354.753 212.5 360V371C212.5 376.247 208.247 380.5 203 380.5H72C66.7533 380.5 62.5 376.247 62.5 371V360C62.5 354.753 66.7533 350.5 72 350.5Z" stroke="black"/>
<path d="M77.8313 370.3C78.0438 370.3 78.2469 370.26 78.4406 370.18C78.6344 370.1 78.825 370.007 79.0125 369.9C79.0875 369.847 79.1656 369.8 79.2469 369.76C79.3281 369.72 79.4125 369.7 79.5 369.7C79.6 369.7 79.7625 369.767 79.9875 369.9C80.175 370.007 80.3656 370.1 80.5594 370.18C80.7531 370.26 80.9563 370.3 81.1688 370.3C81.7938 370.3 82.2969 370.063 82.6781 369.59C83.0594 369.117 83.25 368.487 83.25 367.7C83.25 366.74 82.9406 366 82.3219 365.48C81.7031 364.96 80.8125 364.7 79.65 364.7H79.35C78.1875 364.7 77.2969 364.96 76.6781 365.48C76.0594 366 75.75 366.74 75.75 367.7C75.75 368.487 75.9406 369.117 76.3219 369.59C76.7031 370.063 77.2063 370.3 77.8313 370.3ZM77.8125 369.1C77.5125 369.1 77.2781 368.977 77.1094 368.73C76.9406 368.483 76.8563 368.14 76.8563 367.7C76.8563 367.087 77.0594 366.633 77.4656 366.34C77.8719 366.047 78.5 365.9 79.35 365.9H79.6313C80.4813 365.9 81.1063 366.047 81.5063 366.34C81.9062 366.633 82.1063 367.087 82.1063 367.7C82.1063 368.14 82.025 368.483 81.8625 368.73C81.7 368.977 81.4688 369.1 81.1688 369.1C81.0188 369.1 80.8063 369.02 80.5312 368.86C80.3688 368.753 80.2031 368.667 80.0344 368.6C79.8656 368.533 79.6875 368.5 79.5 368.5C79.3125 368.5 79.1313 368.533 78.9563 368.6C78.7813 368.667 78.6125 368.753 78.45 368.86C78.35 368.927 78.2469 368.983 78.1406 369.03C78.0344 369.077 77.925 369.1 77.8125 369.1ZM74.9804 363.874C75.1038 364.194 75.4699 364.35 75.7764 364.196C76.2668 363.948 76.6767 363.683 77.0063 363.4C77.35 363.105 77.6791 362.728 77.9936 362.269C78.163 362.022 78.0882 361.688 77.8409 361.519C77.5715 361.335 77.2057 361.42 77.0142 361.684C76.7904 361.992 76.5596 362.244 76.3219 362.44C76.0624 362.654 75.7184 362.871 75.2899 363.092C75.0045 363.239 74.8651 363.574 74.9804 363.874ZM83.2067 364.184C83.5105 364.343 83.8788 364.19 84.0021 363.87C84.1164 363.573 83.9763 363.241 83.6927 363.097C83.2758 362.885 82.9408 362.672 82.6875 362.46C82.4507 362.262 82.2168 362.002 81.9857 361.682C81.7952 361.417 81.4296 361.335 81.1605 361.518C80.9125 361.688 80.8374 362.023 81.0076 362.27C81.3218 362.727 81.6505 363.1 81.9938 363.39C82.3217 363.667 82.726 363.932 83.2067 364.184ZM79.5 373.5C78.4625 373.5 77.4875 373.29 76.575 372.87C75.6625 372.45 74.8688 371.88 74.1938 371.16C73.5188 370.44 72.9844 369.593 72.5906 368.62C72.1969 367.647 72 366.607 72 365.5C72 364.393 72.1969 363.353 72.5906 362.38C72.9844 361.407 73.5188 360.56 74.1938 359.84C74.8688 359.12 75.6625 358.55 76.575 358.13C77.4875 357.71 78.4625 357.5 79.5 357.5C80.5375 357.5 81.5125 357.71 82.425 358.13C83.3375 358.55 84.1313 359.12 84.8063 359.84C85.4813 360.56 86.0156 361.407 86.4094 362.38C86.8031 363.353 87 364.393 87 365.5C87 366.607 86.8031 367.647 86.4094 368.62C86.0156 369.593 85.4813 370.44 84.8063 371.16C84.1313 371.88 83.3375 372.45 82.425 372.87C81.5125 373.29 80.5375 373.5 79.5 373.5Z" fill="#A8C400"/>
<path d="M97.8828 371.156C96.862 371.156 95.9479 370.919 95.1406 370.445C94.3385 369.971 93.7057 369.289 93.2422 368.398C92.7839 367.508 92.5547 366.438 92.5547 365.188C92.5547 363.932 92.7865 362.859 93.25 361.969C93.7188 361.073 94.3542 360.388 95.1562 359.914C95.9635 359.44 96.8724 359.203 97.8828 359.203C98.5234 359.203 99.1224 359.294 99.6797 359.477C100.242 359.659 100.742 359.927 101.18 360.281C101.617 360.63 101.974 361.06 102.25 361.57C102.531 362.076 102.716 362.651 102.805 363.297H100.68C100.622 362.943 100.51 362.63 100.344 362.359C100.182 362.089 99.9792 361.859 99.7344 361.672C99.4948 361.479 99.2214 361.336 98.9141 361.242C98.6068 361.143 98.276 361.094 97.9219 361.094C97.2865 361.094 96.724 361.253 96.2344 361.57C95.7448 361.883 95.362 362.346 95.0859 362.961C94.8099 363.57 94.6719 364.312 94.6719 365.188C94.6719 366.073 94.8099 366.82 95.0859 367.43C95.3672 368.034 95.75 368.492 96.2344 368.805C96.724 369.112 97.2839 369.266 97.9141 369.266C98.263 369.266 98.5885 369.221 98.8906 369.133C99.1927 369.039 99.4661 368.901 99.7109 368.719C99.9609 368.531 100.167 368.307 100.328 368.047C100.495 367.781 100.612 367.477 100.68 367.133H102.805C102.727 367.69 102.555 368.214 102.289 368.703C102.029 369.188 101.685 369.615 101.258 369.984C100.836 370.349 100.341 370.635 99.7734 370.844C99.2057 371.052 98.5755 371.156 97.8828 371.156ZM106.586 371.18C106.029 371.18 105.529 371.081 105.086 370.883C104.643 370.68 104.294 370.383 104.039 369.992C103.784 369.602 103.656 369.12 103.656 368.547C103.656 368.057 103.747 367.651 103.93 367.328C104.112 367.005 104.359 366.747 104.672 366.555C104.99 366.362 105.346 366.216 105.742 366.117C106.138 366.013 106.547 365.94 106.969 365.898C107.484 365.841 107.901 365.792 108.219 365.75C108.536 365.708 108.766 365.641 108.906 365.547C109.052 365.453 109.125 365.307 109.125 365.109V365.07C109.125 364.648 109 364.32 108.75 364.086C108.5 363.852 108.135 363.734 107.656 363.734C107.151 363.734 106.75 363.844 106.453 364.062C106.161 364.281 105.964 364.539 105.859 364.836L103.945 364.562C104.096 364.031 104.346 363.589 104.695 363.234C105.044 362.875 105.469 362.607 105.969 362.43C106.474 362.247 107.031 362.156 107.641 362.156C108.057 362.156 108.474 362.206 108.891 362.305C109.307 362.398 109.69 362.56 110.039 362.789C110.388 363.018 110.667 363.326 110.875 363.711C111.083 364.096 111.188 364.578 111.188 365.156V371H109.211V369.797H109.148C109.023 370.036 108.846 370.263 108.617 370.477C108.393 370.685 108.112 370.854 107.773 370.984C107.44 371.115 107.044 371.18 106.586 371.18ZM107.109 369.664C107.526 369.664 107.885 369.583 108.188 369.422C108.49 369.255 108.724 369.036 108.891 368.766C109.057 368.49 109.141 368.19 109.141 367.867V366.844C109.073 366.896 108.964 366.945 108.812 366.992C108.661 367.034 108.49 367.073 108.297 367.109C108.104 367.146 107.914 367.177 107.727 367.203C107.544 367.229 107.385 367.25 107.25 367.266C106.943 367.307 106.667 367.378 106.422 367.477C106.182 367.57 105.992 367.701 105.852 367.867C105.711 368.034 105.641 368.25 105.641 368.516C105.641 368.896 105.779 369.182 106.055 369.375C106.331 369.568 106.682 369.664 107.109 369.664ZM117.734 368.609L120.328 362.266H121.977L118.453 371H117.016L113.562 362.266H115.211L117.734 368.609ZM114.688 362.266V371H112.711V362.266H114.688ZM120.859 371V362.266H122.82V371H120.859ZM128.141 371.172C127.286 371.172 126.547 370.984 125.922 370.609C125.297 370.234 124.812 369.708 124.469 369.031C124.13 368.354 123.961 367.568 123.961 366.672C123.961 365.771 124.13 364.982 124.469 364.305C124.812 363.622 125.297 363.094 125.922 362.719C126.547 362.344 127.286 362.156 128.141 362.156C128.995 362.156 129.734 362.344 130.359 362.719C130.984 363.094 131.469 363.622 131.812 364.305C132.156 364.982 132.328 365.771 132.328 366.672C132.328 367.568 132.156 368.354 131.812 369.031C131.469 369.708 130.984 370.234 130.359 370.609C129.734 370.984 128.995 371.172 128.141 371.172ZM128.141 369.516C128.615 369.516 129.005 369.391 129.312 369.141C129.62 368.885 129.849 368.542 130 368.109C130.156 367.677 130.234 367.198 130.234 366.672C130.234 366.135 130.156 365.651 130 365.219C129.849 364.786 129.62 364.445 129.312 364.195C129.005 363.94 128.615 363.812 128.141 363.812C127.677 363.812 127.289 363.94 126.977 364.195C126.664 364.445 126.43 364.786 126.273 365.219C126.122 365.651 126.047 366.135 126.047 366.672C126.047 367.198 126.122 367.677 126.273 368.109C126.43 368.542 126.664 368.885 126.977 369.141C127.289 369.391 127.677 369.516 128.141 369.516ZM133.461 371V362.266H135.516V365.797H136.266L138.898 362.266H141.367L138.141 366.562L141.398 371H138.914L136.516 367.703H135.516V371H133.461ZM145.406 371.172C144.552 371.172 143.812 370.984 143.188 370.609C142.562 370.234 142.078 369.708 141.734 369.031C141.396 368.354 141.227 367.568 141.227 366.672C141.227 365.771 141.396 364.982 141.734 364.305C142.078 363.622 142.562 363.094 143.188 362.719C143.812 362.344 144.552 362.156 145.406 362.156C146.26 362.156 147 362.344 147.625 362.719C148.25 363.094 148.734 363.622 149.078 364.305C149.422 364.982 149.594 365.771 149.594 366.672C149.594 367.568 149.422 368.354 149.078 369.031C148.734 369.708 148.25 370.234 147.625 370.609C147 370.984 146.26 371.172 145.406 371.172ZM145.406 369.516C145.88 369.516 146.271 369.391 146.578 369.141C146.885 368.885 147.115 368.542 147.266 368.109C147.422 367.677 147.5 367.198 147.5 366.672C147.5 366.135 147.422 365.651 147.266 365.219C147.115 364.786 146.885 364.445 146.578 364.195C146.271 363.94 145.88 363.812 145.406 363.812C144.943 363.812 144.555 363.94 144.242 364.195C143.93 364.445 143.695 364.786 143.539 365.219C143.388 365.651 143.312 366.135 143.312 366.672C143.312 367.198 143.388 367.677 143.539 368.109C143.695 368.542 143.93 368.885 144.242 369.141C144.555 369.391 144.943 369.516 145.406 369.516ZM156.711 365.781V367.469H152.078V365.781H156.711ZM152.703 362.266V371H150.727V362.266H152.703ZM158.07 362.266V371H156.094V362.266H158.07ZM158.609 363.953V362.266H166.242V363.953H163.422V371H161.43V363.953H158.609ZM167.289 374.266V362.266H169.305V363.711H169.43C169.534 363.503 169.682 363.279 169.875 363.039C170.068 362.794 170.328 362.586 170.656 362.414C170.99 362.242 171.414 362.156 171.93 362.156C172.602 362.156 173.208 362.328 173.75 362.672C174.292 363.016 174.721 363.521 175.039 364.188C175.362 364.854 175.523 365.674 175.523 366.648C175.523 367.607 175.367 368.422 175.055 369.094C174.742 369.766 174.312 370.279 173.766 370.633C173.224 370.982 172.609 371.156 171.922 371.156C171.427 371.156 171.013 371.073 170.68 370.906C170.352 370.734 170.086 370.531 169.883 370.297C169.685 370.057 169.534 369.831 169.43 369.617H169.344V374.266H167.289ZM171.359 369.469C171.812 369.469 172.19 369.346 172.492 369.102C172.799 368.857 173.031 368.521 173.188 368.094C173.344 367.667 173.422 367.182 173.422 366.641C173.422 366.099 173.344 365.617 173.188 365.195C173.031 364.773 172.802 364.443 172.5 364.203C172.198 363.964 171.818 363.844 171.359 363.844C170.917 363.844 170.542 363.958 170.234 364.188C169.932 364.417 169.701 364.742 169.539 365.164C169.383 365.581 169.305 366.073 169.305 366.641C169.305 367.203 169.383 367.698 169.539 368.125C169.701 368.547 169.935 368.878 170.242 369.117C170.549 369.352 170.922 369.469 171.359 369.469ZM180.469 371.172C179.615 371.172 178.875 370.984 178.25 370.609C177.625 370.234 177.141 369.708 176.797 369.031C176.458 368.354 176.289 367.568 176.289 366.672C176.289 365.771 176.458 364.982 176.797 364.305C177.141 363.622 177.625 363.094 178.25 362.719C178.875 362.344 179.615 362.156 180.469 362.156C181.323 362.156 182.062 362.344 182.688 362.719C183.312 363.094 183.797 363.622 184.141 364.305C184.484 364.982 184.656 365.771 184.656 366.672C184.656 367.568 184.484 368.354 184.141 369.031C183.797 369.708 183.312 370.234 182.688 370.609C182.062 370.984 181.323 371.172 180.469 371.172ZM180.469 369.516C180.943 369.516 181.333 369.391 181.641 369.141C181.948 368.885 182.177 368.542 182.328 368.109C182.484 367.677 182.562 367.198 182.562 366.672C182.562 366.135 182.484 365.651 182.328 365.219C182.177 364.786 181.948 364.445 181.641 364.195C181.333 363.94 180.943 363.812 180.469 363.812C180.005 363.812 179.617 363.94 179.305 364.195C178.992 364.445 178.758 364.786 178.602 365.219C178.451 365.651 178.375 366.135 178.375 366.672C178.375 367.198 178.451 367.677 178.602 368.109C178.758 368.542 178.992 368.885 179.305 369.141C179.617 369.391 180.005 369.516 180.469 369.516ZM185.188 371L185.18 369.305H185.469C185.776 369.305 186.018 369.211 186.195 369.023C186.378 368.836 186.516 368.513 186.609 368.055C186.703 367.591 186.766 366.953 186.797 366.141L186.945 362.266H193.312V371H191.32V363.953H188.82L188.68 366.781C188.643 367.505 188.562 368.133 188.438 368.664C188.312 369.195 188.133 369.635 187.898 369.984C187.669 370.328 187.383 370.583 187.039 370.75C186.695 370.917 186.289 371 185.82 371H185.188ZM196.234 365.117H198.805C199.914 365.112 200.773 365.383 201.383 365.93C201.997 366.471 202.305 367.18 202.305 368.055C202.305 368.628 202.167 369.135 201.891 369.578C201.615 370.021 201.216 370.37 200.695 370.625C200.174 370.875 199.544 371 198.805 371H194.836V362.266H196.812V369.312H198.805C199.247 369.312 199.612 369.201 199.898 368.977C200.19 368.747 200.336 368.451 200.336 368.086C200.336 367.706 200.19 367.396 199.898 367.156C199.612 366.917 199.247 366.799 198.805 366.805H196.234V365.117Z" fill="black"/>
</svg>
