<svg width="455" height="464" viewBox="0 0 455 464" fill="none" xmlns="http://www.w3.org/2000/svg">
<path d="M401.394 132.442L227.366 6.32837L30.7378 120.689L54.6948 334.494L227.366 459.704L378.341 320.482L401.394 132.442Z" fill="#E5FE4F" stroke="#3C4600" stroke-width="1.80808"/>
<path d="M423.366 119.628V345.95L227.365 459.111L31.3652 345.95V119.628L227.365 6.46802L423.366 119.628Z" stroke="black" stroke-width="1.80808"/>
<path d="M377.957 145.845V319.733L227.366 406.677L76.7756 319.733V145.845L227.366 58.9021L377.957 145.845Z" stroke="black" stroke-width="1.80808"/>
<path d="M401.444 132.285V333.294L227.365 433.798L53.2869 333.294V132.285L227.365 31.7812L401.444 132.285Z" stroke="black" stroke-width="1.80808"/>
<path d="M358.385 157.146V308.433L227.366 384.076L96.3489 308.433V157.146L227.366 81.5034L358.385 157.146Z" stroke="black" stroke-width="1.80808"/>
<path d="M314.541 182.458V283.12L227.366 333.45L140.192 283.12V182.458L227.366 132.129L314.541 182.458Z" stroke="black" stroke-width="1.80808"/>
<path d="M276.177 204.608V260.971L227.366 289.152L178.554 260.971V204.608L227.366 176.427L276.177 204.608Z" stroke="black" stroke-width="1.80808"/>
<path d="M335.68 170.254V295.323L227.367 357.859L119.053 295.323V170.254L227.367 107.72L335.68 170.254Z" stroke="black" stroke-width="1.80808"/>
<path d="M293.403 194.663V270.915L227.367 309.04L161.332 270.915V194.663L227.367 156.538L293.403 194.663Z" stroke="black" stroke-width="1.80808"/>
<path d="M257.388 215.456V250.122L227.367 267.454L197.346 250.122V215.456L227.367 198.124L257.388 215.456Z" stroke="black" stroke-width="1.80808"/>
<circle cx="227.366" cy="5.87628" r="4.97221" fill="#E0FD35" stroke="black" stroke-width="1.80808"/>
<circle cx="31.1898" cy="120.689" r="4.97221" fill="#E0FD35" stroke="black" stroke-width="1.80808"/>
<circle cx="53.7903" cy="334.042" r="4.97221" fill="#E0FD35" stroke="black" stroke-width="1.80808"/>
<circle cx="227.366" cy="457.896" r="4.97221" fill="#E0FD35" stroke="black" stroke-width="1.80808"/>
<circle cx="379.245" cy="319.577" r="4.97221" fill="#E0FD35" stroke="black" stroke-width="1.80808"/>
<circle cx="400.941" cy="132.441" r="4.97221" fill="#E0FD35" stroke="black" stroke-width="1.80808"/>
<rect x="216.518" y="16.7242" width="157.425" height="27.1363" rx="8.58837" fill="white"/>
<rect x="216.518" y="16.7242" width="157.425" height="27.1363" rx="8.58837" stroke="black" stroke-width="0.904039"/>
<path d="M242.68 34.3734C242.305 34.3734 241.986 34.2411 241.723 33.9766C241.46 33.7121 241.328 33.391 241.328 33.0131V30.7459C241.328 30.3681 241.46 30.0469 241.723 29.7824C241.986 29.5179 242.305 29.3856 242.68 29.3856C243.056 29.3856 243.375 29.5179 243.638 29.7824C243.901 30.0469 244.032 30.3681 244.032 30.7459V33.0131C244.032 33.391 243.901 33.7121 243.638 33.9766C243.375 34.2411 243.056 34.3734 242.68 34.3734ZM242.23 37.5474V36.1418C241.464 36.0209 240.821 35.6695 240.303 35.0876C239.785 34.5056 239.526 33.8142 239.526 33.0131H240.427C240.427 33.6479 240.645 34.1845 241.081 34.6228C241.516 35.0611 242.049 35.2803 242.68 35.2803C243.311 35.2803 243.844 35.0611 244.28 34.6228C244.715 34.1845 244.933 33.6479 244.933 33.0131H245.835C245.835 33.8142 245.575 34.5056 245.057 35.0876C244.539 35.6695 243.897 36.0209 243.131 36.1418V37.5474H242.23ZM232.316 30.2925C231.325 30.2925 230.476 29.9373 229.77 29.2269C229.064 28.5166 228.711 27.6626 228.711 26.6651C228.711 25.6675 229.064 24.8135 229.77 24.1032C230.476 23.3928 231.325 23.0376 232.316 23.0376C232.526 23.0376 232.733 23.0527 232.936 23.0829C233.138 23.1132 233.337 23.1661 233.533 23.2416C233.142 23.7102 232.842 24.2354 232.631 24.8173C232.421 25.3992 232.316 26.0151 232.316 26.6651C232.316 27.315 232.421 27.9309 232.631 28.5128C232.842 29.0947 233.142 29.6199 233.533 30.0885C233.337 30.164 233.138 30.2169 232.936 30.2472C232.733 30.2774 232.526 30.2925 232.316 30.2925ZM225.106 37.5474V35.0309C225.106 34.517 225.234 34.0409 225.489 33.6026C225.745 33.1642 226.098 32.8317 226.548 32.605C227.119 32.3027 227.739 32.042 228.407 31.8228C229.075 31.6037 229.808 31.4336 230.604 31.3127C230.003 31.7359 229.537 32.2725 229.207 32.9224C228.876 33.5723 228.711 34.2752 228.711 35.0309V37.5474H225.106ZM237.723 30.2925C236.732 30.2925 235.883 29.9373 235.177 29.2269C234.471 28.5166 234.119 27.6626 234.119 26.6651C234.119 25.6675 234.471 24.8135 235.177 24.1032C235.883 23.3928 236.732 23.0376 237.723 23.0376C238.715 23.0376 239.563 23.3928 240.269 24.1032C240.975 24.8135 241.328 25.6675 241.328 26.6651C241.328 27.6626 240.975 28.5166 240.269 29.2269C239.563 29.9373 238.715 30.2925 237.723 30.2925ZM230.514 37.5474V35.0309C230.514 34.517 230.641 34.0409 230.897 33.6026C231.152 33.1642 231.505 32.8317 231.956 32.605C232.722 32.212 233.589 31.8795 234.558 31.6075C235.527 31.3354 236.582 31.1994 237.723 31.1994C237.904 31.1994 238.08 31.2032 238.253 31.2107C238.426 31.2183 238.595 31.2296 238.76 31.2447C238.129 32.3934 238.009 33.5874 238.399 34.8268C238.79 36.0662 239.563 36.9731 240.72 37.5474H230.514Z" fill="#A8C400"/>
<path d="M251.118 35.7925V25.2689H255.158C255.916 25.2689 256.547 25.389 257.051 25.6291C257.554 25.8645 257.931 26.1894 258.181 26.6038C258.43 27.0134 258.555 27.4772 258.555 27.9951C258.555 28.4236 258.472 28.7909 258.308 29.0969C258.148 29.3983 257.929 29.6431 257.651 29.8315C257.373 30.0198 257.062 30.1564 256.719 30.2411V30.3471C257.095 30.3612 257.453 30.4742 257.792 30.6861C258.136 30.8933 258.416 31.1852 258.633 31.5619C258.854 31.9385 258.965 32.3929 258.965 32.925C258.965 33.4712 258.833 33.9609 258.569 34.394C258.31 34.8225 257.915 35.1639 257.382 35.4182C256.855 35.6677 256.189 35.7925 255.384 35.7925H251.118ZM253.025 34.2033H255.073C255.765 34.2033 256.264 34.0692 256.57 33.8008C256.881 33.5324 257.036 33.191 257.036 32.7767C257.036 32.4612 256.959 32.1787 256.803 31.9291C256.648 31.6796 256.427 31.4818 256.139 31.3359C255.857 31.1899 255.523 31.1169 255.136 31.1169H253.025V34.2033ZM253.025 29.7467H254.918C255.242 29.7467 255.537 29.6855 255.8 29.5631C256.064 29.4407 256.271 29.2688 256.422 29.0475C256.577 28.8215 256.655 28.5555 256.655 28.2494C256.655 27.8445 256.511 27.5102 256.224 27.2465C255.937 26.9781 255.516 26.8439 254.96 26.8439H253.025V29.7467ZM259.847 33.6242H261.684C261.707 33.9208 261.841 34.1516 262.086 34.3164C262.331 34.4764 262.651 34.5565 263.047 34.5565C263.447 34.5565 263.784 34.4694 264.057 34.2952C264.335 34.1162 264.474 33.8455 264.474 33.4829C264.474 33.2664 264.419 33.078 264.311 32.9179C264.207 32.7578 264.059 32.6331 263.866 32.5436C263.673 32.4541 263.449 32.4094 263.195 32.4094H261.98V31.0887H263.195C263.577 31.0887 263.866 31.0015 264.064 30.8273C264.266 30.6484 264.368 30.4248 264.368 30.1564C264.368 29.8597 264.262 29.6219 264.05 29.443C263.843 29.2641 263.553 29.1746 263.181 29.1746C262.814 29.1746 262.508 29.257 262.263 29.4218C262.018 29.5866 261.889 29.8009 261.874 30.0645H260.045C260.055 29.6078 260.191 29.2099 260.455 28.8709C260.723 28.5272 261.086 28.2635 261.542 28.0799C262.004 27.8916 262.522 27.7974 263.096 27.7974C263.713 27.7974 264.245 27.8892 264.692 28.0728C265.14 28.2565 265.486 28.5154 265.731 28.8497C265.976 29.1793 266.096 29.5678 266.091 30.0151C266.096 30.4436 265.964 30.7967 265.695 31.0745C265.427 31.3523 265.064 31.5524 264.608 31.6749V31.7526C264.923 31.7714 265.206 31.8609 265.455 32.0209C265.71 32.181 265.91 32.3953 266.056 32.6637C266.202 32.932 266.275 33.2452 266.275 33.603C266.275 34.088 266.136 34.5071 265.858 34.8602C265.585 35.2086 265.206 35.477 264.721 35.6654C264.236 35.8537 263.68 35.9479 263.054 35.9479C262.446 35.9479 261.903 35.856 261.422 35.6724C260.947 35.4888 260.568 35.2251 260.285 34.8814C260.007 34.5329 259.862 34.1139 259.847 33.6242ZM269.206 35.9549C268.702 35.9549 268.25 35.8655 267.85 35.6865C267.449 35.5029 267.134 35.2345 266.903 34.8814C266.672 34.5282 266.557 34.0927 266.557 33.5748C266.557 33.1322 266.639 32.7649 266.804 32.473C266.969 32.181 267.193 31.948 267.475 31.7737C267.762 31.5995 268.085 31.4677 268.443 31.3782C268.801 31.2841 269.17 31.2181 269.552 31.1805C270.018 31.1287 270.395 31.0839 270.682 31.0463C270.969 31.0086 271.176 30.9474 271.303 30.8626C271.435 30.7779 271.501 30.6461 271.501 30.4671V30.4318C271.501 30.0504 271.388 29.7538 271.162 29.5419C270.936 29.33 270.606 29.2241 270.173 29.2241C269.716 29.2241 269.354 29.323 269.086 29.5207C268.822 29.7185 268.643 29.9515 268.549 30.2199L266.818 29.9727C266.955 29.4925 267.181 29.0922 267.496 28.7721C267.812 28.4472 268.196 28.2047 268.648 28.0446C269.104 27.8798 269.608 27.7974 270.159 27.7974C270.536 27.7974 270.912 27.8421 271.289 27.9316C271.666 28.0163 272.012 28.1623 272.327 28.3695C272.643 28.5767 272.895 28.8545 273.083 29.2029C273.271 29.5513 273.366 29.9869 273.366 30.5095V35.7925H271.579V34.7048H271.522C271.409 34.9214 271.249 35.1262 271.042 35.3193C270.839 35.5076 270.585 35.6606 270.279 35.7784C269.978 35.8961 269.62 35.9549 269.206 35.9549ZM269.679 34.5847C270.055 34.5847 270.38 34.5118 270.653 34.3658C270.927 34.2151 271.138 34.0174 271.289 33.7725C271.44 33.523 271.515 33.2522 271.515 32.9603V32.0351C271.454 32.0822 271.355 32.1269 271.218 32.1693C271.082 32.2069 270.927 32.2422 270.752 32.2752C270.578 32.3082 270.406 32.3364 270.237 32.36C270.072 32.3835 269.928 32.4023 269.806 32.4165C269.528 32.4541 269.279 32.5177 269.057 32.6072C268.841 32.6919 268.669 32.8096 268.542 32.9603C268.415 33.111 268.351 33.3064 268.351 33.5465C268.351 33.8902 268.476 34.1492 268.725 34.3234C268.975 34.4976 269.293 34.5847 269.679 34.5847ZM276.53 33.2711L279.694 27.8963H281.601V35.7925H279.814V30.4106L276.657 35.7925H274.743V27.8963H276.53V33.2711ZM287.519 33.6313L289.864 27.8963H291.355L288.169 35.7925H286.87L283.748 27.8963H285.238L287.519 33.6313ZM284.765 27.8963V35.7925H282.978V27.8963H284.765ZM290.345 35.7925V27.8963H292.117V35.7925H290.345ZM296.927 35.9479C296.155 35.9479 295.486 35.7784 294.921 35.4393C294.356 35.1003 293.918 34.6248 293.608 34.0127C293.302 33.4005 293.148 32.6896 293.148 31.8797C293.148 31.0651 293.302 30.3518 293.608 29.7397C293.918 29.1228 294.356 28.6449 294.921 28.3059C295.486 27.9669 296.155 27.7974 296.927 27.7974C297.699 27.7974 298.368 27.9669 298.933 28.3059C299.498 28.6449 299.936 29.1228 300.247 29.7397C300.557 30.3518 300.713 31.0651 300.713 31.8797C300.713 32.6896 300.557 33.4005 300.247 34.0127C299.936 34.6248 299.498 35.1003 298.933 35.4393C298.368 35.7784 297.699 35.9479 296.927 35.9479ZM296.927 34.4505C297.356 34.4505 297.709 34.3375 297.987 34.1115C298.264 33.8808 298.471 33.5701 298.608 33.1792C298.749 32.7884 298.82 32.3553 298.82 31.8797C298.82 31.3947 298.749 30.9568 298.608 30.566C298.471 30.1752 298.264 29.8668 297.987 29.6408C297.709 29.4101 297.356 29.2947 296.927 29.2947C296.508 29.2947 296.157 29.4101 295.875 29.6408C295.592 29.8668 295.38 30.1752 295.239 30.566C295.103 30.9568 295.034 31.3947 295.034 31.8797C295.034 32.3553 295.103 32.7884 295.239 33.1792C295.38 33.5701 295.592 33.8808 295.875 34.1115C296.157 34.3375 296.508 34.4505 296.927 34.4505ZM301.038 38.0879V34.2599H301.659C301.829 34.1327 301.97 33.9585 302.083 33.7372C302.196 33.5112 302.288 33.2452 302.358 32.9391C302.434 32.6283 302.495 32.2823 302.542 31.9009C302.594 31.5195 302.639 31.1098 302.676 30.6719L302.902 27.8963H308.609V34.2599H309.824V38.0879H308.03V35.7925H302.867V38.0879H301.038ZM303.573 34.2599H306.829V29.4006H304.52L304.392 30.6719C304.327 31.5054 304.235 32.2211 304.117 32.819C304.004 33.4123 303.823 33.8926 303.573 34.2599ZM314.174 35.9479C313.383 35.9479 312.701 35.7831 312.126 35.4535C311.552 35.1192 311.109 34.6483 310.798 34.0409C310.492 33.4335 310.339 32.7178 310.339 31.8938C310.339 31.0792 310.492 30.3659 310.798 29.7538C311.104 29.137 311.535 28.6567 312.091 28.313C312.647 27.9693 313.301 27.7974 314.054 27.7974C314.539 27.7974 314.998 27.8751 315.432 28.0305C315.87 28.1858 316.256 28.426 316.59 28.7509C316.929 29.0758 317.195 29.4901 317.388 29.9939C317.581 30.493 317.678 31.0887 317.678 31.7808V32.36H311.208V31.1098H316.752L315.884 31.4771C315.884 31.0298 315.815 30.6413 315.679 30.3117C315.542 29.9774 315.34 29.7161 315.071 29.5278C314.803 29.3394 314.469 29.2453 314.069 29.2453C313.668 29.2453 313.327 29.3394 313.044 29.5278C312.762 29.7161 312.548 29.9704 312.402 30.2906C312.256 30.606 312.183 30.9592 312.183 31.35V32.2187C312.183 32.699 312.265 33.111 312.43 33.4547C312.599 33.7937 312.835 34.0527 313.136 34.2316C313.442 34.4105 313.798 34.5 314.203 34.5C314.466 34.5 314.707 34.4623 314.923 34.387C315.144 34.3116 315.333 34.1986 315.488 34.048C315.648 33.8926 315.771 33.7019 315.855 33.4759L317.593 33.6807C317.48 34.1374 317.27 34.5377 316.964 34.8814C316.663 35.2204 316.274 35.4841 315.799 35.6724C315.328 35.856 314.787 35.9479 314.174 35.9479ZM320.474 33.2711L323.639 27.8963H325.546V35.7925H323.759V30.4106L320.602 35.7925H318.688V27.8963H320.474V33.2711ZM322.106 26.9922C321.395 26.9922 320.816 26.8015 320.369 26.4201C319.926 26.0388 319.705 25.5396 319.705 24.9228H321.096C321.096 25.2195 321.188 25.4596 321.371 25.6432C321.555 25.8222 321.8 25.9116 322.106 25.9116C322.412 25.9116 322.657 25.8222 322.841 25.6432C323.024 25.4596 323.116 25.2195 323.116 24.9228H324.514C324.514 25.5396 324.291 26.0388 323.843 26.4201C323.401 26.8015 322.822 26.9922 322.106 26.9922ZM330.362 35.9479C329.576 35.9479 328.9 35.776 328.335 35.4323C327.77 35.0838 327.337 34.6036 327.036 33.9915C326.734 33.3794 326.584 32.6754 326.584 31.8797C326.584 31.0745 326.737 30.3659 327.043 29.7538C327.349 29.1417 327.784 28.6638 328.35 28.32C328.915 27.9716 329.581 27.7974 330.348 27.7974C330.993 27.7974 331.563 27.9151 332.057 28.1505C332.552 28.386 332.945 28.7179 333.237 29.1464C333.534 29.5702 333.703 30.0669 333.745 30.6366H331.966C331.919 30.3824 331.827 30.154 331.69 29.9515C331.554 29.7491 331.375 29.589 331.153 29.4713C330.937 29.3536 330.678 29.2947 330.377 29.2947C329.995 29.2947 329.661 29.3983 329.374 29.6055C329.091 29.8079 328.87 30.0999 328.71 30.4813C328.55 30.8626 328.47 31.3194 328.47 31.8514C328.47 32.3882 328.547 32.852 328.703 33.2428C328.858 33.6289 329.079 33.9279 329.367 34.1398C329.654 34.347 329.99 34.4505 330.377 34.4505C330.786 34.4505 331.132 34.3305 331.415 34.0903C331.702 33.8502 331.886 33.5183 331.966 33.0945H333.745C333.703 33.6548 333.538 34.1492 333.251 34.5777C332.964 35.0062 332.575 35.3428 332.086 35.5877C331.596 35.8278 331.022 35.9479 330.362 35.9479ZM333.894 29.4218V27.8963H340.794V29.4218H338.244V35.7925H336.443V29.4218H333.894ZM341.741 35.7925V27.8963H345.053C345.985 27.901 346.722 28.0917 347.264 28.4684C347.81 28.8403 348.083 29.3583 348.083 30.0222C348.083 30.4695 347.93 30.832 347.624 31.1098C347.318 31.3829 346.903 31.5689 346.381 31.6678C346.79 31.7008 347.151 31.8067 347.461 31.9856C347.777 32.1598 348.024 32.3882 348.203 32.6707C348.382 32.9532 348.471 33.2805 348.471 33.6525C348.471 34.0856 348.356 34.4647 348.125 34.7896C347.899 35.1097 347.57 35.3569 347.137 35.5312C346.708 35.7054 346.183 35.7925 345.562 35.7925H341.741ZM343.478 34.3234H345.562C345.905 34.3281 346.174 34.2504 346.367 34.0903C346.564 33.9255 346.661 33.7019 346.656 33.4194C346.661 33.0945 346.564 32.8402 346.367 32.6566C346.174 32.4683 345.905 32.3741 345.562 32.3741H343.478V34.3234ZM343.478 31.1734H345.088C345.465 31.1687 345.762 31.0863 345.978 30.9262C346.195 30.7661 346.303 30.5472 346.303 30.2694C346.303 29.9916 346.192 29.7773 345.971 29.6267C345.75 29.4713 345.444 29.3936 345.053 29.3936H343.478V31.1734ZM351.254 33.2711L354.418 27.8963H356.325V35.7925H354.538V30.4106L351.381 35.7925H349.467V27.8963H351.254V33.2711ZM361.199 35.9479C360.408 35.9479 359.725 35.7831 359.15 35.4535C358.576 35.1192 358.133 34.6483 357.823 34.0409C357.517 33.4335 357.363 32.7178 357.363 31.8938C357.363 31.0792 357.517 30.3659 357.823 29.7538C358.129 29.137 358.559 28.6567 359.115 28.313C359.671 27.9693 360.325 27.7974 361.079 27.7974C361.564 27.7974 362.023 27.8751 362.456 28.0305C362.894 28.1858 363.28 28.426 363.614 28.7509C363.953 29.0758 364.219 29.4901 364.412 29.9939C364.605 30.493 364.702 31.0887 364.702 31.7808V32.36H358.232V31.1098H363.777L362.908 31.4771C362.908 31.0298 362.84 30.6413 362.703 30.3117C362.566 29.9774 362.364 29.7161 362.096 29.5278C361.827 29.3394 361.493 29.2453 361.093 29.2453C360.692 29.2453 360.351 29.3394 360.069 29.5278C359.786 29.7161 359.572 29.9704 359.426 30.2906C359.28 30.606 359.207 30.9592 359.207 31.35V32.2187C359.207 32.699 359.289 33.111 359.454 33.4547C359.624 33.7937 359.859 34.0527 360.16 34.2316C360.466 34.4105 360.822 34.5 361.227 34.5C361.491 34.5 361.731 34.4623 361.947 34.387C362.169 34.3116 362.357 34.1986 362.512 34.048C362.672 33.8926 362.795 33.7019 362.88 33.4759L364.617 33.6807C364.504 34.1374 364.294 34.5377 363.988 34.8814C363.687 35.2204 363.299 35.4841 362.823 35.6724C362.352 35.856 361.811 35.9479 361.199 35.9479Z" fill="black"/>
<path d="M9.04004 78.1995H102.766C107.509 78.1995 111.353 82.0443 111.354 86.7874V96.7473C111.354 101.49 107.509 105.335 102.766 105.335H9.04004C4.29697 105.335 0.452148 101.49 0.452148 96.7473V86.7874C0.452333 82.0444 4.29709 78.1997 9.04004 78.1995Z" fill="white"/>
<path d="M9.04004 78.1995H102.766C107.509 78.1995 111.353 82.0443 111.354 86.7874V96.7473C111.354 101.49 107.509 105.335 102.766 105.335H9.04004C4.29697 105.335 0.452148 101.49 0.452148 96.7473V86.7874C0.452333 82.0444 4.29709 78.1997 9.04004 78.1995Z" stroke="black" stroke-width="0.904039"/>
<path d="M13.5114 99.0303C13.3449 99.0303 13.1899 98.9887 13.0461 98.9054C12.9024 98.8222 12.7927 98.705 12.717 98.5537L10.9467 95.3989H12.2631L13.1709 97.2146H15.259V96.3068H13.7156L12.8078 94.4911H10.4474L9.15376 92.2215C9.1235 92.1458 9.09702 92.0702 9.07433 91.9945C9.05163 91.9189 9.04028 91.8432 9.04028 91.7676C9.04028 91.7071 9.07811 91.5558 9.15376 91.3137L10.4474 89.0441H12.8078L13.7156 87.2284H15.259V86.3206H13.1709L12.2631 88.1362H10.9467L12.717 84.9815C12.7927 84.8302 12.9024 84.7129 13.0461 84.6297C13.1899 84.5465 13.3449 84.5049 13.5114 84.5049H15.7129C15.9701 84.5049 16.1857 84.5919 16.3597 84.7659C16.5337 84.9399 16.6207 85.1555 16.6207 85.4127V89.0441H15.259L14.3511 89.9519H16.6207V92.6754H14.6235L13.7156 90.8597H11.6276L10.7198 91.7676H13.1709L14.0788 93.5833H16.6207V98.1224C16.6207 98.3797 16.5337 98.5953 16.3597 98.7693C16.1857 98.9433 15.9701 99.0303 15.7129 99.0303H13.5114ZM17.608 98.4969C17.2524 98.1414 17.0746 97.7139 17.0746 97.2146C17.0746 96.8666 17.1579 96.5602 17.3243 96.2954C17.4907 96.0306 17.7101 95.815 17.9825 95.6486V87.8866C17.7101 87.7201 17.4907 87.5045 17.3243 87.2397C17.1579 86.975 17.0746 86.6686 17.0746 86.3206C17.0746 85.8212 17.2524 85.3938 17.608 85.0382C17.9636 84.6827 18.391 84.5049 18.8903 84.5049C19.3896 84.5049 19.8171 84.6827 20.1726 85.0382C20.5282 85.3938 20.706 85.8212 20.706 86.3206C20.706 86.6686 20.6228 86.975 20.4563 87.2397C20.2899 87.5045 20.0705 87.7201 19.7982 87.8866V90.1789L21.6138 89.0895C21.6138 88.575 21.7916 88.1362 22.1472 87.7731C22.5028 87.41 22.9302 87.2284 23.4295 87.2284C23.9288 87.2284 24.3563 87.4062 24.7118 87.7617C25.0674 88.1173 25.2452 88.5448 25.2452 89.0441C25.2452 89.5434 25.0674 89.9708 24.7118 90.3264C24.3563 90.682 23.9288 90.8597 23.4295 90.8597C23.2631 90.8597 23.108 90.8408 22.9642 90.803C22.8205 90.7652 22.6805 90.7084 22.5444 90.6328L20.479 91.8811L22.7713 93.6967C22.8772 93.6513 22.9831 93.6211 23.0891 93.606C23.195 93.5908 23.3085 93.5833 23.4295 93.5833C23.9288 93.5833 24.3563 93.761 24.7118 94.1166C25.0674 94.4722 25.2452 94.8996 25.2452 95.3989C25.2452 95.8982 25.0674 96.3257 24.7118 96.6812C24.3563 97.0368 23.9288 97.2146 23.4295 97.2146C22.8697 97.2146 22.412 97.0028 22.0564 96.5791C21.7008 96.1555 21.5609 95.6713 21.6365 95.1266L19.7982 93.6513V95.6713C20.0705 95.8377 20.2861 96.0533 20.445 96.3181C20.6039 96.5829 20.6833 96.8817 20.6833 97.2146C20.6833 97.7139 20.5093 98.1414 20.1613 98.4969C19.8133 98.8525 19.3896 99.0303 18.8903 99.0303C18.391 99.0303 17.9636 98.8525 17.608 98.4969Z" fill="#A8C400"/>
<path d="M31.8845 97.2676H29.8433L33.5583 86.744H35.9032L39.6112 97.2676H37.5771L34.7661 88.9052H34.6813L31.8845 97.2676ZM31.9551 93.1429H37.4994V94.6685H31.9551V93.1429ZM45.7911 92.5496V94.0752H41.6029V92.5496H45.7911ZM42.1679 89.3714V97.2676H40.381V89.3714H42.1679ZM47.0201 89.3714V97.2676H45.2332V89.3714H47.0201ZM50.6645 97.43C50.1606 97.43 49.7086 97.3406 49.3084 97.1616C48.9082 96.978 48.5927 96.7096 48.362 96.3565C48.1313 96.0033 48.0159 95.5678 48.0159 95.0499C48.0159 94.6073 48.0983 94.24 48.2631 93.9481C48.4279 93.6561 48.6516 93.4231 48.9341 93.2488C49.2213 93.0746 49.5438 92.9428 49.9017 92.8533C50.2595 92.7592 50.6291 92.6932 51.0105 92.6556C51.4767 92.6038 51.8534 92.559 52.1406 92.5214C52.4278 92.4837 52.635 92.4225 52.7621 92.3377C52.8939 92.253 52.9599 92.1211 52.9599 91.9422V91.9069C52.9599 91.5255 52.8469 91.2289 52.6209 91.017C52.3948 90.8051 52.0652 90.6992 51.6321 90.6992C51.1753 90.6992 50.8128 90.7981 50.5444 90.9958C50.2807 91.1936 50.1018 91.4266 50.0076 91.695L48.2772 91.4478C48.4138 90.9676 48.6398 90.5673 48.9553 90.2472C49.2707 89.9223 49.6545 89.6798 50.1065 89.5197C50.5632 89.3549 51.067 89.2725 51.6179 89.2725C51.9946 89.2725 52.3713 89.3172 52.748 89.4067C53.1247 89.4914 53.4707 89.6374 53.7862 89.8446C54.1017 90.0517 54.3536 90.3296 54.5419 90.678C54.7303 91.0264 54.8244 91.462 54.8244 91.9846V97.2676H53.0376V96.1799H52.9811C52.8681 96.3965 52.708 96.6013 52.5008 96.7944C52.2983 96.9827 52.0441 97.1357 51.738 97.2535C51.4367 97.3712 51.0788 97.43 50.6645 97.43ZM51.1377 96.0598C51.5143 96.0598 51.8392 95.9869 52.1123 95.8409C52.3854 95.6902 52.5973 95.4925 52.748 95.2476C52.8987 94.9981 52.974 94.7273 52.974 94.4354V93.5102C52.9128 93.5573 52.8139 93.602 52.6774 93.6444C52.5408 93.682 52.3854 93.7173 52.2112 93.7503C52.037 93.7833 51.8651 93.8115 51.6956 93.8351C51.5308 93.8586 51.3872 93.8774 51.2648 93.8916C50.987 93.9292 50.7374 93.9928 50.5161 94.0823C50.2995 94.167 50.1277 94.2847 50.0006 94.4354C49.8734 94.5861 49.8099 94.7815 49.8099 95.0216C49.8099 95.3653 49.9346 95.6243 50.1842 95.7985C50.4337 95.9727 50.7516 96.0598 51.1377 96.0598ZM55.6579 97.2676L55.6508 95.735H55.9121C56.1899 95.735 56.4089 95.6502 56.569 95.4807C56.7338 95.3112 56.8585 95.0193 56.9433 94.6049C57.028 94.1858 57.0845 93.609 57.1128 92.8745L57.247 89.3714H63.0032V97.2676H61.2022V90.8969H58.9421L58.8149 93.4537C58.782 94.1082 58.709 94.6755 58.596 95.1558C58.483 95.6361 58.3205 96.0339 58.1086 96.3494C57.9015 96.6602 57.6425 96.8909 57.3317 97.0416C57.021 97.1922 56.6537 97.2676 56.2299 97.2676H55.6579ZM66.1673 94.7462L69.3314 89.3714H71.2384V97.2676H69.4515V91.8857L66.2944 97.2676H64.3804V89.3714H66.1673V94.7462ZM71.7469 90.8969V89.3714H78.6473V90.8969H76.0976V97.2676H74.2966V90.8969H71.7469ZM81.3806 94.7462L84.5447 89.3714H86.4517V97.2676H84.6648V91.8857L81.5077 97.2676H79.5937V89.3714H81.3806V94.7462ZM87.8289 97.2676V89.3714H89.6864V92.5638H90.3645L92.7446 89.3714H94.9765L92.0595 93.2559L95.0047 97.2676H92.7588L90.5905 94.2871H89.6864V97.2676H87.8289ZM97.7875 97.43C97.2837 97.43 96.8316 97.3406 96.4314 97.1616C96.0312 96.978 95.7157 96.7096 95.485 96.3565C95.2543 96.0033 95.1389 95.5678 95.1389 95.0499C95.1389 94.6073 95.2213 94.24 95.3861 93.9481C95.5509 93.6561 95.7746 93.4231 96.0571 93.2488C96.3443 93.0746 96.6668 92.9428 97.0247 92.8533C97.3825 92.7592 97.7522 92.6932 98.1335 92.6556C98.5997 92.6038 98.9764 92.559 99.2636 92.5214C99.5508 92.4837 99.758 92.4225 99.8851 92.3377C100.017 92.253 100.083 92.1211 100.083 91.9422V91.9069C100.083 91.5255 99.9699 91.2289 99.7439 91.017C99.5179 90.8051 99.1883 90.6992 98.7551 90.6992C98.2983 90.6992 97.9358 90.7981 97.6674 90.9958C97.4037 91.1936 97.2248 91.4266 97.1306 91.695L95.4002 91.4478C95.5368 90.9676 95.7628 90.5673 96.0783 90.2472C96.3937 89.9223 96.7775 89.6798 97.2295 89.5197C97.6862 89.3549 98.19 89.2725 98.7409 89.2725C99.1176 89.2725 99.4943 89.3172 99.871 89.4067C100.248 89.4914 100.594 89.6374 100.909 89.8446C101.225 90.0517 101.477 90.3296 101.665 90.678C101.853 91.0264 101.947 91.462 101.947 91.9846V97.2676H100.161V96.1799H100.104C99.9911 96.3965 99.831 96.6013 99.6238 96.7944C99.4213 96.9827 99.1671 97.1357 98.861 97.2535C98.5597 97.3712 98.2018 97.43 97.7875 97.43ZM98.2607 96.0598C98.6374 96.0598 98.9622 95.9869 99.2353 95.8409C99.5084 95.6902 99.7203 95.4925 99.871 95.2476C100.022 94.9981 100.097 94.7273 100.097 94.4354V93.5102C100.036 93.5573 99.9369 93.602 99.8004 93.6444C99.6638 93.682 99.5084 93.7173 99.3342 93.7503C99.16 93.7833 98.9881 93.8115 98.8186 93.8351C98.6538 93.8586 98.5102 93.8774 98.3878 93.8916C98.11 93.9292 97.8605 93.9928 97.6392 94.0823C97.4226 94.167 97.2507 94.2847 97.1236 94.4354C96.9964 94.5861 96.9329 94.7815 96.9329 95.0216C96.9329 95.3653 97.0576 95.6243 97.3072 95.7985C97.5568 95.9727 97.8746 96.0598 98.2607 96.0598Z" fill="black"/>
<path d="M209.737 417.214H315.761C320.504 417.214 324.349 421.059 324.35 425.802V435.762C324.35 440.505 320.504 444.35 315.761 444.35H209.737C204.994 444.35 201.149 440.505 201.149 435.762V425.802C201.15 421.059 204.994 417.214 209.737 417.214Z" fill="white"/>
<path d="M209.737 417.214H315.761C320.504 417.214 324.349 421.059 324.35 425.802V435.762C324.35 440.505 320.504 444.35 315.761 444.35H209.737C204.994 444.35 201.149 440.505 201.149 435.762V425.802C201.15 421.059 204.994 417.214 209.737 417.214Z" stroke="black" stroke-width="0.904039"/>
<path d="M216.932 437.272C215.297 436.812 214.167 435.321 214.167 433.622V431.013C214.167 430.361 214.696 429.832 215.348 429.832C215.434 429.832 215.52 429.841 215.607 429.859C215.693 429.878 215.779 429.899 215.865 429.924L220.977 431.825C221.15 431.887 221.288 431.997 221.393 432.157C221.497 432.317 221.549 432.483 221.549 432.656C221.549 432.914 221.46 433.123 221.282 433.283C221.103 433.443 220.897 433.523 220.664 433.523H218.726C218.664 433.523 218.618 433.52 218.587 433.514C218.556 433.508 218.516 433.492 218.467 433.468L217.651 433.149C217.453 433.071 217.23 433.176 217.162 433.378C217.098 433.571 217.2 433.78 217.392 433.847L218.467 434.224C218.492 434.237 218.529 434.246 218.578 434.252C218.627 434.258 218.67 434.261 218.707 434.261H223.764C224.158 434.261 224.502 434.403 224.798 434.686C225.308 435.175 224.802 435.902 224.141 436.151L220.876 437.379C219.887 437.752 218.804 437.798 217.786 437.512L216.932 437.272ZM211.214 437.952C210.399 437.952 209.738 437.291 209.738 436.476V431.308C209.738 430.493 210.399 429.832 211.214 429.832C212.029 429.832 212.691 430.493 212.691 431.308V436.476C212.691 437.291 212.029 437.952 211.214 437.952ZM220.103 428.307C219.24 429.169 217.842 429.169 216.979 428.307L215.93 427.257C215.64 426.967 215.642 426.497 215.934 426.21C216.223 425.926 216.686 425.928 216.972 426.214L217.495 426.737C218.073 427.315 219.01 427.316 219.59 426.739L222.213 424.127C222.499 423.842 222.962 423.843 223.247 424.128C223.532 424.414 223.532 424.877 223.247 425.163L220.103 428.307Z" fill="#A8C400"/>
<path d="M230.524 436.282V425.758H232.431V430.215H237.304V425.758H239.211V436.282H237.304V431.818H232.431V436.282H230.524ZM242.933 436.444C242.429 436.444 241.977 436.355 241.577 436.176C241.177 435.992 240.861 435.724 240.631 435.371C240.4 435.018 240.285 434.582 240.285 434.064C240.285 433.622 240.367 433.254 240.532 432.962C240.697 432.671 240.92 432.437 241.203 432.263C241.49 432.089 241.812 431.957 242.17 431.868C242.528 431.774 242.898 431.708 243.279 431.67C243.745 431.618 244.122 431.573 244.409 431.536C244.696 431.498 244.904 431.437 245.031 431.352C245.163 431.267 245.229 431.136 245.229 430.957V430.921C245.229 430.54 245.116 430.243 244.89 430.031C244.663 429.82 244.334 429.714 243.901 429.714C243.444 429.714 243.081 429.812 242.813 430.01C242.549 430.208 242.37 430.441 242.276 430.709L240.546 430.462C240.682 429.982 240.908 429.582 241.224 429.262C241.539 428.937 241.923 428.694 242.375 428.534C242.832 428.369 243.336 428.287 243.887 428.287C244.263 428.287 244.64 428.332 245.017 428.421C245.393 428.506 245.739 428.652 246.055 428.859C246.37 429.066 246.622 429.344 246.811 429.692C246.999 430.041 247.093 430.476 247.093 430.999V436.282H245.306V435.194H245.25C245.137 435.411 244.977 435.616 244.769 435.809C244.567 435.997 244.313 436.15 244.007 436.268C243.705 436.386 243.347 436.444 242.933 436.444ZM243.406 435.074C243.783 435.074 244.108 435.001 244.381 434.855C244.654 434.705 244.866 434.507 245.017 434.262C245.167 434.012 245.243 433.742 245.243 433.45V432.525C245.181 432.572 245.083 432.616 244.946 432.659C244.809 432.696 244.654 432.732 244.48 432.765C244.306 432.798 244.134 432.826 243.964 432.849C243.799 432.873 243.656 432.892 243.533 432.906C243.256 432.944 243.006 433.007 242.785 433.097C242.568 433.181 242.396 433.299 242.269 433.45C242.142 433.6 242.079 433.796 242.079 434.036C242.079 434.38 242.203 434.639 242.453 434.813C242.702 434.987 243.02 435.074 243.406 435.074ZM247.771 438.577V434.749H248.393C248.562 434.622 248.703 434.448 248.816 434.227C248.929 434.001 249.021 433.735 249.092 433.429C249.167 433.118 249.228 432.772 249.276 432.39C249.327 432.009 249.372 431.599 249.41 431.161L249.636 428.386H255.342V434.749H256.557V438.577H254.763V436.282H249.6V438.577H247.771ZM250.307 434.749H253.563V429.89H251.253L251.126 431.161C251.06 431.995 250.968 432.711 250.851 433.309C250.738 433.902 250.556 434.382 250.307 434.749ZM260.908 436.437C260.117 436.437 259.434 436.273 258.86 435.943C258.285 435.609 257.843 435.138 257.532 434.53C257.226 433.923 257.073 433.207 257.073 432.383C257.073 431.569 257.226 430.855 257.532 430.243C257.838 429.626 258.269 429.146 258.824 428.802C259.38 428.459 260.035 428.287 260.788 428.287C261.273 428.287 261.732 428.365 262.165 428.52C262.603 428.675 262.989 428.915 263.323 429.24C263.662 429.565 263.928 429.98 264.122 430.483C264.315 430.983 264.411 431.578 264.411 432.27V432.849H257.942V431.599H263.486L262.617 431.967C262.617 431.519 262.549 431.131 262.412 430.801C262.276 430.467 262.073 430.206 261.805 430.017C261.537 429.829 261.202 429.735 260.802 429.735C260.402 429.735 260.06 429.829 259.778 430.017C259.495 430.206 259.281 430.46 259.135 430.78C258.989 431.096 258.916 431.449 258.916 431.839V432.708C258.916 433.188 258.999 433.6 259.163 433.944C259.333 434.283 259.568 434.542 259.87 434.721C260.176 434.9 260.531 434.989 260.936 434.989C261.2 434.989 261.44 434.952 261.657 434.876C261.878 434.801 262.066 434.688 262.222 434.537C262.382 434.382 262.504 434.191 262.589 433.965L264.326 434.17C264.213 434.627 264.004 435.027 263.698 435.371C263.396 435.71 263.008 435.974 262.532 436.162C262.062 436.346 261.52 436.437 260.908 436.437ZM264.771 436.282L267.681 432.207L264.792 428.386H266.933L269.186 431.578H269.623V428.386H271.488V431.578H271.919L274.158 428.386H276.305L273.43 432.207L276.333 436.282H274.144L271.905 433.097H271.488V436.282H269.623V433.097H269.207L266.961 436.282H264.771ZM282.612 431.564V433.09H278.424V431.564H282.612ZM278.989 428.386V436.282H277.202V428.386H278.989ZM283.841 428.386V436.282H282.054V428.386H283.841ZM288.651 436.437C287.878 436.437 287.21 436.268 286.645 435.929C286.08 435.59 285.642 435.114 285.331 434.502C285.025 433.89 284.872 433.179 284.872 432.369C284.872 431.555 285.025 430.841 285.331 430.229C285.642 429.612 286.08 429.134 286.645 428.795C287.21 428.456 287.878 428.287 288.651 428.287C289.423 428.287 290.091 428.456 290.656 428.795C291.221 429.134 291.659 429.612 291.97 430.229C292.281 430.841 292.436 431.555 292.436 432.369C292.436 433.179 292.281 433.89 291.97 434.502C291.659 435.114 291.221 435.59 290.656 435.929C290.091 436.268 289.423 436.437 288.651 436.437ZM288.651 434.94C289.079 434.94 289.432 434.827 289.71 434.601C289.988 434.37 290.195 434.06 290.332 433.669C290.473 433.278 290.543 432.845 290.543 432.369C290.543 431.884 290.473 431.446 290.332 431.056C290.195 430.665 289.988 430.356 289.71 430.13C289.432 429.9 289.079 429.784 288.651 429.784C288.232 429.784 287.881 429.9 287.598 430.13C287.316 430.356 287.104 430.665 286.963 431.056C286.826 431.446 286.758 431.884 286.758 432.369C286.758 432.845 286.826 433.278 286.963 433.669C287.104 434.06 287.316 434.37 287.598 434.601C287.881 434.827 288.232 434.94 288.651 434.94ZM296.9 436.437C296.114 436.437 295.438 436.266 294.873 435.922C294.308 435.573 293.875 435.093 293.573 434.481C293.272 433.869 293.121 433.165 293.121 432.369C293.121 431.564 293.274 430.855 293.58 430.243C293.887 429.631 294.322 429.153 294.887 428.81C295.452 428.461 296.118 428.287 296.886 428.287C297.531 428.287 298.101 428.405 298.595 428.64C299.089 428.875 299.483 429.207 299.775 429.636C300.071 430.06 300.241 430.556 300.283 431.126H298.503C298.456 430.872 298.364 430.644 298.228 430.441C298.091 430.239 297.912 430.078 297.691 429.961C297.474 429.843 297.215 429.784 296.914 429.784C296.533 429.784 296.198 429.888 295.911 430.095C295.629 430.297 295.407 430.589 295.247 430.971C295.087 431.352 295.007 431.809 295.007 432.341C295.007 432.878 295.085 433.342 295.24 433.732C295.396 434.118 295.617 434.417 295.904 434.629C296.191 434.836 296.528 434.94 296.914 434.94C297.324 434.94 297.67 434.82 297.952 434.58C298.24 434.34 298.423 434.008 298.503 433.584H300.283C300.241 434.144 300.076 434.639 299.789 435.067C299.501 435.496 299.113 435.832 298.623 436.077C298.134 436.317 297.559 436.437 296.9 436.437ZM300.431 429.911V428.386H307.332V429.911H304.782V436.282H302.981V429.911H300.431ZM309.542 430.964H311.866C312.869 430.959 313.646 431.204 314.197 431.698C314.752 432.188 315.03 432.828 315.03 433.619C315.03 434.137 314.905 434.596 314.656 434.997C314.406 435.397 314.046 435.712 313.575 435.943C313.104 436.169 312.535 436.282 311.866 436.282H308.278V428.386H310.065V434.756H311.866C312.266 434.756 312.596 434.655 312.855 434.453C313.119 434.246 313.25 433.977 313.25 433.648C313.25 433.304 313.119 433.024 312.855 432.807C312.596 432.59 312.266 432.485 311.866 432.489H309.542V430.964Z" fill="black"/>
<path d="M320.03 282.512H400.219C404.962 282.512 408.807 286.357 408.807 291.1V301.06C408.807 305.803 404.962 309.648 400.219 309.648H320.03C315.287 309.648 311.442 305.803 311.442 301.06V291.1C311.442 286.357 315.287 282.512 320.03 282.512Z" fill="white"/>
<path d="M320.03 282.512H400.219C404.962 282.512 408.807 286.357 408.807 291.1V301.06C408.807 305.803 404.962 309.648 400.219 309.648H320.03C315.287 309.648 311.442 305.803 311.442 301.06V291.1C311.442 286.357 315.287 282.512 320.03 282.512Z" stroke="black" stroke-width="0.904039"/>
<path d="M326.698 298.61C327.537 298.61 328.25 298.34 328.837 297.802C329.424 297.264 329.718 296.612 329.718 295.847C329.718 295.165 329.499 294.588 329.062 294.116C328.625 293.643 328.094 293.407 327.471 293.407C326.908 293.407 326.432 293.587 326.042 293.945C325.653 294.304 325.458 294.747 325.458 295.273C325.458 295.5 325.503 295.721 325.593 295.937C325.599 295.951 325.605 295.966 325.612 295.98C325.76 296.311 326.192 296.316 326.449 296.06L326.917 295.592C326.962 295.548 326.951 295.473 326.923 295.416C326.905 295.38 326.896 295.339 326.896 295.291C326.896 295.159 326.95 295.055 327.058 294.977C327.166 294.899 327.303 294.86 327.471 294.86C327.711 294.86 327.909 294.959 328.064 295.156C328.22 295.354 328.298 295.59 328.298 295.865C328.298 296.236 328.145 296.55 327.84 296.807C327.534 297.064 327.16 297.192 326.716 297.192C326.153 297.192 325.677 296.965 325.287 296.511C324.898 296.056 324.703 295.5 324.703 294.842C324.703 294.495 324.769 294.164 324.901 293.847C324.937 293.76 324.977 293.676 325.021 293.595C325.215 293.241 325.226 292.781 324.941 292.496C324.659 292.215 324.197 292.208 323.967 292.532C323.802 292.764 323.664 293.014 323.553 293.282C323.349 293.772 323.248 294.286 323.248 294.824C323.248 295.877 323.583 296.771 324.254 297.506C324.925 298.242 325.74 298.61 326.698 298.61ZM324.327 303.256C323.145 303.256 322.187 302.298 322.187 301.116C322.187 300.514 321.919 299.951 321.534 299.488C321.156 299.034 320.843 298.535 320.596 297.991C320.219 297.159 320.03 296.283 320.03 295.363C320.03 293.569 320.659 292.044 321.917 290.788C323.176 289.532 324.703 288.904 326.501 288.904C327.998 288.904 329.325 289.344 330.482 290.223C331.638 291.102 332.39 292.247 332.737 293.658L333.672 297.336C333.732 297.563 333.69 297.769 333.546 297.955C333.402 298.14 333.211 298.233 332.971 298.233C332.177 298.233 331.533 298.877 331.533 299.671V300.386C331.533 300.78 331.392 301.118 331.111 301.399C330.829 301.68 330.491 301.821 330.095 301.821H329.375C328.979 301.821 328.657 302.142 328.657 302.538C328.657 302.935 328.336 303.256 327.94 303.256H324.327Z" fill="#A8C400"/>
<path d="M345.755 291.057V292.653H340.888V301.58H338.982V291.057H345.755ZM347.711 299.059L350.875 293.684H352.782V301.58H350.995V296.198L347.838 301.58H345.924V293.684H347.711V299.059ZM360.467 290.774L361.123 291.968C360.893 292.17 360.634 292.316 360.347 292.405C360.064 292.495 359.73 292.554 359.344 292.582C358.962 292.606 358.51 292.622 357.988 292.632C357.399 292.646 356.919 292.756 356.547 292.963C356.175 293.171 355.888 293.486 355.685 293.91C355.487 294.334 355.36 294.875 355.304 295.534H355.388C355.633 295.049 355.977 294.68 356.42 294.425C356.867 294.171 357.39 294.044 357.988 294.044C358.642 294.044 359.219 294.19 359.718 294.482C360.222 294.774 360.615 295.198 360.897 295.753C361.185 296.309 361.326 296.982 361.321 297.773C361.326 298.583 361.175 299.285 360.869 299.878C360.563 300.471 360.13 300.93 359.57 301.255C359.009 301.575 358.348 301.735 357.585 301.735C356.431 301.735 355.516 301.361 354.838 300.612C354.164 299.859 353.825 298.76 353.82 297.314V296.615C353.825 294.755 354.171 293.371 354.859 292.462C355.551 291.549 356.577 291.08 357.938 291.057C358.343 291.047 358.706 291.045 359.026 291.049C359.346 291.054 359.626 291.04 359.866 291.007C360.106 290.969 360.306 290.892 360.467 290.774ZM357.592 300.252C357.973 300.248 358.301 300.149 358.574 299.956C358.852 299.758 359.066 299.478 359.216 299.115C359.367 298.753 359.44 298.322 359.435 297.823C359.44 297.333 359.367 296.916 359.216 296.573C359.066 296.224 358.852 295.96 358.574 295.782C358.296 295.603 357.962 295.513 357.571 295.513C357.284 295.513 357.027 295.565 356.801 295.669C356.575 295.767 356.38 295.916 356.215 296.113C356.055 296.311 355.932 296.554 355.848 296.841C355.763 297.128 355.718 297.455 355.713 297.823C355.709 298.562 355.873 299.15 356.208 299.588C356.542 300.026 357.003 300.248 357.592 300.252ZM362.352 301.58V293.684H364.21V296.876H364.888L367.268 293.684H369.5L366.583 297.568L369.528 301.58H367.282L365.114 298.6H364.21V301.58H362.352ZM373.151 301.735C372.379 301.735 371.711 301.566 371.146 301.227C370.581 300.888 370.143 300.412 369.832 299.8C369.526 299.188 369.373 298.477 369.373 297.667C369.373 296.853 369.526 296.139 369.832 295.527C370.143 294.91 370.581 294.433 371.146 294.094C371.711 293.754 372.379 293.585 373.151 293.585C373.924 293.585 374.592 293.754 375.157 294.094C375.722 294.433 376.16 294.91 376.471 295.527C376.782 296.139 376.937 296.853 376.937 297.667C376.937 298.477 376.782 299.188 376.471 299.8C376.16 300.412 375.722 300.888 375.157 301.227C374.592 301.566 373.924 301.735 373.151 301.735ZM373.151 300.238C373.58 300.238 373.933 300.125 374.211 299.899C374.489 299.668 374.696 299.358 374.832 298.967C374.974 298.576 375.044 298.143 375.044 297.667C375.044 297.182 374.974 296.744 374.832 296.354C374.696 295.963 374.489 295.654 374.211 295.428C373.933 295.198 373.58 295.082 373.151 295.082C372.732 295.082 372.382 295.198 372.099 295.428C371.817 295.654 371.605 295.963 371.463 296.354C371.327 296.744 371.259 297.182 371.259 297.667C371.259 298.143 371.327 298.576 371.463 298.967C371.605 299.358 371.817 299.668 372.099 299.899C372.382 300.125 372.732 300.238 373.151 300.238ZM381.401 301.735C380.614 301.735 379.939 301.564 379.374 301.22C378.809 300.871 378.375 300.391 378.074 299.779C377.773 299.167 377.622 298.463 377.622 297.667C377.622 296.862 377.775 296.153 378.081 295.541C378.387 294.929 378.823 294.451 379.388 294.108C379.953 293.759 380.619 293.585 381.387 293.585C382.032 293.585 382.601 293.703 383.096 293.938C383.59 294.174 383.983 294.506 384.275 294.934C384.572 295.358 384.741 295.854 384.784 296.424H383.004C382.957 296.17 382.865 295.942 382.729 295.739C382.592 295.537 382.413 295.377 382.192 295.259C381.975 295.141 381.716 295.082 381.415 295.082C381.033 295.082 380.699 295.186 380.412 295.393C380.129 295.596 379.908 295.887 379.748 296.269C379.588 296.65 379.508 297.107 379.508 297.639C379.508 298.176 379.586 298.64 379.741 299.03C379.896 299.417 380.118 299.715 380.405 299.927C380.692 300.135 381.029 300.238 381.415 300.238C381.824 300.238 382.171 300.118 382.453 299.878C382.74 299.638 382.924 299.306 383.004 298.882H384.784C384.741 299.442 384.577 299.937 384.289 300.365C384.002 300.794 383.614 301.13 383.124 301.375C382.634 301.615 382.06 301.735 381.401 301.735ZM384.932 295.209V293.684H391.832V295.209H389.283V301.58H387.482V295.209H384.932ZM394.043 296.262H396.367C397.37 296.257 398.147 296.502 398.698 296.996C399.253 297.486 399.531 298.126 399.531 298.917C399.531 299.435 399.406 299.894 399.157 300.295C398.907 300.695 398.547 301.01 398.076 301.241C397.605 301.467 397.035 301.58 396.367 301.58H392.779V293.684H394.566V300.055H396.367C396.767 300.055 397.097 299.953 397.356 299.751C397.619 299.544 397.751 299.275 397.751 298.946C397.751 298.602 397.619 298.322 397.356 298.105C397.097 297.889 396.767 297.783 396.367 297.787H394.043V296.262Z" fill="black"/>
<path d="M299.236 147.81H409.222C413.965 147.81 417.809 151.655 417.81 156.398V166.358C417.81 171.101 413.965 174.946 409.222 174.946H299.236C294.493 174.946 290.648 171.101 290.648 166.358V156.398C290.649 151.655 294.493 147.81 299.236 147.81Z" fill="white"/>
<path d="M299.236 147.81H409.222C413.965 147.81 417.809 151.655 417.81 156.398V166.358C417.81 171.101 413.965 174.946 409.222 174.946H299.236C294.493 174.946 290.648 171.101 290.648 166.358V156.398C290.649 151.655 294.493 147.81 299.236 147.81Z" stroke="black" stroke-width="0.904039"/>
<path d="M301.404 156.313H310.071C310.276 156.313 310.448 156.382 310.586 156.521C310.725 156.659 310.794 156.831 310.794 157.035C310.794 157.24 310.725 157.412 310.586 157.55C310.448 157.688 310.276 157.758 310.071 157.758H301.404C301.199 157.758 301.027 157.688 300.889 157.55C300.75 157.412 300.681 157.24 300.681 157.035C300.681 156.831 300.75 156.659 300.889 156.521C301.027 156.382 301.199 156.313 301.404 156.313ZM302.848 154.146H308.627C308.831 154.146 309.003 154.215 309.141 154.354C309.28 154.492 309.349 154.664 309.349 154.868C309.349 155.073 309.28 155.245 309.141 155.383C309.003 155.521 308.831 155.591 308.627 155.591H302.848C302.644 155.591 302.472 155.521 302.334 155.383C302.195 155.245 302.126 155.073 302.126 154.868C302.126 154.664 302.195 154.492 302.334 154.354C302.472 154.215 302.644 154.146 302.848 154.146ZM309.476 168.611L309.259 167.527C309.114 167.467 308.979 167.404 308.853 167.338C308.726 167.271 308.597 167.19 308.464 167.094L307.417 167.419L306.695 166.191L307.525 165.468C307.501 165.312 307.489 165.155 307.489 164.999C307.489 164.842 307.501 164.686 307.525 164.529L306.695 163.807L307.417 162.579L308.464 162.904C308.597 162.808 308.726 162.727 308.853 162.66C308.979 162.594 309.114 162.531 309.259 162.471L309.476 161.387H310.92L311.137 162.471C311.281 162.531 311.417 162.594 311.543 162.66C311.67 162.727 311.799 162.808 311.931 162.904L312.979 162.579L313.701 163.807L312.871 164.529C312.895 164.686 312.907 164.842 312.907 164.999C312.907 165.155 312.895 165.312 312.871 165.468L313.701 166.191L312.979 167.419L311.931 167.094C311.799 167.19 311.67 167.271 311.543 167.338C311.417 167.404 311.281 167.467 311.137 167.527L310.92 168.611H309.476ZM311.218 166.019C311.501 165.736 311.643 165.396 311.643 164.999C311.643 164.602 311.501 164.262 311.218 163.979C310.935 163.696 310.595 163.554 310.198 163.554C309.801 163.554 309.461 163.696 309.178 163.979C308.895 164.262 308.753 164.602 308.753 164.999C308.753 165.396 308.895 165.736 309.178 166.019C309.461 166.302 309.801 166.444 310.198 166.444C310.595 166.444 310.935 166.302 311.218 166.019ZM305.611 167.148H300.681L299.237 158.48H312.238L311.931 160.25C311.655 160.141 311.372 160.06 311.083 160.006C310.794 159.952 310.499 159.925 310.198 159.925C308.789 159.925 307.592 160.418 306.604 161.405C305.617 162.393 305.124 163.59 305.124 164.999C305.124 165.372 305.166 165.739 305.25 166.101C305.334 166.462 305.455 166.811 305.611 167.148Z" fill="#A8C400"/>
<path d="M323.539 167.02C322.617 167.02 321.79 166.805 321.06 166.377C320.335 165.948 319.763 165.332 319.344 164.527C318.93 163.721 318.723 162.754 318.723 161.624C318.723 160.489 318.932 159.519 319.351 158.714C319.775 157.904 320.349 157.285 321.075 156.856C321.804 156.428 322.626 156.214 323.539 156.214C324.119 156.214 324.66 156.296 325.164 156.461C325.672 156.626 326.124 156.868 326.52 157.188C326.916 157.504 327.238 157.892 327.488 158.354C327.742 158.81 327.909 159.331 327.989 159.914H326.068C326.016 159.594 325.915 159.312 325.764 159.067C325.618 158.822 325.435 158.615 325.213 158.445C324.997 158.271 324.75 158.142 324.472 158.057C324.194 157.968 323.895 157.923 323.575 157.923C323 157.923 322.492 158.066 322.049 158.354C321.607 158.636 321.261 159.055 321.011 159.611C320.761 160.162 320.637 160.833 320.637 161.624C320.637 162.424 320.761 163.1 321.011 163.651C321.265 164.197 321.611 164.611 322.049 164.894C322.492 165.172 322.998 165.31 323.568 165.31C323.883 165.31 324.177 165.27 324.451 165.19C324.724 165.106 324.971 164.981 325.192 164.816C325.418 164.647 325.604 164.444 325.75 164.209C325.901 163.969 326.007 163.693 326.068 163.382H327.989C327.918 163.886 327.763 164.359 327.523 164.802C327.287 165.24 326.977 165.626 326.591 165.96C326.209 166.29 325.762 166.549 325.249 166.737C324.735 166.926 324.166 167.02 323.539 167.02ZM330.92 164.357L334.084 158.982H335.991V166.878H334.204V161.497L331.047 166.878H329.133V158.982H330.92V164.357ZM340.808 167.034C340.022 167.034 339.346 166.862 338.781 166.518C338.216 166.17 337.783 165.69 337.481 165.077C337.18 164.465 337.029 163.761 337.029 162.966C337.029 162.16 337.182 161.452 337.489 160.84C337.795 160.228 338.23 159.75 338.795 159.406C339.36 159.058 340.026 158.883 340.794 158.883C341.439 158.883 342.009 159.001 342.503 159.236C342.998 159.472 343.391 159.804 343.683 160.232C343.979 160.656 344.149 161.153 344.191 161.723H342.411C342.364 161.468 342.272 161.24 342.136 161.037C341.999 160.835 341.82 160.675 341.599 160.557C341.382 160.439 341.124 160.381 340.822 160.381C340.441 160.381 340.106 160.484 339.819 160.691C339.537 160.894 339.315 161.186 339.155 161.567C338.995 161.949 338.915 162.405 338.915 162.937C338.915 163.474 338.993 163.938 339.148 164.329C339.304 164.715 339.525 165.014 339.812 165.226C340.099 165.433 340.436 165.536 340.822 165.536C341.232 165.536 341.578 165.416 341.86 165.176C342.148 164.936 342.331 164.604 342.411 164.18H344.191C344.149 164.741 343.984 165.235 343.697 165.664C343.409 166.092 343.021 166.429 342.531 166.674C342.042 166.914 341.467 167.034 340.808 167.034ZM344.339 160.508V158.982H351.24V160.508H348.69V166.878H346.889V160.508H344.339ZM355.357 167.034C354.566 167.034 353.884 166.869 353.309 166.539C352.735 166.205 352.292 165.734 351.981 165.127C351.675 164.519 351.522 163.804 351.522 162.98C351.522 162.165 351.675 161.452 351.981 160.84C352.287 160.223 352.718 159.743 353.274 159.399C353.829 159.055 354.484 158.883 355.237 158.883C355.722 158.883 356.181 158.961 356.615 159.116C357.052 159.272 357.439 159.512 357.773 159.837C358.112 160.162 358.378 160.576 358.571 161.08C358.764 161.579 358.861 162.175 358.861 162.867V163.446H352.391V162.196H357.935L357.067 162.563C357.067 162.116 356.998 161.727 356.862 161.398C356.725 161.063 356.523 160.802 356.254 160.614C355.986 160.425 355.652 160.331 355.251 160.331C354.851 160.331 354.51 160.425 354.227 160.614C353.945 160.802 353.731 161.056 353.585 161.376C353.439 161.692 353.366 162.045 353.366 162.436V163.305C353.366 163.785 353.448 164.197 353.613 164.541C353.782 164.88 354.018 165.139 354.319 165.318C354.625 165.496 354.981 165.586 355.386 165.586C355.649 165.586 355.889 165.548 356.106 165.473C356.327 165.398 356.516 165.285 356.671 165.134C356.831 164.979 356.954 164.788 357.038 164.562L358.776 164.767C358.663 165.223 358.453 165.624 358.147 165.967C357.846 166.306 357.457 166.57 356.982 166.758C356.511 166.942 355.97 167.034 355.357 167.034ZM364.412 164.717L366.757 158.982H368.247L365.062 166.878H363.762L360.64 158.982H362.131L364.412 164.717ZM361.657 158.982V166.878H359.871V158.982H361.657ZM367.237 166.878V158.982H369.01V166.878H367.237ZM375.79 162.16V163.686H371.602V162.16H375.79ZM372.167 158.982V166.878H370.38V158.982H372.167ZM377.019 158.982V166.878H375.232V158.982H377.019ZM381.829 167.034C381.057 167.034 380.388 166.864 379.823 166.525C379.258 166.186 378.82 165.711 378.509 165.099C378.203 164.486 378.05 163.775 378.05 162.966C378.05 162.151 378.203 161.438 378.509 160.826C378.82 160.209 379.258 159.731 379.823 159.392C380.388 159.053 381.057 158.883 381.829 158.883C382.601 158.883 383.27 159.053 383.835 159.392C384.4 159.731 384.838 160.209 385.148 160.826C385.459 161.438 385.614 162.151 385.614 162.966C385.614 163.775 385.459 164.486 385.148 165.099C384.838 165.711 384.4 166.186 383.835 166.525C383.27 166.864 382.601 167.034 381.829 167.034ZM381.829 165.536C382.257 165.536 382.61 165.423 382.888 165.197C383.166 164.967 383.373 164.656 383.51 164.265C383.651 163.874 383.722 163.441 383.722 162.966C383.722 162.481 383.651 162.043 383.51 161.652C383.373 161.261 383.166 160.953 382.888 160.727C382.61 160.496 382.257 160.381 381.829 160.381C381.41 160.381 381.059 160.496 380.776 160.727C380.494 160.953 380.282 161.261 380.141 161.652C380.004 162.043 379.936 162.481 379.936 162.966C379.936 163.441 380.004 163.874 380.141 164.265C380.282 164.656 380.494 164.967 380.776 165.197C381.059 165.423 381.41 165.536 381.829 165.536ZM390.078 167.034C389.292 167.034 388.616 166.862 388.051 166.518C387.486 166.17 387.053 165.69 386.752 165.077C386.45 164.465 386.3 163.761 386.3 162.966C386.3 162.16 386.453 161.452 386.759 160.84C387.065 160.228 387.5 159.75 388.065 159.406C388.63 159.058 389.297 158.883 390.064 158.883C390.709 158.883 391.279 159.001 391.773 159.236C392.268 159.472 392.661 159.804 392.953 160.232C393.249 160.656 393.419 161.153 393.461 161.723H391.681C391.634 161.468 391.542 161.24 391.406 161.037C391.269 160.835 391.09 160.675 390.869 160.557C390.653 160.439 390.394 160.381 390.092 160.381C389.711 160.381 389.377 160.484 389.089 160.691C388.807 160.894 388.586 161.186 388.425 161.567C388.265 161.949 388.185 162.405 388.185 162.937C388.185 163.474 388.263 163.938 388.418 164.329C388.574 164.715 388.795 165.014 389.082 165.226C389.37 165.433 389.706 165.536 390.092 165.536C390.502 165.536 390.848 165.416 391.13 165.176C391.418 164.936 391.601 164.604 391.681 164.18H393.461C393.419 164.741 393.254 165.235 392.967 165.664C392.68 166.092 392.291 166.429 391.801 166.674C391.312 166.914 390.737 167.034 390.078 167.034ZM393.61 160.508V158.982H400.51V160.508H397.96V166.878H396.159V160.508H393.61ZM402.721 161.56H405.044C406.047 161.555 406.824 161.8 407.375 162.295C407.931 162.784 408.208 163.425 408.208 164.216C408.208 164.734 408.084 165.193 407.834 165.593C407.584 165.993 407.224 166.309 406.753 166.539C406.283 166.765 405.713 166.878 405.044 166.878H401.456V158.982H403.243V165.353H405.044C405.444 165.353 405.774 165.252 406.033 165.049C406.297 164.842 406.429 164.574 406.429 164.244C406.429 163.9 406.297 163.62 406.033 163.404C405.774 163.187 405.444 163.081 405.044 163.086H402.721V161.56Z" fill="black"/>
<path d="M26.2178 291.552H145.406C150.149 291.552 153.995 295.397 153.995 300.14V310.1C153.995 314.844 150.149 318.688 145.406 318.688H26.2178C21.4747 318.688 17.6299 314.843 17.6299 310.1V300.14C17.6301 295.397 21.4748 291.553 26.2178 291.552Z" fill="white"/>
<path d="M26.2178 291.552H145.406C150.149 291.552 153.995 295.397 153.995 300.14V310.1C153.995 314.844 150.149 318.688 145.406 318.688H26.2178C21.4747 318.688 17.6299 314.843 17.6299 310.1V300.14C17.6301 295.397 21.4748 291.553 26.2178 291.552Z" stroke="black" stroke-width="0.904039"/>
<path d="M31.5315 309.426C31.7252 309.426 31.9103 309.39 32.0868 309.318C32.2634 309.247 32.437 309.163 32.6079 309.067C32.6762 309.019 32.7474 308.978 32.8215 308.942C32.8955 308.906 32.9724 308.888 33.0521 308.888C33.1432 308.888 33.2913 308.948 33.4963 309.067C33.6672 309.163 33.8409 309.247 34.0174 309.318C34.194 309.39 34.3791 309.426 34.5727 309.426C35.1422 309.426 35.6007 309.214 35.9481 308.789C36.2955 308.365 36.4692 307.8 36.4692 307.094C36.4692 306.233 36.1873 305.569 35.6235 305.103C35.0596 304.636 34.2481 304.403 33.1888 304.403H32.9154C31.8562 304.403 31.0446 304.636 30.4808 305.103C29.917 305.569 29.6351 306.233 29.6351 307.094C29.6351 307.8 29.8088 308.365 30.1562 308.789C30.5036 309.214 30.962 309.426 31.5315 309.426ZM31.5144 308.35C31.2411 308.35 31.0275 308.239 30.8737 308.018C30.72 307.797 30.6431 307.489 30.6431 307.094C30.6431 306.544 30.8282 306.137 31.1984 305.874C31.5685 305.611 32.1409 305.479 32.9154 305.479H33.1717C33.9462 305.479 34.5158 305.611 34.8802 305.874C35.2447 306.137 35.427 306.544 35.427 307.094C35.427 307.489 35.3529 307.797 35.2049 308.018C35.0568 308.239 34.8461 308.35 34.5727 308.35C34.436 308.35 34.2424 308.278 33.9918 308.134C33.8437 308.039 33.6928 307.961 33.539 307.901C33.3853 307.841 33.223 307.812 33.0521 307.812C32.8813 307.812 32.7161 307.841 32.5566 307.901C32.3972 307.961 32.2434 308.039 32.0953 308.134C32.0042 308.194 31.9103 308.245 31.8134 308.287C31.7166 308.329 31.617 308.35 31.5144 308.35ZM28.936 303.667C29.0476 303.953 29.3736 304.092 29.6482 303.956C30.0999 303.733 30.4771 303.493 30.7798 303.237C31.0908 302.974 31.3888 302.639 31.6736 302.231C31.8308 302.006 31.7621 301.699 31.5342 301.546C31.291 301.383 30.9631 301.458 30.7894 301.694C30.5847 301.972 30.3736 302.2 30.1562 302.376C29.9198 302.567 29.6065 302.762 29.2162 302.96C28.9566 303.092 28.83 303.396 28.936 303.667ZM36.4405 303.945C36.7127 304.086 37.0408 303.949 37.1523 303.664C37.2574 303.396 37.1301 303.094 36.8722 302.965C36.4925 302.774 36.1873 302.584 35.9566 302.394C35.74 302.215 35.5261 301.981 35.3147 301.692C35.1419 301.456 34.8143 301.382 34.5713 301.545C34.3427 301.699 34.2737 302.007 34.4318 302.232C34.7163 302.638 35.0138 302.97 35.3245 303.228C35.6257 303.478 35.9978 303.718 36.4405 303.945ZM33.0521 312.296C32.1067 312.296 31.2183 312.108 30.3868 311.731C29.5553 311.355 28.8321 310.843 28.217 310.198C27.6019 309.552 27.115 308.792 26.7562 307.919C26.3974 307.046 26.218 306.113 26.218 305.121C26.218 304.128 26.3974 303.195 26.7562 302.322C27.115 301.449 27.6019 300.69 28.217 300.044C28.8321 299.398 29.5553 298.887 30.3868 298.51C31.2183 298.133 32.1067 297.945 33.0521 297.945C33.9975 297.945 34.8859 298.133 35.7174 298.51C36.5489 298.887 37.2722 299.398 37.8872 300.044C38.5023 300.69 38.9892 301.449 39.348 302.322C39.7068 303.195 39.8862 304.128 39.8862 305.121C39.8862 306.113 39.7068 307.046 39.348 307.919C38.9892 308.792 38.5023 309.552 37.8872 310.198C37.2722 310.843 36.5489 311.355 35.7174 311.731C34.8859 312.108 33.9975 312.296 33.0521 312.296Z" fill="#A8C400"/>
<path d="M49.7248 310.762C48.8019 310.762 47.9756 310.548 47.2457 310.119C46.5206 309.691 45.9485 309.074 45.5295 308.269C45.1151 307.464 44.908 306.496 44.908 305.366C44.908 304.231 45.1175 303.261 45.5365 302.456C45.9603 301.646 46.5348 301.027 47.2599 300.598C47.9897 300.17 48.8113 299.956 49.7248 299.956C50.3039 299.956 50.8454 300.038 51.3492 300.203C51.8578 300.368 52.3098 300.61 52.7053 300.93C53.1008 301.246 53.4233 301.634 53.6729 302.096C53.9272 302.553 54.0943 303.073 54.1743 303.657H52.2533C52.2015 303.337 52.1002 303.054 51.9496 302.809C51.8036 302.564 51.62 302.357 51.3987 302.188C51.1821 302.013 50.9349 301.884 50.6571 301.799C50.3793 301.71 50.0803 301.665 49.7601 301.665C49.1857 301.665 48.6771 301.809 48.2345 302.096C47.7919 302.378 47.4459 302.797 47.1963 303.353C46.9467 303.904 46.822 304.575 46.822 305.366C46.822 306.166 46.9467 306.842 47.1963 307.393C47.4506 307.939 47.7966 308.353 48.2345 308.636C48.6771 308.914 49.1833 309.053 49.753 309.053C50.0685 309.053 50.3628 309.013 50.6359 308.933C50.909 308.848 51.1562 308.723 51.3775 308.558C51.6035 308.389 51.7895 308.186 51.9354 307.951C52.0861 307.711 52.1921 307.435 52.2533 307.125H54.1743C54.1037 307.628 53.9483 308.102 53.7082 308.544C53.4728 308.982 53.162 309.368 52.7759 309.702C52.3945 310.032 51.9472 310.291 51.434 310.479C50.9208 310.668 50.351 310.762 49.7248 310.762ZM57.5927 310.783C57.0889 310.783 56.6369 310.694 56.2367 310.515C55.8365 310.331 55.521 310.063 55.2903 309.71C55.0596 309.356 54.9442 308.921 54.9442 308.403C54.9442 307.96 55.0266 307.593 55.1914 307.301C55.3562 307.009 55.5798 306.776 55.8624 306.602C56.1496 306.428 56.4721 306.296 56.83 306.206C57.1878 306.112 57.5574 306.046 57.9388 306.009C58.405 305.957 58.7817 305.912 59.0689 305.874C59.3561 305.837 59.5633 305.776 59.6904 305.691C59.8222 305.606 59.8882 305.474 59.8882 305.295V305.26C59.8882 304.879 59.7752 304.582 59.5491 304.37C59.3231 304.158 58.9935 304.052 58.5603 304.052C58.1036 304.052 57.7411 304.151 57.4727 304.349C57.209 304.547 57.0301 304.78 56.9359 305.048L55.2055 304.801C55.3421 304.321 55.5681 303.92 55.8835 303.6C56.199 303.275 56.5828 303.033 57.0348 302.873C57.4915 302.708 57.9953 302.626 58.5462 302.626C58.9229 302.626 59.2996 302.67 59.6763 302.76C60.053 302.844 60.399 302.99 60.7145 303.198C61.03 303.405 61.2819 303.683 61.4702 304.031C61.6586 304.379 61.7527 304.815 61.7527 305.338V310.621H59.9658V309.533H59.9093C59.7963 309.75 59.6362 309.954 59.4291 310.147C59.2266 310.336 58.9723 310.489 58.6663 310.606C58.3649 310.724 58.0071 310.783 57.5927 310.783ZM58.066 309.413C58.4426 309.413 58.7675 309.34 59.0406 309.194C59.3137 309.043 59.5256 308.845 59.6763 308.601C59.8269 308.351 59.9023 308.08 59.9023 307.788V306.863C59.8411 306.91 59.7422 306.955 59.6056 306.997C59.4691 307.035 59.3137 307.07 59.1395 307.103C58.9653 307.136 58.7934 307.165 58.6239 307.188C58.4591 307.212 58.3155 307.23 58.1931 307.245C57.9153 307.282 57.6657 307.346 57.4444 307.435C57.2278 307.52 57.056 307.638 56.9288 307.788C56.8017 307.939 56.7381 308.134 56.7381 308.375C56.7381 308.718 56.8629 308.977 57.1125 309.152C57.362 309.326 57.6799 309.413 58.066 309.413ZM67.6714 308.459L70.0162 302.724H71.5065L68.3211 310.621H67.0216L63.8998 302.724H65.3901L67.6714 308.459ZM64.9169 302.724V310.621H63.13V302.724H64.9169ZM70.4965 310.621V302.724H72.2692V310.621H70.4965ZM77.079 310.776C76.3068 310.776 75.6382 310.606 75.0732 310.267C74.5082 309.928 74.0703 309.453 73.7595 308.841C73.4534 308.229 73.3004 307.518 73.3004 306.708C73.3004 305.893 73.4534 305.18 73.7595 304.568C74.0703 303.951 74.5082 303.473 75.0732 303.134C75.6382 302.795 76.3068 302.626 77.079 302.626C77.8512 302.626 78.5198 302.795 79.0849 303.134C79.6499 303.473 80.0878 303.951 80.3985 304.568C80.7093 305.18 80.8647 305.893 80.8647 306.708C80.8647 307.518 80.7093 308.229 80.3985 308.841C80.0878 309.453 79.6499 309.928 79.0849 310.267C78.5198 310.606 77.8512 310.776 77.079 310.776ZM77.079 309.279C77.5075 309.279 77.8606 309.166 78.1384 308.94C78.4162 308.709 78.6234 308.398 78.76 308.007C78.9012 307.617 78.9718 307.183 78.9718 306.708C78.9718 306.223 78.9012 305.785 78.76 305.394C78.6234 305.003 78.4162 304.695 78.1384 304.469C77.8606 304.238 77.5075 304.123 77.079 304.123C76.66 304.123 76.3092 304.238 76.0267 304.469C75.7441 304.695 75.5323 305.003 75.391 305.394C75.2545 305.785 75.1862 306.223 75.1862 306.708C75.1862 307.183 75.2545 307.617 75.391 308.007C75.5323 308.398 75.7441 308.709 76.0267 308.94C76.3092 309.166 76.66 309.279 77.079 309.279ZM81.8888 310.621V302.724H83.7463V305.917H84.4243L86.8045 302.724H89.0363L86.1194 306.609L89.0646 310.621H86.8186L84.6503 307.64H83.7463V310.621H81.8888ZM92.6878 310.776C91.9156 310.776 91.247 310.606 90.682 310.267C90.1169 309.928 89.6791 309.453 89.3683 308.841C89.0622 308.229 88.9092 307.518 88.9092 306.708C88.9092 305.893 89.0622 305.18 89.3683 304.568C89.6791 303.951 90.1169 303.473 90.682 303.134C91.247 302.795 91.9156 302.626 92.6878 302.626C93.46 302.626 94.1286 302.795 94.6936 303.134C95.2587 303.473 95.6966 303.951 96.0073 304.568C96.3181 305.18 96.4735 305.893 96.4735 306.708C96.4735 307.518 96.3181 308.229 96.0073 308.841C95.6966 309.453 95.2587 309.928 94.6936 310.267C94.1286 310.606 93.46 310.776 92.6878 310.776ZM92.6878 309.279C93.1163 309.279 93.4694 309.166 93.7472 308.94C94.025 308.709 94.2322 308.398 94.3688 308.007C94.51 307.617 94.5806 307.183 94.5806 306.708C94.5806 306.223 94.51 305.785 94.3688 305.394C94.2322 305.003 94.025 304.695 93.7472 304.469C93.4694 304.238 93.1163 304.123 92.6878 304.123C92.2688 304.123 91.918 304.238 91.6355 304.469C91.3529 304.695 91.1411 305.003 90.9998 305.394C90.8633 305.785 90.795 306.223 90.795 306.708C90.795 307.183 90.8633 307.617 90.9998 308.007C91.1411 308.398 91.3529 308.709 91.6355 308.94C91.918 309.166 92.2688 309.279 92.6878 309.279ZM102.908 305.903V307.428H98.7194V305.903H102.908ZM99.2845 302.724V310.621H97.4976V302.724H99.2845ZM104.137 302.724V310.621H102.35V302.724H104.137ZM104.638 304.25V302.724H111.538V304.25H108.989V310.621H107.188V304.25H104.638ZM112.485 313.573V302.724H114.307V304.031H114.42C114.514 303.843 114.648 303.64 114.823 303.424C114.997 303.202 115.232 303.014 115.529 302.859C115.83 302.703 116.214 302.626 116.68 302.626C117.288 302.626 117.836 302.781 118.326 303.092C118.815 303.402 119.204 303.859 119.491 304.462C119.783 305.065 119.929 305.806 119.929 306.687C119.929 307.553 119.788 308.29 119.505 308.897C119.223 309.505 118.834 309.968 118.34 310.289C117.85 310.604 117.295 310.762 116.673 310.762C116.226 310.762 115.851 310.687 115.55 310.536C115.253 310.38 115.013 310.197 114.83 309.985C114.651 309.768 114.514 309.564 114.42 309.37H114.342V313.573H112.485ZM116.165 309.236C116.574 309.236 116.916 309.126 117.189 308.904C117.466 308.683 117.676 308.379 117.817 307.993C117.959 307.607 118.029 307.169 118.029 306.68C118.029 306.19 117.959 305.754 117.817 305.373C117.676 304.992 117.469 304.693 117.196 304.476C116.923 304.259 116.579 304.151 116.165 304.151C115.764 304.151 115.425 304.255 115.148 304.462C114.874 304.669 114.665 304.963 114.519 305.345C114.378 305.721 114.307 306.166 114.307 306.68C114.307 307.188 114.378 307.635 114.519 308.021C114.665 308.403 114.877 308.702 115.155 308.918C115.432 309.13 115.769 309.236 116.165 309.236ZM124.4 310.776C123.628 310.776 122.959 310.606 122.394 310.267C121.829 309.928 121.391 309.453 121.08 308.841C120.774 308.229 120.621 307.518 120.621 306.708C120.621 305.893 120.774 305.18 121.08 304.568C121.391 303.951 121.829 303.473 122.394 303.134C122.959 302.795 123.628 302.626 124.4 302.626C125.172 302.626 125.841 302.795 126.406 303.134C126.971 303.473 127.409 303.951 127.719 304.568C128.03 305.18 128.185 305.893 128.185 306.708C128.185 307.518 128.03 308.229 127.719 308.841C127.409 309.453 126.971 309.928 126.406 310.267C125.841 310.606 125.172 310.776 124.4 310.776ZM124.4 309.279C124.828 309.279 125.181 309.166 125.459 308.94C125.737 308.709 125.944 308.398 126.081 308.007C126.222 307.617 126.293 307.183 126.293 306.708C126.293 306.223 126.222 305.785 126.081 305.394C125.944 305.003 125.737 304.695 125.459 304.469C125.181 304.238 124.828 304.123 124.4 304.123C123.981 304.123 123.63 304.238 123.347 304.469C123.065 304.695 122.853 305.003 122.712 305.394C122.575 305.785 122.507 306.223 122.507 306.708C122.507 307.183 122.575 307.617 122.712 308.007C122.853 308.398 123.065 308.709 123.347 308.94C123.63 309.166 123.981 309.279 124.4 309.279ZM128.666 310.621L128.659 309.088H128.92C129.198 309.088 129.417 309.003 129.577 308.834C129.742 308.664 129.866 308.372 129.951 307.958C130.036 307.539 130.092 306.962 130.121 306.228L130.255 302.724H136.011V310.621H134.21V304.25H131.95L131.823 306.807C131.79 307.461 131.717 308.029 131.604 308.509C131.491 308.989 131.328 309.387 131.117 309.702C130.909 310.013 130.65 310.244 130.34 310.395C130.029 310.545 129.662 310.621 129.238 310.621H128.666ZM138.653 305.302H140.976C141.979 305.298 142.756 305.542 143.307 306.037C143.863 306.527 144.14 307.167 144.14 307.958C144.14 308.476 144.016 308.935 143.766 309.335C143.516 309.735 143.156 310.051 142.685 310.282C142.215 310.508 141.645 310.621 140.976 310.621H137.388V302.724H139.175V309.095H140.976C141.376 309.095 141.706 308.994 141.965 308.791C142.229 308.584 142.36 308.316 142.36 307.986C142.36 307.642 142.229 307.362 141.965 307.146C141.706 306.929 141.376 306.823 140.976 306.828H138.653V305.302Z" fill="black"/>
</svg>
