<svg width="1281" height="1282" viewBox="0 0 1281 1282" fill="none" xmlns="http://www.w3.org/2000/svg">
<path d="M640.5 0L659.243 546.698L885.609 48.7932L693.876 561.054L1093.4 187.745L720.383 587.582L1232.24 395.7L734.729 622.242L1281 641L734.729 659.758L1232.24 886.3L720.383 694.418L1093.4 1094.26L693.876 720.946L885.609 1233.21L659.243 735.302L640.5 1282L621.757 735.302L395.391 1233.21L587.124 720.946L187.598 1094.26L560.617 694.418L48.7552 886.3L546.271 659.758L0 641L546.271 622.242L48.7552 395.7L560.617 587.582L187.598 187.745L587.124 561.054L395.391 48.7932L621.757 546.698L640.5 0Z" fill="white" fill-opacity="0.1"/>
</svg>
