<svg width="1281" height="1282" viewBox="0 0 1281 1282" fill="none" xmlns="http://www.w3.org/2000/svg">
<path d="M640.5 0L657.931 308.137L707.451 3.51147L692.602 311.784L773.667 14.0074L726.702 319.038L838.425 31.3728L759.858 329.819L901.015 55.4174L791.706 344.01L960.75 85.8777L821.897 361.454L1016.98 122.42L850.101 381.962L1069.08 164.644L876.009 405.307L1116.48 212.087L899.336 431.235L1158.68 264.23L919.828 459.461L1195.19 320.5L937.259 489.676L1225.63 380.282L951.438 521.549L1249.65 442.92L962.211 554.73L1267 507.729L969.459 588.857L1277.49 573.997L973.104 623.555L1281 641L973.104 658.445L1277.49 708.003L969.459 693.143L1267 774.271L962.211 727.27L1249.65 839.08L951.438 760.451L1225.63 901.718L937.259 792.324L1195.19 961.5L919.828 822.539L1158.68 1017.77L899.336 850.765L1116.48 1069.91L876.009 876.693L1069.08 1117.36L850.101 900.038L1016.98 1159.58L821.897 920.546L960.75 1196.12L791.706 937.99L901.015 1226.58L759.858 952.181L838.425 1250.63L726.702 962.962L773.667 1267.99L692.602 970.216L707.451 1278.49L657.931 973.863L640.5 1282L623.069 973.863L573.549 1278.49L588.398 970.216L507.333 1267.99L554.298 962.962L442.575 1250.63L521.142 952.181L379.985 1226.58L489.294 937.99L320.25 1196.12L459.103 920.546L264.024 1159.58L430.899 900.038L211.922 1117.36L404.991 876.693L164.516 1069.91L381.664 850.765L122.325 1017.77L361.172 822.539L85.8107 961.5L343.741 792.324L55.3741 901.718L329.562 760.451L31.3483 839.08L318.789 727.27L13.9965 774.271L311.541 693.143L3.50873 708.003L307.896 658.445L0 641L307.896 623.555L3.50873 573.997L311.541 588.857L13.9965 507.729L318.789 554.73L31.3483 442.92L329.562 521.549L55.3741 380.282L343.741 489.676L85.8107 320.5L361.172 459.461L122.325 264.23L381.664 431.235L164.516 212.087L404.991 405.307L211.922 164.644L430.899 381.962L264.024 122.42L459.103 361.454L320.25 85.8777L489.294 344.01L379.985 55.4174L521.142 329.819L442.575 31.3728L554.298 319.038L507.333 14.0074L588.398 311.784L573.549 3.51147L623.069 308.137L640.5 0Z" fill="white" fill-opacity="0.05"/>
</svg>
