<svg width="1600" height="2140" viewBox="0 0 1600 2140" fill="none" xmlns="http://www.w3.org/2000/svg">
<path opacity="0.07" d="M800 -680L846.763 494.906L1339.58 -572.67L933.17 530.697L1797.02 -267.021L999.303 596.83L2102.67 190.416L1035.09 683.237L2210 730L1035.09 776.763L2102.67 1269.58L999.303 863.17L1797.02 1727.02L933.17 929.303L1339.58 2032.67L846.763 965.094L800 2140L753.237 965.094L260.416 2032.67L666.83 929.303L-197.021 1727.02L600.697 863.17L-502.67 1269.58L564.906 776.763L-610 730L564.906 683.237L-502.67 190.416L600.697 596.83L-197.021 -267.021L666.83 530.697L260.416 -572.67L753.237 494.906L800 -680Z" fill="url(#paint0_radial_107_100)"/>
<defs>
<radialGradient id="paint0_radial_107_100" cx="0" cy="0" r="1" gradientUnits="userSpaceOnUse" gradientTransform="translate(800 730) rotate(90) scale(1410)">
<stop stop-opacity="0"/>
<stop offset="1"/>
</radialGradient>
</defs>
</svg>
