<svg width="265" height="159" viewBox="0 0 265 159" fill="none" xmlns="http://www.w3.org/2000/svg">
<path fill-rule="evenodd" clip-rule="evenodd" d="M256.362 -83.2946C271.841 -89.8032 288.436 -76.732 285.702 -60.183L253.419 135.285C250.306 154.132 229.578 164.946 212.264 155.554C197.775 147.695 176.278 135.599 156.905 122.958C147.231 116.645 117.609 96.4025 121.25 81.9932C124.363 69.6727 174.161 23.3813 202.618 -4.14848C213.796 -14.9625 208.705 -21.2097 195.504 -11.253C162.756 13.4464 110.179 50.9993 92.7923 61.5679C77.4521 70.8918 69.4426 72.4832 59.8889 70.8918C42.443 67.9889 26.2685 63.4932 13.0633 58.027C-4.78446 50.6384 -3.9151 26.145 13.0512 19.0121L256.362 -83.2946Z" fill="black" fill-opacity="0.05"/>
</svg>
