<svg width="14" height="12" viewBox="0 0 14 12" fill="none" xmlns="http://www.w3.org/2000/svg">
<path fill-rule="evenodd" clip-rule="evenodd" d="M12.5492 0.0838744C13.3069 -0.236225 14.1192 0.406622 13.9854 1.22051L12.4051 10.8337C12.2528 11.7606 11.2381 12.2924 10.3905 11.8305C9.68128 11.444 8.62901 10.8491 7.68066 10.2274C7.20711 9.91695 5.75707 8.92143 5.9353 8.21278C6.0877 7.60685 8.52537 5.33023 9.91837 3.9763C10.4655 3.44447 10.2163 3.13723 9.57012 3.6269C7.96706 4.84163 5.39337 6.68849 4.54228 7.20826C3.79136 7.66681 3.39929 7.74507 2.93163 7.66681C2.07763 7.52404 1.28587 7.30294 0.639463 7.03411C-0.234204 6.67074 -0.191648 5.46615 0.638871 5.11535L12.5492 0.0838744Z" fill="black"/>
</svg>
