<svg width="225" height="233" viewBox="0 0 225 233" fill="none" xmlns="http://www.w3.org/2000/svg">
<path d="M47.8616 193.188C36.9082 195.324 26.857 193.283 17.708 187.067C8.55896 180.85 2.92613 172.233 0.809498 161.216C-1.30713 150.2 0.727421 140.088 6.91316 130.881C13.0989 121.674 21.6685 116.002 32.6219 113.866L27.542 87.4258C26.145 80.1547 27.5231 73.4282 31.6764 67.2464C35.8297 61.0645 41.521 57.2688 48.7502 55.859L88.1825 48.1695C86.0659 37.1527 88.1004 27.0408 94.2861 17.8338C100.472 8.62681 109.041 2.95534 119.995 0.819371C130.948 -1.3166 140.999 0.723727 150.149 6.94035C159.298 13.157 164.93 21.7737 167.047 32.7906L206.479 25.1011C213.709 23.6913 220.395 25.0735 226.538 29.2475C232.68 33.4215 236.45 39.1441 237.847 46.4152L242.927 72.8556C253.881 70.7197 263.932 72.76 273.081 78.9766C282.23 85.1932 287.863 93.81 289.979 104.827C292.096 115.844 290.061 125.956 283.876 135.163C277.69 144.37 269.12 150.041 258.167 152.177L268.327 205.058C269.724 212.329 268.346 219.055 264.192 225.237C260.039 231.419 254.348 235.215 247.119 236.625L89.3896 267.383C82.1603 268.792 75.4742 267.41 69.3313 263.236C63.1884 259.062 59.4184 253.34 58.0215 246.068L47.8616 193.188ZM121.357 145.424C124.449 140.821 125.467 135.765 124.408 130.256C123.35 124.748 120.534 120.439 115.959 117.331C111.385 114.223 106.359 113.203 100.882 114.271C95.4056 115.339 91.1208 118.174 88.0279 122.778C84.935 127.381 83.9178 132.437 84.9761 137.946C86.0344 143.454 88.8508 147.763 93.4253 150.871C97.9998 153.979 103.025 154.999 108.502 153.931C113.979 152.863 118.264 150.028 121.357 145.424ZM200.221 130.045C203.314 125.442 204.331 120.386 203.273 114.877C202.215 109.369 199.398 105.06 194.824 101.952C190.249 98.8439 185.224 97.8237 179.747 98.8917C174.27 99.9597 169.985 102.795 166.892 107.399C163.8 112.002 162.782 117.058 163.841 122.567C164.899 128.075 167.715 132.384 172.29 135.492C176.864 138.6 181.89 139.62 187.367 138.552C192.843 137.484 197.128 134.649 200.221 130.045ZM105.518 209.375L210.671 188.87L205.591 162.43L100.438 182.935L105.518 209.375Z" fill="url(#paint0_radial_107_771)"/>
<defs>
<radialGradient id="paint0_radial_107_771" cx="0" cy="0" r="1" gradientTransform="matrix(24.1296 125.592 -144.585 28.1948 144.124 126.411)" gradientUnits="userSpaceOnUse">
<stop stop-color="#DAFF00"/>
<stop offset="1" stop-color="#E0FD35"/>
</radialGradient>
</defs>
</svg>
